<?xml version="1.0" encoding="utf-8"?>
<!-- Generator: Adobe Illustrator 16.0.0, SVG Export Plug-In . SVG Version: 6.00 Build 0)  -->
<!DOCTYPE svg PUBLIC "-//W3C//DTD SVG 1.1//EN" "http://www.w3.org/Graphics/SVG/1.1/DTD/svg11.dtd">
<svg version="1.1" id="图层_1" xmlns="http://www.w3.org/2000/svg" xmlns:xlink="http://www.w3.org/1999/xlink" x="0px" y="0px"
	 width="50px" height="50px" viewBox="0 0 50 50" enable-background="new 0 0 50 50" xml:space="preserve">
<g>
	<path fill-rule="evenodd" clip-rule="evenodd" fill="#FF991A" d="M1.5,7.775C1.565,7.3,1.605,6.82,1.698,6.35
		c0.496-2.529,2.257-4.185,4.793-4.4c1.367-0.118,2.747-0.078,4.122-0.105c0.317-0.009,0.634-0.011,0.951,0.001
		c0.7,0.027,1.021,0.319,1.137,1.014c0.074,0.441,0.029,0.876-0.125,1.294c-0.2,0.541-0.538,0.78-1.11,0.782
		c-1.24,0.004-2.479-0.004-3.718,0.002C6.802,4.945,5.958,5.211,5.315,5.95C4.832,6.507,4.632,7.173,4.592,7.897
		c-0.01,0.154-0.008,0.309-0.008,0.465c-0.002,11.674,0,23.348,0,35.023c0,1.638,0.714,2.678,2.24,3.266
		c0.55,0.211,1.116,0.319,1.705,0.319c11.041-0.002,22.082,0,33.123-0.002c1.196,0,2.168-0.433,2.771-1.525
		c0.295-0.533,0.382-1.118,0.382-1.72v-6.074c0-9.805-0.003-19.609,0-29.415c0-0.821-0.158-1.592-0.698-2.24
		c-0.641-0.771-1.499-1.05-2.463-1.056c-0.983-0.006-1.966,0.006-2.948-0.004c-0.796-0.008-1.367-0.415-1.738-1.092
		c-0.389-0.709-0.08-1.455,0.742-1.787c0.305-0.12,0.644-0.198,0.969-0.202c1.205-0.013,2.411-0.017,3.616,0.029
		c2.818,0.11,4.902,1.931,5.438,4.722c0.075,0.385,0.112,0.782,0.165,1.171V43.91c-0.015,0.084-0.028,0.167-0.041,0.251
		c-0.124,0.7-0.181,1.422-0.386,2.097c-0.463,1.534-1.447,2.629-2.934,3.244c-1.046,0.437-2.142,0.563-3.26,0.563
		c-11.047,0-22.096,0.002-33.145-0.009c-0.601,0-1.217-0.042-1.806-0.168c-2.534-0.536-4.077-2.104-4.618-4.655
		C1.601,44.78,1.564,44.315,1.5,43.858V7.775 M24.735,26.051c-3.797,0-7.594-0.001-11.391,0.002c-0.655,0-1.194-0.197-1.544-0.782
		c-0.634-1.059,0.099-2.329,1.375-2.385c0.049-0.005,0.103-0.003,0.152-0.003c7.578,0,15.155,0,22.732-0.002
		c0.68,0,1.239,0.22,1.596,0.835c0.568,0.974-0.056,2.198-1.174,2.311c-0.152,0.014-0.307,0.024-0.459,0.024
		C32.259,26.053,28.497,26.051,24.735,26.051L24.735,26.051 M24.747,14.289c3.814,0,7.626,0,11.441,0.002
		c0.799,0,1.392,0.405,1.618,1.101c0.305,0.93-0.356,1.948-1.324,2.041c-0.076,0.007-0.153,0.012-0.229,0.012
		c-7.68,0-15.36,0-23.038-0.001c-0.817,0-1.464-0.519-1.612-1.274c-0.179-0.902,0.486-1.793,1.396-1.87
		c0.127-0.01,0.255-0.01,0.383-0.01H24.747L24.747,14.289 M24.71,32.224c3.803,0,7.61,0.006,11.415-0.008
		c0.917-0.003,1.514,0.563,1.697,1.222c0.251,0.907-0.418,1.843-1.38,1.931c-0.069,0.009-0.136,0.009-0.205,0.009
		c-7.671,0-15.341,0.002-23.011,0c-0.863,0-1.514-0.549-1.641-1.369c-0.132-0.836,0.535-1.698,1.375-1.775
		c0.144-0.011,0.288-0.009,0.434-0.009H24.71L24.71,32.224 M24.731,0.33c1.724-0.003,3.456,0.031,5.179-0.011
		c1.294-0.034,2.284,1.001,2.474,2.205c0.158,1.005-0.103,1.892-0.842,2.612c-0.412,0.402-0.906,0.604-1.479,0.604
		c-3.534,0-7.063,0.002-10.594-0.002c-1.04-0.002-1.929-0.659-2.267-1.701c-0.387-1.191-0.168-2.26,0.75-3.138
		c0.414-0.395,0.918-0.577,1.495-0.573C21.208,0.334,22.968,0.33,24.731,0.33 M24.731,0.33L24.731,0.33z"/>
</g>
</svg>
