<?xml version="1.0" standalone="no"?><!DOCTYPE svg PUBLIC "-//W3C//DTD SVG 1.1//EN" "http://www.w3.org/Graphics/SVG/1.1/DTD/svg11.dtd"><svg t="1524737960084" class="icon" style="" viewBox="0 0 1024 1024" version="1.1" xmlns="http://www.w3.org/2000/svg" p-id="9448" xmlns:xlink="http://www.w3.org/1999/xlink" width="200" height="200"><defs><style type="text/css"></style></defs><path d="M640 640h-256c-19.2 0-32 12.8-32 32s12.8 32 32 32h256c19.2 0 32-12.8 32-32s-12.8-32-32-32zM384 416v-32c0-19.2-12.8-32-32-32s-32 12.8-32 32v32c0 19.2 12.8 32 32 32s32-12.8 32-32z" p-id="9449" fill="#3cbfef"></path><path d="M512 64c-246.4 0-448 201.6-448 448s201.6 448 448 448 448-201.6 448-448-201.6-448-448-448z m0 832c-211.2 0-384-172.8-384-384s172.8-384 384-384 384 172.8 384 384-172.8 384-384 384z" p-id="9450" fill="#3cbfef"></path><path d="M672 352c-19.2 0-32 12.8-32 32v32c0 19.2 12.8 32 32 32s32-12.8 32-32v-32c0-19.2-12.8-32-32-32z" p-id="9451" fill="#3cbfef"></path></svg>