<?xml version="1.0" encoding="utf-8"?>
<!-- Generator: Adobe Illustrator 16.0.0, SVG Export Plug-In . SVG Version: 6.00 Build 0)  -->
<!DOCTYPE svg PUBLIC "-//W3C//DTD SVG 1.1//EN" "http://www.w3.org/Graphics/SVG/1.1/DTD/svg11.dtd">
<svg version="1.1" id="图层_1" xmlns="http://www.w3.org/2000/svg" xmlns:xlink="http://www.w3.org/1999/xlink" x="0px" y="0px"
	 width="200px" height="200px" viewBox="0 0 200 200" enable-background="new 0 0 200 200" xml:space="preserve">
<path fill="#F5B82C" d="M43.876,67.579L17.527,94.903c-0.108,0.108,0,0.326,0.108,0.326H56.78L44.202,67.687
	C44.202,67.579,43.984,67.579,43.876,67.579z"/>
<path fill="#F5B82C" d="M63.069,99.241H17.744c-1.735,0-3.253-0.976-3.903-2.602c-0.651-1.518-0.326-3.362,0.867-4.554
	l26.349-27.326c0.977-0.976,2.386-1.409,3.687-1.192c1.41,0.217,2.494,1.084,3.145,2.386L63.069,99.241z M26.744,91.217h23.855
	L42.9,74.518L26.744,91.217z"/>
<path fill="#F5B82C" d="M151.009,67.47H45.178c-0.217,0-0.217,0.217-0.109,0.325l52.916,27.434h0.108l53.024-27.434
	C151.226,67.687,151.117,67.47,151.009,67.47z"/>
<path fill="#F5B82C" d="M97.984,99.241c-0.65,0-1.301-0.108-1.843-0.434L43.226,71.374c-1.735-0.868-2.603-2.819-2.169-4.663
	c0.434-1.843,2.169-3.144,4.012-3.144h105.831c1.953,0,3.58,1.301,4.013,3.144c0.435,1.844-0.433,3.795-2.169,4.663L99.937,98.807
	C99.286,99.133,98.635,99.241,97.984,99.241z M60.9,71.482l37.084,19.301l37.192-19.301H60.9z"/>
<path fill="#F5B82C" d="M178.659,95.121l-26.241-27.326c-0.107-0.216-0.434-0.108-0.542,0.108l-12.578,27.434h39.361
	C178.659,95.337,178.768,95.121,178.659,95.121z"/>
<path fill="#F5B82C" d="M178.551,99.349h-45.543l15.182-33.072c0.65-1.301,1.843-2.277,3.253-2.494s2.819,0.217,3.795,1.301
	l28.192,29.169l-0.975,2.602l-1.085,2.494H178.551z M145.479,91.217h23.964L153.178,74.41L145.479,91.217z"/>
<path fill="#F5B82C" d="M17.527,95.663L96.9,183.928c0.217,0.217,0.542,0,0.434-0.326L56.888,95.337H17.635
	C17.527,95.337,17.418,95.446,17.527,95.663z"/>
<path fill="#F5B82C" d="M97.117,187.939c-1.193,0-2.277-0.434-3.145-1.409L14.49,98.265c-1.084-1.193-1.409-3.036-0.65-4.554
	c0.65-1.519,2.168-2.494,3.795-2.494h41.747l41.53,90.65c0.867,1.952,0.217,4.12-1.518,5.314
	C98.744,187.724,97.876,187.939,97.117,187.939L97.117,187.939z M26.31,99.349l57.145,63.542L54.286,99.349H26.31z"/>
<path fill="#F5B82C" d="M17.201,95.337h39.687v-0.108H17.201"/>
<path fill="#F5B82C" d="M56.888,99.349H17.201c-2.168,0-4.012-1.843-4.012-4.012v-0.217c0.108-2.169,1.843-3.795,4.012-3.795h42.181
	l3.578,8.024H56.888z"/>
<path fill="#F5B82C" d="M177.466,95.337h-38.276l-40.988,89.349c0,0.108,0.108,0.108,0.108,0.108l79.59-88.481
	C178.226,95.88,178.008,95.337,177.466,95.337L177.466,95.337z"/>
<path fill="#F5B82C" d="M98.961,190l-5.856-3.795l1.41-3.253l42.181-91.627h40.88c1.844,0,3.47,1.084,4.229,2.711
	s0.434,3.578-0.759,4.879L98.961,190z M141.792,99.349l-29.169,63.434l57.145-63.434H141.792z"/>
<path fill="#F5B82C" d="M139.298,95.229v0.108"/>
<path fill="#F5B82C" d="M139.298,99.349c-0.542,0-1.193-0.108-1.735-0.434c-1.951-0.976-2.818-3.361-1.951-5.313
	c0.977-1.952,3.36-2.819,5.313-1.952c1.951,0.977,2.819,3.361,1.951,5.313C142.226,98.482,140.708,99.349,139.298,99.349z"/>
<path fill="#F5B82C" d="M97.551,95.012L44.418,67.579c-0.109-0.109-0.217,0.108-0.217,0.216L56.78,95.229l0.108,0.108h40.554
	C97.659,95.229,97.659,95.121,97.551,95.012L97.551,95.012z"/>
<path fill="#F5B82C" d="M97.442,99.241H54.395l-1.193-2.385L39.43,66.819l2.061-2.169c1.301-1.193,3.253-1.518,4.771-0.65
	l53.133,27.434c1.734,0.868,2.603,2.82,2.168,4.663C101.021,97.94,99.395,99.241,97.442,99.241z M59.382,91.217h22.012
	L52.551,76.362L59.382,91.217z"/>
<path fill="#F5B82C" d="M97.984,95.337h41.097c0.108,0,0.108,0,0.217-0.108l12.471-27.108c0.107-0.217-0.109-0.326-0.326-0.326
	L97.984,95.337z"/>
<path fill="#F5B82C" d="M97.984,99.349h-4.012v-8.024h3.036L149.6,64.217c1.626-0.867,3.578-0.542,4.88,0.651
	c1.3,1.193,1.626,3.145,0.867,4.771l-12.471,27.108c-0.65,1.518-2.168,2.494-3.795,2.494L97.984,99.349z M114.574,91.217h22.121
	l6.831-14.964L114.574,91.217z"/>
<path fill="#F5B82C" d="M56.888,95.337l40.663,88.699c0.108,0.217,0.434,0.217,0.434-0.108v-88.59H56.888z"/>
<path fill="#F5B82C" d="M97.768,188.156c-1.626,0-3.145-0.975-3.904-2.493L50.599,91.325h51.398v92.603
	c0,2.06-1.409,3.687-3.362,4.121C98.31,188.156,98.093,188.156,97.768,188.156z M63.069,99.349l30.904,67.337V99.349H63.069z"/>
<path fill="#F5B82C" d="M56.888,95.229v0.108h41.096v-0.108H56.888z"/>
<path fill="#F5B82C" d="M97.984,99.349H54.286l-3.578-8.024l6.181-0.108h45.109v8.024L97.984,99.349z"/>
<path fill="#F5B82C" d="M97.984,95.337v88.59c0,0.325,0.326,0.325,0.434,0.108l40.771-88.699H97.984z"/>
<path fill="#F5B82C" d="M98.31,188.156c-0.326,0-0.651,0-0.976-0.107c-1.952-0.435-3.361-2.169-3.361-4.121V91.325h51.506
	l-43.374,94.445C101.455,187.182,99.937,188.156,98.31,188.156z M101.997,99.349v67.446L132.9,99.349H101.997z"/>
<path fill="#F5B82C" d="M97.984,95.229v0.108h41.313v-0.108H97.984z"/>
<path fill="#F5B82C" d="M139.298,99.349H93.973v-8.024l4.012-0.108h47.603l-3.795,8.024L139.298,99.349z"/>
<path fill="#F5B82C" d="M98.093,45.892c-2.168,0-4.012-1.844-4.012-4.012V14.012c0-2.168,1.843-4.012,4.012-4.012
	c2.169,0,4.012,1.844,4.012,4.012v27.867C102.104,44.048,100.262,45.892,98.093,45.892z M61.876,49.687
	c-1.301,0-2.494-0.542-3.253-1.626L43.226,26.482c-1.301-1.843-0.868-4.337,0.976-5.639c1.843-1.301,4.337-0.867,5.638,0.976
	l15.398,21.578c1.301,1.844,0.867,4.337-0.976,5.639C63.503,49.47,62.744,49.687,61.876,49.687z M134.635,48.385
	c-0.65,0-1.409-0.216-1.951-0.542c-1.952-1.084-2.603-3.578-1.518-5.53l13.662-23.963c1.084-1.952,3.578-2.603,5.422-1.519
	c1.951,1.084,2.603,3.579,1.519,5.53l-13.771,23.964C137.346,47.627,135.937,48.385,134.635,48.385z M29.563,63.024
	c-0.759,0-1.626-0.216-2.277-0.759L5.599,47.084c-1.844-1.301-2.277-3.795-0.976-5.639c1.301-1.844,3.795-2.277,5.638-0.976
	l21.687,15.181c1.844,1.301,2.277,3.795,0.976,5.638C32.057,62.482,30.864,63.024,29.563,63.024L29.563,63.024z M172.262,63.024
	c-1.302,0-2.494-0.651-3.361-1.735c-1.302-1.843-0.759-4.337,1.084-5.53l22.771-15.723c1.844-1.301,4.338-0.759,5.529,1.084
	c1.302,1.843,0.76,4.337-1.084,5.53l-22.771,15.723C173.78,62.808,173.021,63.024,172.262,63.024z"/>
</svg>
