<?xml version="1.0" standalone="no"?><!DOCTYPE svg PUBLIC "-//W3C//DTD SVG 1.1//EN" "http://www.w3.org/Graphics/SVG/1.1/DTD/svg11.dtd"><svg t="1524737972684" class="icon" style="" viewBox="0 0 1024 1024" version="1.1" xmlns="http://www.w3.org/2000/svg" p-id="9627" xmlns:xlink="http://www.w3.org/1999/xlink" width="200" height="200"><defs><style type="text/css"></style></defs><path d="M345.6 681.6c3.2-3.2 3.2-6.4 6.4-9.6 41.6-41.6 99.2-67.2 160-67.2s118.4 22.4 160 67.2l9.6 9.6c12.8 19.2 6.4 32-6.4 44.8-12.8 12.8-32 9.6-44.8-3.2l-6.4-6.4c-28.8-28.8-70.4-44.8-112-44.8s-83.2 16-112 48l-6.4 6.4c-12.8 12.8-32 12.8-44.8 3.2-12.8-12.8-16-35.2-3.2-48zM352 352c19.2 0 32 12.8 32 32v32c0 19.2-12.8 32-32 32s-32-12.8-32-32v-32c0-19.2 12.8-32 32-32zM672 352c19.2 0 32 12.8 32 32v32c0 19.2-12.8 32-32 32s-32-12.8-32-32v-32c0-19.2 12.8-32 32-32z" p-id="9628" fill="#3cbfef"></path><path d="M512 960c-246.4 0-448-201.6-448-448s201.6-448 448-448 448 201.6 448 448-201.6 448-448 448z m0-64c211.2 0 384-172.8 384-384s-172.8-384-384-384-384 172.8-384 384 172.8 384 384 384z" p-id="9629" fill="#3cbfef"></path></svg>