<?xml version="1.0" encoding="utf-8"?>
<!-- Generator: Adobe Illustrator 16.0.0, SVG Export Plug-In . SVG Version: 6.00 Build 0)  -->
<!DOCTYPE svg PUBLIC "-//W3C//DTD SVG 1.1//EN" "http://www.w3.org/Graphics/SVG/1.1/DTD/svg11.dtd">
<svg version="1.1" id="图层_1" xmlns="http://www.w3.org/2000/svg" xmlns:xlink="http://www.w3.org/1999/xlink" x="0px" y="0px"
	 width="200px" height="200px" viewBox="0 0 200 200" enable-background="new 0 0 200 200" xml:space="preserve">
<path fill="#F5B82C" d="M100.026,46.566c-42.093,0-76.216,34.123-76.216,76.217c0,42.094,34.123,76.217,76.216,76.217
	c42.095,0,76.219-34.123,76.219-76.217C176.245,80.688,142.121,46.566,100.026,46.566 M139.22,115.985l-15.03,14.649l3.549,20.684
	c1.191,6.943-2.775,9.98-9.134,6.637l-18.577-9.768l-18.575,9.768c-6.234,3.279-10.348,0.444-9.134-6.637l3.547-20.684
	l-15.029-14.649c-5.043-4.917-3.619-9.705,3.491-10.737l20.767-3.018l9.288-18.818c3.116-6.32,8.11-6.443,11.29,0l9.29,18.818
	l20.768,3.018C142.698,106.261,144.361,110.971,139.22,115.985L139.22,115.985z M171.274,2.629H124.15
	c-2.543,0-4.582,1.781-5.181,4.138l-14.528,28.644c0,0,31.107,1.872,49.479,19.564l21.698-43.784
	c0.643-0.893,1.102-1.933,1.102-3.118C176.719,5.066,174.283,2.629,171.274,2.629z M94.841,35.412L80.314,6.768
	c-0.598-2.356-2.638-4.138-5.179-4.138H28.01c-3.007,0-5.445,2.438-5.445,5.444c0,1.185,0.458,2.225,1.1,3.119l21.698,43.782
	C63.737,37.284,94.841,35.411,94.841,35.412L94.841,35.412z"/>
</svg>
