<?xml version="1.0" encoding="utf-8"?>
<!-- Generator: Adobe Illustrator 16.0.0, SVG Export Plug-In . SVG Version: 6.00 Build 0)  -->
<!DOCTYPE svg PUBLIC "-//W3C//DTD SVG 1.1//EN" "http://www.w3.org/Graphics/SVG/1.1/DTD/svg11.dtd">
<svg version="1.1" id="图层_1" xmlns="http://www.w3.org/2000/svg" xmlns:xlink="http://www.w3.org/1999/xlink" x="0px" y="0px"
	 width="200px" height="200px" viewBox="0 0 200 200" enable-background="new 0 0 200 200" xml:space="preserve">
<path fill="#F5B82C" d="M100.292,24.126c3.134,0,6.147,0.627,9.029,1.881c2.885,1.253,5.361,2.978,7.431,5.173
	c2.068,2.194,3.729,4.733,4.982,7.618c1.257,2.884,1.885,5.956,1.885,9.216c0,4.766-1.226,9.028-3.669,12.791
	c-2.445,3.762-5.611,6.646-9.5,8.653c-1.379,3.886-2.068,7.9-2.068,12.037c0,4.64,0.847,9.249,2.538,13.826
	c1.694,4.578,4.015,8.716,6.962,12.413c2.945,3.701,6.393,6.709,10.345,9.03c3.949,2.319,8.183,3.479,12.694,3.479
	c3.889,0,7.558-0.94,11.006-2.822c3.448-1.881,6.583-4.292,9.404-7.238c2.821-2.952,5.204-6.273,7.148-9.972
	c1.942-3.699,3.354-7.366,4.23-11.003c-3.384-1.629-6.143-4.076-8.275-7.336c-2.131-3.259-3.199-6.896-3.199-10.91
	c0-2.758,0.502-5.328,1.507-7.71c1.003-2.383,2.382-4.453,4.136-6.208c1.758-1.756,3.825-3.166,6.21-4.232
	c2.38-1.066,4.891-1.599,7.521-1.599c2.636,0,5.143,0.533,7.525,1.599c2.382,1.066,4.452,2.477,6.207,4.232
	c1.754,1.755,3.135,3.825,4.138,6.208c1.002,2.382,1.505,4.952,1.505,7.71c0,4.014-1.034,7.619-3.103,10.816
	c-2.069,3.198-4.734,5.611-7.994,7.242c-0.627,6.271-1.568,12.666-2.822,19.186c-1.263,6.56-2.833,13.055-4.703,19.47
	c-1.881,6.458-4.075,12.694-6.582,18.716c-2.507,6.016-5.266,11.535-8.276,16.551c-10.41,3.889-21.192,6.866-32.352,8.937
	c-11.161,2.067-22.635,3.102-34.423,3.102c-11.787,0-23.23-1.034-34.327-3.102c-11.099-2.07-21.915-5.048-32.447-8.937
	c-3.011-5.016-5.77-10.534-8.278-16.551c-2.507-6.021-4.702-12.258-6.583-18.716c-1.872-6.42-3.472-12.915-4.797-19.47
	c-1.316-6.519-2.227-12.915-2.727-19.186c-3.261-1.63-5.862-4.044-7.806-7.242C0.822,78.58-0.15,74.976-0.15,70.961
	c0-2.758,0.501-5.328,1.505-7.71c1.003-2.383,2.351-4.453,4.043-6.208c1.693-1.756,3.699-3.166,6.019-4.232
	c2.32-1.066,4.796-1.599,7.43-1.599s5.142,0.533,7.524,1.599c2.383,1.066,4.451,2.477,6.207,4.232
	c1.756,1.755,3.136,3.825,4.139,6.208c1.002,2.382,1.504,4.952,1.504,7.71c0,4.139-1.065,7.839-3.198,11.1
	c-2.131,3.26-4.891,5.642-8.275,7.146c0.876,3.762,2.288,7.493,4.231,11.192c1.944,3.698,4.326,7.054,7.148,10.062
	c2.821,3.011,5.955,5.455,9.404,7.336c3.447,1.88,7.116,2.822,11.003,2.822c4.515,0,8.748-1.162,12.696-3.482
	c3.952-2.315,7.431-5.326,10.44-9.026c3.011-3.699,5.361-7.869,7.054-12.507c1.693-4.64,2.54-9.28,2.54-13.919
	c0-4.39-0.877-8.653-2.634-12.791c-3.51-2.133-6.363-5.048-8.558-8.748c-2.194-3.7-3.292-7.742-3.292-12.133
	c0-3.259,0.627-6.332,1.881-9.215c1.255-2.884,2.946-5.424,5.079-7.618c2.131-2.195,4.608-3.919,7.43-5.173
	C93.992,24.753,97.031,24.126,100.292,24.126L100.292,24.126z"/>
</svg>
