<?xml version="1.0" standalone="no"?><!DOCTYPE svg PUBLIC "-//W3C//DTD SVG 1.1//EN" "http://www.w3.org/Graphics/SVG/1.1/DTD/svg11.dtd"><svg t="1525244425400" class="icon" style="" viewBox="0 0 1024 1024" version="1.1" xmlns="http://www.w3.org/2000/svg" p-id="8553" xmlns:xlink="http://www.w3.org/1999/xlink" width="200" height="200"><defs><style type="text/css"></style></defs><path d="M33.10856 306.046325l0-26.370601 189.668781 0 0 26.370601c-37.20025-1.732457-54.320163 7.04444-51.321876 26.368554-4.463662-7.004531 67.7398 258.611989 67.7398 258.611989 2.963495-10.549264 13.615089-37.804001 13.615089-37.804001s59.760059-186.221262 66.39006-212.551954-7.16519-34.624589-38.406728-34.624589l0-26.370601 129.420605 0 0 26.370601c-28.272927 3.541663-45.393863 18.458397-51.320852 44.828998L236.168326 743.79011l-46.861284 0L82.200652 353.512383C74.73768 318.366931 58.385247 302.543547 33.10856 306.046325zM619.92964 743.79011 412.449191 743.79011l0-26.370601c40.162722 1.772366 58.746986-13.184277 55.783491-44.831045L468.232682 350.875323c2.963495-31.644721-15.620769-46.560432-55.783491-44.828998l0-26.370601 207.480448 0 0 26.370601c-40.167838-1.732457-58.778708 13.184277-55.782467 44.828998l0 321.714166c-2.997264 31.646767 15.614629 46.603411 55.782467 44.831045L619.92964 743.79011zM852.000136 743.79011 644.481825 743.79011l0-26.370601c40.155559 1.772366 58.748009-13.184277 55.784514-44.831045L700.266339 350.875323c2.963495-31.644721-15.627932-46.560432-55.784514-44.828998l0-26.370601 205.282387 0c90.719164 3.540639 137.579425 44.828998 140.579759 123.93773-3.000334 80.880075-47.625694 123.9408-133.88529 129.21492l-64.710814 0 0 134.485971c-2.997264 35.186384 17.086144 51.876508 60.252269 50.104141L852.000136 743.79011zM791.747867 361.424586l0 139.760091 20.083407 0c53.5578 0 80.337723-31.645744 80.337723-94.933139-3.001357-59.742662-23.817452-91.388407-62.48717-94.931093C804.370349 311.320445 791.747867 328.048431 791.747867 361.424586z" p-id="8554" fill="#f5b82c"></path></svg>