<?xml version="1.0" standalone="no"?><!DOCTYPE svg PUBLIC "-//W3C//DTD SVG 1.1//EN" "http://www.w3.org/Graphics/SVG/1.1/DTD/svg11.dtd"><svg t="1516786679226" class="icon" style="" viewBox="0 0 1024 1024" version="1.1" xmlns="http://www.w3.org/2000/svg" p-id="34968" xmlns:xlink="http://www.w3.org/1999/xlink" width="128" height="128"><defs><style type="text/css"></style></defs><path d="M981.671173 312.397934c-25.782498-60.159162-62.737412-116.021241-109.145908-162.429738S770.254689 65.74537 709.23611 39.962872c-125.474824-53.28383-272.435063-53.28383-397.909886 0-60.159162 25.782498-116.021241 62.737412-162.429738 109.145908S65.533075 252.238773 39.750578 312.397934C13.96808 375.135346 0.217414 442.169841 0.217414 512.642003s13.750665 137.506656 39.533163 200.244068c25.782498 60.159162 62.737412 116.021241 109.145908 162.429738 46.408496 46.408496 102.270576 83.36341 162.429738 109.145908 62.737412 25.782498 130.631324 39.533163 200.244068 39.533163s134.928406-13.750665 200.244068-39.533163c60.159162-25.782498 116.021241-62.737412 162.429738-109.145908 46.408496-46.408496 83.36341-102.270576 109.145908-162.429738 25.782498-62.737412 39.533163-130.631324 39.533163-200.244068S1007.453671 375.135346 981.671173 312.397934zM936.981509 693.978905c-23.204248 55.862079-55.862079 104.848826-99.692326 148.679072-42.111413 42.111413-92.816993 76.488078-148.679072 99.692326-114.302407 48.986746-246.652565 48.986746-362.673806 0-55.862079-23.204248-104.848826-58.440329-148.679072-99.692326-42.111413-42.111413-76.488078-92.816993-99.692326-148.679072-23.204248-58.440329-36.954914-118.599491-36.954914-181.336902 0-62.737412 12.031833-122.896574 36.954914-181.336902 23.204248-55.862079 55.862079-104.848826 99.692326-148.679072 42.111413-42.111413 92.816993-76.488078 148.679072-99.692326C383.517218 58.870038 444.535797 45.119371 507.273209 45.119371s122.896574 12.031833 181.336902 36.954914c55.862079 23.204248 104.848826 55.862079 148.679072 99.692326 42.111413 42.111413 76.488078 92.816993 99.692326 148.679072 23.204248 58.440329 36.954914 118.599491 36.954914 181.336902C974.79584 575.379414 962.764007 635.538576 936.981509 693.978905zM753.925773 300.366102 718.689693 268.567688 509.851459 479.984172 293.278475 263.411188 260.620644 296.069019 477.193628 512.642003 264.917727 724.058487 297.575558 756.716317 509.851459 545.299834 725.565025 761.0134 758.222856 728.355569 541.649873 512.642003Z" p-id="34969" fill="#ffffff"></path></svg>