<?xml version="1.0" standalone="no"?><!DOCTYPE svg PUBLIC "-//W3C//DTD SVG 1.1//EN" "http://www.w3.org/Graphics/SVG/1.1/DTD/svg11.dtd"><svg t="1526436819886" class="icon" style="" viewBox="0 0 1024 1024" version="1.1" xmlns="http://www.w3.org/2000/svg" p-id="1616" xmlns:xlink="http://www.w3.org/1999/xlink" width="200" height="200"><defs><style type="text/css"></style></defs><path d="M422.4 601.6c-6.4 12.8-12.8 25.6-6.4 44.8 0 0 12.8 134.4-249.6 249.6-32 12.8-44.8 51.2-32 83.2 12.8 25.6 32 38.4 57.6 38.4 6.4 0 19.2 0 25.6-6.4 211.2-96 288-211.2 313.6-294.4C608 748.8 716.8 825.6 736 960c6.4 32 38.4 57.6 70.4 51.2 32-6.4 57.6-38.4 51.2-70.4-25.6-192-179.2-294.4-275.2-339.2-12.8-32-19.2-57.6-25.6-83.2 83.2 44.8 192 64 300.8 6.4 32-12.8 44.8-51.2 25.6-83.2-12.8-32-51.2-44.8-83.2-25.6-153.6 76.8-275.2-70.4-281.6-70.4-12.8-19.2-32-25.6-51.2-25.6-89.6 12.8-262.4 89.6-262.4 275.2 0 32 25.6 64 64 64 32 0 64-25.6 64-64 0-64 38.4-102.4 83.2-121.6-12.8 32-6.4 76.8 6.4 128z m224-467.2c0 70.4-57.6 121.6-121.6 121.6s-121.6-57.6-121.6-121.6S460.8 12.8 524.8 12.8s121.6 57.6 121.6 121.6z" fill="#3dc1eb" p-id="1617"></path></svg>