<?xml version="1.0" encoding="utf-8"?>
<!-- Generator: Adobe Illustrator 16.0.0, SVG Export Plug-In . SVG Version: 6.00 Build 0)  -->
<!DOCTYPE svg PUBLIC "-//W3C//DTD SVG 1.1//EN" "http://www.w3.org/Graphics/SVG/1.1/DTD/svg11.dtd">
<svg version="1.1" id="图层_1" xmlns="http://www.w3.org/2000/svg" xmlns:xlink="http://www.w3.org/1999/xlink" x="0px" y="0px"
	 width="65.438px" height="64px" viewBox="0 0 65.438 64" enable-background="new 0 0 65.438 64" xml:space="preserve">
<path fill="#3DC1EB" d="M17.415,1.866h47.747v6.308H17.415V1.866z"/>
<path fill="#3DC1EB" d="M17.415,17.497h47.747v6.307H17.415V17.497z"/>
<path fill="#3DC1EB" d="M17.415,33.865h47.747v6.309H17.415V33.865z"/>
<path fill="#3DC1EB" d="M0.576,5.02c0,2.146,1.74,3.886,3.886,3.886c2.146,0,3.886-1.74,3.886-3.886c0-2.146-1.74-3.886-3.886-3.886
	C2.315,1.133,0.576,2.874,0.576,5.02z"/>
<path fill="#3DC1EB" d="M0.576,20.651c0,2.146,1.74,3.886,3.886,3.886c2.146,0,3.886-1.74,3.886-3.886l0,0
	c0-2.146-1.74-3.886-3.886-3.886C2.315,16.765,0.576,18.504,0.576,20.651z"/>
<path fill="#3DC1EB" d="M0.576,37.02c0,2.146,1.74,3.887,3.886,3.887c2.146,0,3.886-1.74,3.886-3.887s-1.74-3.887-3.886-3.887
	C2.315,33.133,0.576,34.873,0.576,37.02z"/>
<path fill="#3DC1EB" d="M24.348,53.043h18.087l-9.044,10.853L24.348,53.043z"/>
</svg>
