<?xml version="1.0" standalone="no"?><!DOCTYPE svg PUBLIC "-//W3C//DTD SVG 1.1//EN" "http://www.w3.org/Graphics/SVG/1.1/DTD/svg11.dtd"><svg t="1526436963168" class="icon" style="" viewBox="0 0 1024 1024" version="1.1" xmlns="http://www.w3.org/2000/svg" p-id="2502" xmlns:xlink="http://www.w3.org/1999/xlink" width="200" height="200"><defs><style type="text/css"></style></defs><path d="M 1020.86 386.08 c -8.36987 -27.9604 -32.7528 -49.1824 -72.471 -63.0748 c -0.524287 -0.190756 -1.03921 -0.349915 -1.56818 -0.49269 l -215.665 -58.5212 c -46.7634 -71.3171 -93.5888 -142.611 -140.404 -213.92 c -0.195437 -0.278528 -0.621421 -0.930376 -0.814518 -1.2089 c -22.5291 -31.5052 -50.6054 -48.8629 -79.0328 -48.8629 c -20.5502 0 -50.6792 8.86139 -77.8122 51.4387 L 312.979 246.546 C 259.19 262.846 205.41 279.219 151.591 295.585 l -78.6501 23.9241 c -36.6322 11.8995 -59.7746 31.1553 -68.787 57.2421 c -9.45356 27.4057 -2.80985 59.3638 20.3407 97.7035 c 0.560566 0.938568 1.17262 1.82915 1.83852 2.67176 c 47.0548 59.5382 94.0885 119.141 141.144 178.814 c -2.4143 85.9796 -4.86487 172.056 -7.36109 258.125 c -3.58692 41.2104 2.37568 70.251 18.2038 88.7789 c 11.9931 14.0434 28.672 21.1564 49.5744 21.1564 c 16.0142 0 35.0102 -4.18143 60.6406 -13.5039 l 207.675 -84.5261 c 78.3587 29.2267 156.806 58.3714 236.204 87.8263 c 15.4992 4.99126 29.8469 7.51791 42.6627 7.51791 c 29.2197 0 78.8304 -13.4407 82.7918 -103.489 c 0.036279 -0.923354 0.036279 -1.83735 -0.023406 -2.75953 c -4.34293 -76.7379 -8.73617 -153.308 -13.1236 -229.919 l -0.059685 -1.00879 l 152.96 -205.686 C 1021.22 444.499 1029.04 413.404 1020.86 386.08 L 1020.86 386.08 Z M 959.155 447.193 l -158.205 212.711 c -3.69927 4.97488 -5.54598 11.2148 -5.17851 17.5496 l 0.612059 10.8322 c 4.36399 76.1258 8.735 152.22 13.0545 228.472 c -2.6741 53.0607 -23.2629 53.0607 -34.3677 53.0607 c -8.05507 0 -17.6877 -1.78 -27.6644 -4.96669 c -81.2365 -30.1699 -162.427 -60.3258 -243.55 -90.5987 c -5.41725 -2.0047 -11.2979 -1.91693 -16.6567 0.24576 L 272.082 962.084 c -19.3401 7.01937 -33.799 10.4272 -44.1864 10.4272 c -10.0738 0 -12.7409 -3.13168 -13.7508 -4.29962 c -2.78762 -3.26626 -8.93629 -14.6882 -5.75195 -50.0882 c 0.044471 -0.548863 0.08192 -1.10475 0.095963 -1.66063 c 2.59452 -89.6379 5.15042 -179.259 7.65951 -268.777 c 0.172032 -6.31134 -1.83852 -12.4705 -5.65716 -17.3108 C 161.806 568.598 113.122 506.92 64.4304 445.292 c -13.3916 -22.5397 -18.5256 -40.0811 -14.8181 -50.788 c 4.3558 -12.6379 22.7761 -20.9738 37.05 -25.6082 l 78.2464 -23.7954 c 56.712 -17.2535 113.354 -34.4859 170.02 -51.6622 c 5.59747 -1.6934 10.4319 -5.48395 13.6069 -10.6578 L 473.375 79.996 c 8.27976 -12.996 21.5215 -28.5023 37.5275 -28.5023 c 12.9433 0 27.3297 10.151 40.1525 28.081 c 48.5352 73.9081 97.0704 147.801 145.539 221.726 c 3.31776 5.06265 8.23529 8.69404 13.862 10.2201 l 223.561 60.6675 c 23.0019 8.16156 37.4456 18.6298 40.7107 29.5111 C 977.836 412.103 972.135 428.483 959.155 447.193 L 959.155 447.193 Z M 959.155 447.193" fill="#3dc1eb" p-id="2503"></path></svg>