<?xml version="1.0" encoding="utf-8"?>
<!-- Generator: Adobe Illustrator 16.0.0, SVG Export Plug-In . SVG Version: 6.00 Build 0)  -->
<!DOCTYPE svg PUBLIC "-//W3C//DTD SVG 1.1//EN" "http://www.w3.org/Graphics/SVG/1.1/DTD/svg11.dtd">
<svg version="1.1" id="图层_1" xmlns="http://www.w3.org/2000/svg" xmlns:xlink="http://www.w3.org/1999/xlink" x="0px" y="0px"
	 width="40px" height="30px" viewBox="0 0 40 30" enable-background="new 0 0 40 30" xml:space="preserve">
<g>
	<path fill-rule="evenodd" clip-rule="evenodd" fill="#FFFFFF" d="M12.441,30.034c-0.298-0.133-0.601-0.258-0.894-0.402
		c-0.086-0.042-0.159-0.127-0.21-0.208c-1.688-2.632-3.374-5.263-5.054-7.897c-0.542-0.849-0.244-1.691,0.774-2.098
		c0.484-0.193,1.01-0.296,1.523-0.423c2.532-0.624,5.064-1.252,7.603-1.854c0.43-0.102,0.898-0.129,1.342-0.099
		c0.908,0.063,1.338,0.624,1.147,1.46c-0.075,0.324-0.224,0.636-0.357,0.946c-0.247,0.572-0.505,1.139-0.769,1.731
		c0.232,0.076,0.457,0.153,0.683,0.224c1.446,0.448,2.92,0.786,4.438,0.939c2.561,0.26,5.041,0.015,7.371-1.08
		c2.241-1.053,3.929-2.637,5.091-4.709c0.022-0.042,0.049-0.084,0.117-0.113c-0.176,0.634-0.335,1.273-0.533,1.901
		c-0.48,1.531-1.146,2.987-2.096,4.322c-1.784,2.516-4.251,4.122-7.396,4.825c-1.607,0.359-3.24,0.461-4.882,0.345
		c-2.193-0.154-3.081-0.331-5.372-0.969c-0.128,0.289-0.258,0.579-0.386,0.871c-0.174,0.396-0.354,0.788-0.517,1.188
		c-0.219,0.536-0.567,0.943-1.188,1.099C12.731,30.034,12.586,30.034,12.441,30.034z"/>
	<path fill-rule="evenodd" clip-rule="evenodd" fill="#FFFFFF" d="M28.302,0c0.376,0.074,0.73,0.197,1.03,0.426
		c0.088,0.068,0.174,0.151,0.229,0.244c1.6,2.643,3.195,5.287,4.79,7.932c0.378,0.627,0.373,1.192-0.017,1.627
		c-0.309,0.346-0.717,0.551-1.18,0.654c-1.497,0.334-2.995,0.661-4.493,0.99c-1.435,0.316-2.868,0.635-4.304,0.944
		c-0.45,0.097-0.908,0.126-1.367,0.061c-0.846-0.121-1.241-0.632-1.086-1.419c0.037-0.184,0.099-0.367,0.18-0.539
		c0.314-0.678,0.642-1.351,0.963-2.025c0.024-0.049,0.042-0.1,0.075-0.181c-0.674-0.211-1.333-0.431-2-0.622
		c-1.517-0.435-3.064-0.71-4.652-0.766c-2.709-0.095-5.23,0.463-7.479,1.922c-1.521,0.986-2.729,2.24-3.604,3.767
		c-0.012,0.021-0.027,0.041-0.064,0.058c0.02-0.082,0.039-0.164,0.06-0.247c0.02-0.082,0.04-0.166,0.062-0.249
		c0.528-1.901,1.266-3.722,2.433-5.372c1.923-2.72,4.598-4.396,8.035-5.005c2.241-0.396,4.475-0.302,6.702,0.096
		c0.547,0.098,1.09,0.218,1.626,0.352c0.537,0.135,1.065,0.3,1.619,0.458c0.062-0.129,0.132-0.271,0.198-0.415
		c0.248-0.525,0.507-1.046,0.737-1.578c0.242-0.559,0.608-0.976,1.27-1.111C28.146,0,28.225,0,28.302,0z"/>
</g>
</svg>
