<?xml version="1.0" standalone="no"?><!DOCTYPE svg PUBLIC "-//W3C//DTD SVG 1.1//EN" "http://www.w3.org/Graphics/SVG/1.1/DTD/svg11.dtd"><svg t="1527646327407" class="icon" style="" viewBox="0 0 1024 1024" version="1.1" xmlns="http://www.w3.org/2000/svg" p-id="1584" xmlns:xlink="http://www.w3.org/1999/xlink" width="200" height="200"><defs><style type="text/css"></style></defs><path d="M844.8 389.6064C844.8 188.5696 690.0736 25.6 499.2 25.6S153.6 188.5696 153.6 389.6064a375.3728 375.3728 0 0 0 66.0224 213.888l0.5376 0.6656c1.3312 2.0736 279.04 394.24 279.04 394.24l273.4848-386.2016A374.8352 374.8352 0 0 0 844.8 389.6064zM499.2 218.5728a166.8608 166.8608 0 0 1 162.3808 171.0336A166.8608 166.8608 0 0 1 499.2 560.64a166.8608 166.8608 0 0 1-162.3808-171.0336A166.8608 166.8608 0 0 1 499.2 218.5728z" p-id="1585" fill="#3cbfef"></path></svg>