<?xml version="1.0" encoding="utf-8"?>
<!-- Generator: Adobe Illustrator 16.0.0, SVG Export Plug-In . SVG Version: 6.00 Build 0)  -->
<!DOCTYPE svg PUBLIC "-//W3C//DTD SVG 1.1//EN" "http://www.w3.org/Graphics/SVG/1.1/DTD/svg11.dtd">
<svg version="1.1" id="图层_1" xmlns="http://www.w3.org/2000/svg" xmlns:xlink="http://www.w3.org/1999/xlink" x="0px" y="0px"
	 width="200px" height="200px" viewBox="0 0 200 200" enable-background="new 0 0 200 200" xml:space="preserve">
<path fill="#4C4C4C" d="M82.5,117.5c-1.25,2.5-2.5,5-1.25,8.75c0,0,2.5,26.25-48.75,48.75c-6.25,2.5-8.75,10-6.25,16.25
	c2.5,5,6.25,7.5,11.25,7.5c1.25,0,3.75,0,5-1.25c41.25-18.75,56.25-41.25,61.25-57.5c15,6.25,36.25,21.25,40,47.5
	c1.25,6.25,7.5,11.25,13.75,10s11.25-7.5,10-13.75c-5-37.5-35-57.5-53.75-66.25c-2.5-6.25-3.75-11.25-5-16.25
	c16.25,8.75,37.5,12.5,58.75,1.25c6.25-2.5,8.75-10,5-16.25c-2.5-6.25-10-8.75-16.25-5c-30,15-53.75-13.75-55-13.75
	c-2.5-3.75-6.25-5-10-5C73.75,65,40,80,40,116.25c0,6.25,5,12.5,12.5,12.5c6.25,0,12.5-5,12.5-12.5c0-12.5,7.5-20,16.25-23.75
	C78.75,98.75,80,107.5,82.5,117.5z M126.25,26.25C126.25,40,115,50,102.5,50S78.75,38.75,78.75,26.25S90,2.5,102.5,2.5
	S126.25,13.75,126.25,26.25z"/>
</svg>
