<?xml version="1.0" standalone="no"?><!DOCTYPE svg PUBLIC "-//W3C//DTD SVG 1.1//EN" "http://www.w3.org/Graphics/SVG/1.1/DTD/svg11.dtd"><svg t="1533796581716" class="icon" style="" viewBox="0 0 1024 1024" version="1.1" xmlns="http://www.w3.org/2000/svg" p-id="14529" xmlns:xlink="http://www.w3.org/1999/xlink" width="500" height="500"><defs><style type="text/css"></style></defs><path d="M287.076786 122.789581C72.579527 246.630097-0.914324 520.905834 122.924145 735.400023c123.841539 214.499305 398.116253 287.987017 612.612489 164.147524 214.502375-123.842563 287.995203-398.10909 164.150594-612.612489C775.849782 72.440869 501.577115-1.052982 287.076786 122.789581z m425.716868 741.199099C517.550924 976.711997 267.889795 909.823588 155.161361 714.572672 42.43702 519.328919 109.332593 269.666766 304.579415 156.941402 499.827261 44.213991 749.488391 111.112634 862.212732 306.35741c112.727411 195.249893 45.828768 444.904882-149.419078 557.63127z" fill="#1aaf13" p-id="14530"></path><path d="M287.076786 122.789581C72.579527 246.630097-0.914324 520.905834 122.924145 735.400023c123.841539 214.499305 398.116253 287.987017 612.612489 164.147524 214.502375-123.842563 287.995203-398.10909 164.150594-612.612489C775.849782 72.440869 501.577115-1.052982 287.076786 122.789581z m425.716868 741.199099C517.550924 976.711997 267.889795 909.823588 155.161361 714.572672 42.43702 519.328919 109.332593 269.666766 304.579415 156.941402 499.827261 44.213991 749.488391 111.112634 862.212732 306.35741c112.727411 195.249893 45.828768 444.904882-149.419078 557.63127z" fill="#1aaf13" p-id="14531"></path><path d="M327.323419 192.499246c-176.002526 101.615329-236.297774 326.653665-134.685515 502.651074 101.616352 176.005596 326.651618 236.303914 502.653121 134.688585 176.002526-101.615329 236.302891-326.651618 134.685515-502.656191-101.614306-176.001503-326.651618-236.298797-502.653121-134.683468z m360.325555 624.103194c-168.682817 97.389074-384.383484 39.596833-481.776651-129.093147-97.390098-168.68384-39.593763-384.381437 129.092123-481.773582 168.681794-97.388051 384.384507-39.59581 481.774605 129.089054 97.394191 168.68998 39.591717 384.389624-129.090077 481.777675z" fill="#1aaf13" p-id="14532"></path><path d="M327.323419 192.499246c-176.002526 101.615329-236.297774 326.653665-134.685515 502.651074 101.616352 176.005596 326.651618 236.303914 502.653121 134.688585 176.002526-101.615329 236.302891-326.651618 134.685515-502.656191-101.614306-176.001503-326.651618-236.298797-502.653121-134.683468z m360.325555 624.103194c-168.682817 97.389074-384.383484 39.596833-481.776651-129.093147-97.390098-168.68384-39.593763-384.381437 129.092123-481.773582 168.681794-97.388051 384.384507-39.59581 481.774605 129.089054 97.394191 168.68998 39.591717 384.389624-129.090077 481.777675z" fill="#1aaf13" p-id="14533"></path><path d="M627.579877 731.721237l23.535019 14.235213 25.958208-8.990769L670.849356 763.727185l16.598027 21.941731-27.379581 2.322906-15.692401 22.555715-10.698666-25.339108-26.306132-8.000208 20.773116-17.983583-0.563842-27.503401zM338.190931 230.484372l23.531949 14.230096 25.957185-8.991792-6.216585 26.77276 16.594956 21.937638-27.380604 2.319836-15.6924 22.554691-10.700713-25.341154-26.306132-8.001231 20.773115-17.98256-0.560771-27.498284zM725.109144 640.006396l23.529903 14.230096 25.959231-8.987699-6.225795 26.767644 16.609283 21.939685-27.387767 2.317788-15.690354 22.559809-10.689456-25.343202-26.297946-8.007371 20.762883-17.980513-0.569982-27.496237zM462.550263 185.240935l23.530926 14.231119 25.956162-8.991792-6.220679 26.774807 16.60519 21.932522-27.385721 2.320858-15.6924 22.556739-10.691503-25.346271-26.297946-8.006348 20.765952-17.975397-0.569981-27.496237zM778.327206 525.19451l23.530926 14.231119 25.955139-8.993838-6.218632 26.768667 16.604166 21.940708-27.38572 2.320859-15.690354 22.549575-10.69969-25.336038-26.293853-8.007371 20.770046-17.975397-0.572028-27.498284zM584.757582 189.923584l23.530926 14.230096 25.956162-8.991792-6.217608 26.770714 16.602119 21.937638-27.38572 2.320858-15.687284 22.555716-10.70276-25.342178-26.291806-8.003278 20.766976-17.981537-0.571005-27.496237zM509.340939 764.579599l23.531949 14.229073 25.959232-8.988722-6.219655 26.765597 16.59905 21.945825-27.383674 2.314718-15.689331 22.558785-10.695596-25.339108-26.299993-8.005324 20.765953-17.98256-0.567935-27.498284zM246.783081 309.814138l23.532973 14.230096 25.957185-8.991792-6.216585 26.771737 16.594956 21.937638-27.38265 2.317789-15.690354 22.555715-10.697643-25.343201-26.299993-8.004301 20.769023-17.977443-0.566912-27.496238zM398.502551 748.913804l23.536043 14.22805 25.951045-8.991792-6.226818 26.773784 16.606213 21.937638-27.381627 2.318812-15.698541 22.553668-10.689456-25.340131-26.304086-8.001231 20.773116-17.978467-0.565889-27.500331zM204.933951 413.642878l23.537066 14.230096 25.952068-8.991791-6.224771 26.779923 16.606213 21.937638-27.385721 2.311649-15.694447 22.560832-10.695597-25.350365-26.301015-7.995091 20.770045-17.983583-0.563841-27.499308zM384.175241 670.044526l39.148625-21.771863 51.155077-31.195489c0.836041 4.087085 1.749854 9.027607 2.743484 14.824637l-51.383274 30.081109-37.614689 20.47124c-17.775852 9.984399-33.642215 11.044544-47.598065 3.178389-1.980097 6.40385-4.193509 16.960277-6.641257 31.667234l-13.852496-9.242502c4.064572-14.185071 7.039323-24.38334 8.922207-30.594809l-30.264281-52.419883-18.538215 10.70276-6.655584-11.527545 30.532387-17.628496 38.448684 66.594721c12.353352 6.64842 26.218128 5.599532 41.597397-3.139503zM261.448082 561.444109c9.014304 3.381004 21.949918 8.997931 38.806841 16.850783l-6.563486 14.174838c-16.027022-8.332782-28.809139-14.522762-38.347376-18.569938l6.104021-12.455683z m116.066459 101.021811l-11.059893 6.385431-50.635238-87.703481 37.543058-21.675672a1219.934484 1219.934484 0 0 0-31.070646 1.945305l2.069125-11.164271a2340.26853 2340.26853 0 0 1 29.497825-1.972934l19.397792-30.619368-73.059969 42.181705-5.756098-9.970073 93.623308-54.05308 6.02625 10.4367-26.333762 41.270963 6.870478-0.331552 33.414017-19.292391 40.652886 70.412676c6.835685 11.838629 4.800329 20.907169-6.104022 27.202549-5.40101 3.118014-11.357675 6.349615-17.873066 9.695826a117.344568 117.344568 0 0 0-9.261944-10.645455c6.962575-3.049452 12.780071-5.924943 17.45351-8.623401 5.607718-3.237741 6.854105-7.556093 3.735068-12.957103l-4.40738-7.632841-29.753651 17.178241 14.030551 24.301476-11.060916 6.38543-14.030552-24.301475-29.287023 16.908088 15.380292 26.638707z m-35.885302-62.155618l29.287024-16.908089-8.993838-15.57779-29.287024 16.908088 8.993838 15.577791z m14.749936 25.547862l29.287023-16.908088-8.993838-15.57779-29.287023 16.908088 8.993838 15.57779z m46.355771-81.598436l-29.753651 17.178241 8.993838 15.57779 29.753651-17.178241-8.993838-15.57779z m-6.008854 58.303894l29.753651-17.178241-8.993838-15.577791-29.753651 17.178242 8.993838 15.57779zM686.290023 493.957065l42.353621-23.415292 46.457078-28.899191a443.155029 443.155029 0 0 0 2.12029 15.183818l-45.283346 26.975374-40.419571 22.089088c-17.983583 10.105149-34.537608 11.769045-49.66412 4.995781-1.590218 3.965312-3.835352 13.983479-6.738471 30.060643l-14.097067-9.307993c3.791349-12.019755 6.89606-21.393239 9.31311-28.120455l-30.893614-53.510727-18.070564 10.432606-6.475482-11.215436 30.06576-17.358343 38.988989 67.530023c12.967336 4.839215 27.081799 3.02387 42.343387-5.439896zM558.996872 387.16176c11.410887 3.936659 24.465205 9.277294 39.160905 16.023952-2.714831 4.891404-4.963035 9.511631-6.742565 13.862729-13.58132-6.973832-26.214035-12.905938-37.897121-17.792225l5.478781-12.094456z m46.883797 11.772115l66.829058-38.58376-17.178241-29.753651 12.618388-7.284917 17.178242 29.753651 26.794249-15.46932 6.565533 11.372002-26.79425 15.46932 37.325094 64.648392c7.735172 13.397125 5.163603 23.813359-7.714706 31.247678a2388.412017 2388.412017 0 0 1-23.768333 13.514805c-2.858094-3.750417-6.334265-7.973602-10.431583-12.670577 8.78713-3.965312 16.765849-8.017604 23.931039-12.154831 6.438643-3.716648 7.509021-9.18008 3.207041-16.390296l-35.165917-60.909231-66.829058 38.58376-6.566556-11.373025z m23.499203 26.312272l5.455246-12.495592c19.654642 7.900947 34.891671 14.265912 45.712111 19.095917l-6.161327 14.150278c-16.011672-8.064676-31.013341-14.981203-45.00603-20.750603z" fill="#1aaf13" p-id="14534"></path></svg>