<?xml version="1.0" standalone="no"?><!DOCTYPE svg PUBLIC "-//W3C//DTD SVG 1.1//EN" "http://www.w3.org/Graphics/SVG/1.1/DTD/svg11.dtd"><svg t="1533796695350" class="icon" style="" viewBox="0 0 1024 1024" version="1.1" xmlns="http://www.w3.org/2000/svg" p-id="18090" xmlns:xlink="http://www.w3.org/1999/xlink" width="500" height="500"><defs><style type="text/css"></style></defs><path d="M945.4 324.2C844.4 84.5 567.9-27.9 328.3 73.1c-76.1 32-142.4 83.5-192.2 149.3C87.5 286.6 56 362.3 44.7 441.9l-2.5 21.3c-7.2 75.1 3.6 152.9 35 227.2 101 239.7 377.5 352.1 617.1 251.1 76.1-32 142.4-83.5 192.2-149.3 98.4-130 126.9-307.2 58.9-468zM685.3 917.5c-227 95.2-488.5-11.2-584.1-238.5C5.7 451.7 112.5 190.4 339.7 94.7c164.9-69.5 355.5-33.3 483.8 91.6 42.8 41.9 76.9 92 100.3 146.9 95.2 227-11.3 488.6-238.5 584.3z" fill="#CA261E" p-id="18091"></path><path d="M908.8 339.7c-92.3-220-345.5-323.3-565.5-230.3-70 29.1-130.7 76.6-176.2 136.7C77 365.1 51 527.5 113 675c92.6 219.7 346 322.9 565.5 230.3 69.9-29.2 130.7-76.6 176.2-136.7 90.1-119 116.2-281.4 54.1-428.9zM351.3 897.4C135 809.3 31.7 562.5 119.8 346.1c64.8-159 219.9-263.2 391.5-262.7 55.2-0.2 109 10.5 159.6 31.1 216 88.6 319.6 335 231.5 551.3C813.8 882 567.5 985.6 351.3 897.4z" fill="#CA261E" p-id="18092"></path><path d="M428.5 825.2l-24.8 3.1c0.3 0.3-19.1-13.9-19.1-13.9l-4.5 23.2-20.3 13.5 21.8 11.1 7.2 22.5 18.2-16.3 24.6 0.3-11-21.3 7.9-22.2zM593.2 817.6l-18.6 16.7-24.3-0.7 9.5 21.9-9 22.8 24.1-3 18.9 14.9 5.5-23.6 20.6-14-20.8-11.6zM584.3 193.9l23.5-5.4 21 13 3.2-23.6 19.5-14.9-22.9-9.6-8.8-22-16.7 17.5-24.7 1.4 12.2 20.5zM278 320c-36.7 46.1-59.2 101.7-64.6 160.3l7.9-3.4c3.3-27.1 9.8-53.6 20-78.9 60.1-149 229.4-221.1 378.3-160.9 24.9 10 48.4 23.6 70.1 40.1l7.9-3.4C569 170.5 381.3 191.4 278 320zM224.7 348.2L203 337.7l-7.9-23.1-16.3 18.4-23.6 1.6 11.4 21.7-6.4 24.1 23.5-5.3c-0.7 0 18.9 13.8 18.9 13.8l3-25 19.1-15.7zM293.4 234.5l15.2 19.9 10.4-22.9 22.5-9.5-17.4-16.2-0.7-24.8-21.2 12.3-23.1-6.2 4.3 23.9-13.5 21zM451.7 187.9l18.6-16.7 24.3 0.6-9.4-21.8 9.2-23.2-24.4 3.4-18.9-14.9-5.5 23.7-20.7 13.9 20.8 11.6zM742.8 761.4l-15.4-18.9-10 22.5-22.3 9.2 17.4 16.1 0.7 24.9 20.8-12.7 23.1 6.3-4.3-24 13.5-21zM867.4 624.7l-23.2 4.9-19.5-13.2L822 641l-18.7 15.4 21.2 10.2 8.3 23.4 16.3-18.3 23.4-1.2-11.5-21.7zM743.7 692.7c36.7-46.1 59.2-101.7 64.6-160.3l-7.9 3.4c-3.3 27.1-9.7 53.6-20 78.9-60.1 149-229.5 221.1-378.4 160.9-24.9-10-48.4-23.6-70.1-40.1l-7.9 3.4c128.6 103.4 316.4 82.4 419.7-46.2z" fill="#CA261E" p-id="18093"></path><path d="M672.8 283.9c-122.6-89.3-294.4-62.3-383.7 60.4C262.5 380.9 245.2 424 239 469l8.6-3.5C267 335.9 378.6 240.2 510 239.1c55.1-0.2 108.9 16.9 154.3 48.3l8.5-3.5zM348.7 728.2c122.7 89.3 294.5 62.3 383.7-60.4 26.6-36.6 43.8-79.7 50.1-124.6l-8.6 3.5c-19.8 129.9-130.9 226-262.4 226.4-55.1 0.2-108.9-16.9-154.3-48.3l-8.5 3.4z" fill="#CA261E" p-id="18094"></path><path d="M371.5 468.9l9.6 22.5-91.9 39.3 19 134.5c0.9 6.5 1.1 12.4 0.5 17.5-0.6 5.1-2.2 8.9-4.8 11.2-2.6 2.3-5.7 4.2-9.2 5.7l-18.5 7.9-9.4-22 9.8-4.2c2.6-1.1 4.3-2 5.1-2.7 0.8-0.7 1.4-1.7 1.7-2.9 0.3-1.3 0.2-4.1-0.5-8.4l-19-125.9-49.6 21.2-9.6-22.5 166.8-71.2zM296.8 545l25.2-10.7 55.5 130-25.1 10.7-55.6-130z m40-17l24.7-10.5 53.8 91.7 2.8 4.8c1.6 2.3 3 3.6 4.4 3.9 1.4 0.3 3.5-0.2 6.4-1.4l4.8-2 9.4 22-8.4 3.6c-8.7 3.7-15 5.5-19 5.5-4-0.1-7.5-1.6-10.7-4.5-3.1-2.9-7.5-9.3-13.3-19.2L336.8 528zM423.7 445l12 28.1-27 11.5-12-28.1 27-11.5z m195.6 93.1l8.1 19-115.3 49.3c-5.9 2.5-10.4 3.3-13.5 2.3l-10.4-2.4c-0.7 2.8-1.7 5.6-3 8.5-1.3 2.9-4.5 5.4-9.6 7.6l-11.2 4.8-8.4-19.8 4.4-1.9c1.4-0.6 2.2-1.4 2.4-2.4 0.2-1-0.7-3.8-2.6-8.4l-34.8-81.4-7.5 3.2-9.9-23.1 31.1-13.3 40.1 93.8c1.2 2.9 2.8 5.4 4.7 7.7 1.9 2.3 4.6 4.3 8.1 6 3.5 1.7 8.9 1 16.1-2.1l111.2-47.4z m-56.7-133.9l-7.7 26.3 16-6.8 33.4 78.1c2.4 5.7 3.7 10.2 3.9 13.7s-0.4 7.3-1.8 11.5-4.8 7.4-10.3 9.7l-20.8 8.9-8.1-19 12.3-5.2c1.9-0.8 3.1-1.7 3.6-2.7 0.5-1 0.4-2.4-0.3-4.2l-1.8-4.3-26.7 11.4 12 28-23 9.8-12-28-28.1 12 12 28-22.4 9.6-44.7-104.7 17.7-7.6-11.6-4.6 29-12.4 15.2 2.9 27.7-11.7L532 422l-90.6 38.7-8-18.7 122.9-52.5 6.3 14.7zM483 496.1l28.1-12-4.6-10.7-28.1 12 4.6 10.7z m12.3 28.8l28.1-12-4.4-10.3-28.1 12 4.4 10.3z m38.8-50.6l26.7-11.4-4.6-10.7-26.7 11.4 4.6 10.7z m12.3 28.8l26.7-11.4-4.4-10.3-26.7 11.4 4.4 10.3zM585 376.3l31.5-13.4 10.6 24.9-31.5 13.4-10.6-24.9z m222 79.1l9.1 21.2-108.2 46.2c-10.2 4.3-17 6.1-20.6 5.2l-8.1-1.4c-2.3 5.1-4.5 8.5-6.6 10.2-2.1 1.6-5.3 3.3-9.3 5.1l-12.4 5.3-9.1-21.2 7-3c3.7-1.6 5.7-3.3 5.9-5.1 0.2-1.8-0.2-3.9-1.2-6.4L625.6 446l-15.2 6.5-9.4-22 40.5-17.3 37.6 88.1c4.5 1.6 8.8 2.1 12.8 1.6 4-0.6 8.8-2 14.3-4.4L807 455.4z m-170.9-91.9l78.1-33.4-3.7-8.7 25.3-10.8 3.7 8.7 8-3.4 9.4 22-8 3.4 35.3 82.7c1.7 4.1 3.1 7.5 4 10.3 0.9 2.8 1.1 5.8 0.5 9.2-0.5 3.4-5.8 7.2-15.6 11.4L746.8 466l-8.9-20.9 17.4-7.4c1.5-0.6 2.4-1.5 2.7-2.5 0.3-1-0.3-3.3-1.8-6.9L723.6 352l-78.1 33.4-9.4-21.9z m40.2 18.6l30.7 30.6c3.8 3.9 6.5 5.9 8.2 6.2 1.7 0.3 4-0.2 7-1.5l13.2-5.6 8.8 20.6-27.2 11.4c-5.3 2.3-9.1 3.3-11.3 3-2.2-0.3-4.1-0.8-5.4-1.7-1.4-0.9-3.2-2.5-5.4-4.9l-45.7-46.5 27.1-11.6z" fill="#CA261E" p-id="18095"></path></svg>