<?xml version="1.0" encoding="UTF-8"?>
<svg width="16px" height="16px" viewBox="0 0 16 16" version="1.1" xmlns="http://www.w3.org/2000/svg" xmlns:xlink="http://www.w3.org/1999/xlink">
    <!-- Generator: Sketch 42 (36781) - http://www.bohemiancoding.com/sketch -->
    <title>icon_dianhua</title>
    <desc>Created with Sketch.</desc>
    <defs></defs>
    <g id="J_10_客户查询" stroke="none" stroke-width="1" fill="none" fill-rule="evenodd">
        <g id="iPad-Pro-Portrait" transform="translate(-478.000000, -21.000000)">
            <g id="icon_dianhua" transform="translate(478.000000, 21.000000)">
                <g id="Group-6">
                    <rect id="Rectangle-11-Copy-2" fill="#00AAFF" x="0" y="0" width="16" height="16" rx="8"></rect>
                    <path d="M4.23915551,4.89356197 L4.98139415,4.15338653 C5.18616743,3.94887116 5.51860162,3.94887116 5.7236328,4.15338653 L6.83699076,5.63373741 C7.00694742,5.88415913 7.04176404,6.16939747 6.83699076,6.37391284 L6.38256947,6.82704464 C6.71938798,7.27837112 7.12377651,7.77044594 7.57897151,8.22435144 C8.0937416,8.73757413 8.66628149,9.20411677 9.18105158,9.58735743 L9.62025673,9.14969969 C9.82503001,8.94518431 10.111042,8.97974303 10.3624954,9.14969969 L11.8469727,10.2599628 C12.095847,10.4314669 12.0520038,10.7956229 11.8469727,11.0001383 L11.104734,11.7400558 C10.6946717,12.1490866 10.1615906,12.0180729 9.62025673,11.7400558 C9.62025673,11.7400558 7.98181263,10.8229604 6.57908991,9.42410619 C5.25966917,8.10829606 4.23915551,6.37391284 4.23915551,6.37391284 C4.02638731,5.79028322 3.82909316,5.30233481 4.23915551,4.89356197" id="Combined-Shape" fill="#FFFFFF"></path>
                </g>
            </g>
        </g>
    </g>
</svg>