<?xml version="1.0" encoding="UTF-8"?>
<svg width="24px" height="24px" viewBox="0 0 24 24" version="1.1" xmlns="http://www.w3.org/2000/svg" xmlns:xlink="http://www.w3.org/1999/xlink">
    <!-- Generator: Sketch 42 (36781) - http://www.bohemiancoding.com/sketch -->
    <title>icon_qunzu</title>
    <desc>Created with Sketch.</desc>
    <defs></defs>
    <g id="J_10_客户查询" stroke="none" stroke-width="1" fill="none" fill-rule="evenodd">
        <g id="iPad-Pro-Portrait" transform="translate(-571.000000, -16.000000)">
            <g id="icon_qunzu" transform="translate(571.000000, 16.000000)">
                <ellipse id="Oval-2" fill="#FF5C5C" cx="12" cy="12" rx="12" ry="12"></ellipse>
                <path d="M12.3,8.7 L11.7535492,8.15354919 C11.556879,7.95687904 11.1768857,7.8 10.9016602,7.8 L6.99044323,7.8 C6.44190466,7.8 6,8.24618252 6,8.79657655 L6,15.2034235 C6,15.7483795 6.44882258,16.2 7.00247329,16.2 L16.9975267,16.2 C17.544239,16.2 18,15.7517792 18,15.1988708 L18,10.0011292 C18,9.45039225 17.5565635,9 17.0095568,9 L12.9,9 L7.8,9 L7.8,8.7 L12.3,8.7 Z" id="Combined-Shape" fill="#FFFFFF"></path>
            </g>
        </g>
    </g>
</svg>