<?xml version="1.0" encoding="UTF-8"?>
<svg width="16px" height="16px" viewBox="0 0 16 16" version="1.1" xmlns="http://www.w3.org/2000/svg" xmlns:xlink="http://www.w3.org/1999/xlink">
    <!-- Generator: Sketch 42 (36781) - http://www.bohemiancoding.com/sketch -->
    <title>icon_duanxin</title>
    <desc>Created with Sketch.</desc>
    <defs></defs>
    <g id="J_10_客户查询" stroke="none" stroke-width="1" fill="none" fill-rule="evenodd">
        <g id="iPad-Pro-Portrait" transform="translate(-504.000000, -21.000000)">
            <g id="icon_duanxin" transform="translate(504.000000, 21.000000)">
                <g id="Group-6">
                    <rect id="Rectangle-11-Copy-2" fill="#00AAFF" x="0" y="0" width="16" height="16" rx="8"></rect>
                    <path d="M8,11.3333333 C5.23857625,11.3333333 3,9.46785312 3,7.16666667 C3,4.86548021 5.23857625,3 8,3 C10.7614237,3 13,4.86548021 13,7.16666667 C13,8.76070619 11.9258463,10.1456773 10.3478218,10.8463442 C10.1269628,10.944409 8,13 8,13 L8,11.3333333 Z M5.91666667,7.79166667 C6.26184464,7.79166667 6.54166667,7.51184464 6.54166667,7.16666667 C6.54166667,6.8214887 6.26184464,6.54166667 5.91666667,6.54166667 C5.5714887,6.54166667 5.29166667,6.8214887 5.29166667,7.16666667 C5.29166667,7.51184464 5.5714887,7.79166667 5.91666667,7.79166667 Z M10.0833333,7.79166667 C10.4285113,7.79166667 10.7083333,7.51184464 10.7083333,7.16666667 C10.7083333,6.8214887 10.4285113,6.54166667 10.0833333,6.54166667 C9.73815536,6.54166667 9.45833333,6.8214887 9.45833333,7.16666667 C9.45833333,7.51184464 9.73815536,7.79166667 10.0833333,7.79166667 Z M8,7.79166667 C8.34517797,7.79166667 8.625,7.51184464 8.625,7.16666667 C8.625,6.8214887 8.34517797,6.54166667 8,6.54166667 C7.65482203,6.54166667 7.375,6.8214887 7.375,7.16666667 C7.375,7.51184464 7.65482203,7.79166667 8,7.79166667 Z" id="Combined-Shape" fill="#FFFFFF"></path>
                </g>
            </g>
        </g>
    </g>
</svg>