<?xml version="1.0" encoding="UTF-8"?>
<svg width="16px" height="16px" viewBox="0 0 16 16" version="1.1" xmlns="http://www.w3.org/2000/svg" xmlns:xlink="http://www.w3.org/1999/xlink">
    <!-- Generator: Sketch 42 (36781) - http://www.bohemiancoding.com/sketch -->
    <title>icon_youjian</title>
    <desc>Created with Sketch.</desc>
    <defs></defs>
    <g id="J_10_客户查询" stroke="none" stroke-width="1" fill="none" fill-rule="evenodd">
        <g id="iPad-Pro-Portrait" transform="translate(-530.000000, -21.000000)">
            <g id="icon_youjian" transform="translate(530.000000, 21.000000)">
                <g id="Group-6">
                    <rect id="Rectangle-11-Copy-2" fill="#00AAFF" x="0" y="0" width="16" height="16" rx="8"></rect>
                    <g id="Group-5-Copy" transform="translate(3.000000, 4.000000)" fill="#FFFFFF">
                        <path d="M0,1.00342274 C0,0.725390037 0.227652788,0.5 0.509649515,0.5 L9.49035048,0.5 C9.77182214,0.5 10,0.732902527 10,1.00342274 L10,6.99657726 C10,7.27460996 9.77234721,7.5 9.49035048,7.5 L0.509649515,7.5 C0.22817786,7.5 0,7.26709747 0,6.99657726 L0,1.00342274 Z M4.99712018,3.59183334 L1.61243483,1.59994507 C1.44333711,1.50043102 1.22393788,1.55409811 1.12239293,1.71981387 C1.02084798,1.88552963 1.07561032,2.10054087 1.24470803,2.20005493 L4.81310058,4.30005493 C4.92617601,4.36659985 5.06747134,4.36665178 5.18059767,4.30019 L8.75506226,2.20019 C8.92423609,2.10080027 8.97916298,1.88582934 8.87774489,1.72003899 C8.77632681,1.55424863 8.55696872,1.50042028 8.38779488,1.59981 L4.99712018,3.59183334 Z" id="Combined-Shape"></path>
                    </g>
                </g>
            </g>
        </g>
    </g>
</svg>