<?xml version="1.0" standalone="no"?><!DOCTYPE svg PUBLIC "-//W3C//DTD SVG 1.1//EN" "http://www.w3.org/Graphics/SVG/1.1/DTD/svg11.dtd"><svg t="1526455338294" class="icon" style="" viewBox="0 0 1024 1024" version="1.1" xmlns="http://www.w3.org/2000/svg" p-id="7353" xmlns:xlink="http://www.w3.org/1999/xlink" width="200" height="200"><defs><style type="text/css"></style></defs><path d="M512.571462 1.203078C230.600012 1.203078 1.203078 230.600012 1.203078 512.631616c0 281.941373 229.396934 511.368384 511.368384 511.368384 282.001527 0 511.428538-229.457087 511.428538-511.368384C1024.030077 230.600012 794.603066 1.203078 512.571462 1.203078zM512.571462 943.183223c-237.42748 0-430.551607-193.154203-430.551607-430.551607 0-237.42748 193.124126-430.641838 430.551607-430.641838 237.397404 0 430.611761 193.214357 430.611761 430.641838C943.183223 749.998943 749.998943 943.183223 512.571462 943.183223zM717.0346 515.639312l-209.786759 0L507.247841 229.457087c0-22.287023-18.136404-40.39335-40.423427-40.39335-22.3171 0-40.423427 18.106327-40.423427 40.39335l0 366.999001 290.603536 0c22.377254 0 40.363273-18.196558 40.363273-40.39335C757.397873 533.745638 739.321624 515.639312 717.0346 515.639312z" p-id="7354" fill="#3dc1eb"></path></svg>