<?xml version="1.0" standalone="no"?><!DOCTYPE svg PUBLIC "-//W3C//DTD SVG 1.1//EN" "http://www.w3.org/Graphics/SVG/1.1/DTD/svg11.dtd"><svg t="1526455362192" class="icon" style="" viewBox="0 0 1024 1024" version="1.1" xmlns="http://www.w3.org/2000/svg" p-id="8151" xmlns:xlink="http://www.w3.org/1999/xlink" width="200" height="200"><defs><style type="text/css"></style></defs><path d="M805.7 1023.9H218.3c-96.6 0-175.2-78.6-175.2-175.2V206.4c0-96.6 78.6-175.2 175.2-175.2h55c19 0 34.3 15.4 34.3 34.3S292.3 100 273.3 100h-55c-58.7 0-106.5 47.8-106.5 106.5v642.3c0 58.7 47.8 106.5 106.5 106.5h587.4c58.7 0 106.5-47.8 106.5-106.5V206.4c0-58.7-47.8-106.5-106.5-106.5h-46.9c-19 0-34.3-15.4-34.3-34.3s15.4-34.3 34.3-34.3h46.9c96.6 0 175.2 78.6 175.2 175.2v642.3c-0.1 96.6-78.6 175.1-175.2 175.1z" fill="#3dc1eb" p-id="8152"></path><path d="M231.2 305.1m-50.7 0a50.7 50.7 0 1 0 101.4 0 50.7 50.7 0 1 0-101.4 0Z" fill="#3dc1eb" p-id="8153"></path><path d="M819.4 329H352.2c-15.2 0-27.5-11.8-27.5-27s12.3-27 27.5-27h467.1c15.2 0 27.5 11.8 27.5 27s-12.3 27-27.4 27z" fill="#3dc1eb" p-id="8154"></path><path d="M231.2 524.9m-50.7 0a50.7 50.7 0 1 0 101.4 0 50.7 50.7 0 1 0-101.4 0Z" fill="#3dc1eb" p-id="8155"></path><path d="M819.4 550H352.2c-15.2 0-27.5-11.8-27.5-27s12.3-27 27.5-27h467.1c15.2 0 27.5 11.8 27.5 27s-12.3 27-27.4 27z" fill="#3dc1eb" p-id="8156"></path><path d="M231.2 744.8m-50.7 0a50.7 50.7 0 1 0 101.4 0 50.7 50.7 0 1 0-101.4 0Z" fill="#3dc1eb" p-id="8157"></path><path d="M819.4 770H352.2c-15.2 0-27.5-12.3-27.5-27.5S337 715 352.2 715h467.1c15.2 0 27.5 12.3 27.5 27.5S834.5 770 819.4 770zM599.5 110H434.7c-30.3 0-55-24.7-55-55s24.6-55 55-55h164.9c30.3 0 55 24.7 55 55s-24.7 55-55.1 55z" fill="#3dc1eb" p-id="8158"></path></svg>