<?xml version="1.0" standalone="no"?><!DOCTYPE svg PUBLIC "-//W3C//DTD SVG 1.1//EN" "http://www.w3.org/Graphics/SVG/1.1/DTD/svg11.dtd"><svg t="1526455312984" class="icon" style="" viewBox="0 0 1024 1024" version="1.1" xmlns="http://www.w3.org/2000/svg" p-id="6620" xmlns:xlink="http://www.w3.org/1999/xlink" width="200" height="200"><defs><style type="text/css"></style></defs><path d="M512.384 72.064c59.648 0 117.504 11.648 171.904 34.688 52.608 22.272 99.84 54.144 140.416 94.72 40.576 40.576 72.448 87.808 94.72 140.416 23.04 54.4 34.688 112.256 34.688 171.904 0 59.648-11.648 117.504-34.688 171.904-22.272 52.608-54.144 99.84-94.72 140.416-40.576 40.576-87.808 72.448-140.416 94.72-54.4 23.04-112.256 34.688-171.904 34.688-59.648 0-117.504-11.648-171.904-34.688-52.608-22.272-99.84-54.144-140.416-94.72-40.576-40.576-72.448-87.808-94.72-140.416-23.04-54.4-34.688-112.256-34.688-171.904 0-59.648 11.648-117.504 34.688-171.904 22.272-52.608 54.144-99.84 94.72-140.416 40.576-40.576 87.808-72.448 140.416-94.72 54.4-23.04 112.256-34.688 171.904-34.688m0-38.4c-265.088 0-480 214.912-480 480s214.912 480 480 480 480-214.912 480-480-214.912-480-480-480z" p-id="6621" fill="#3dc1eb"></path><path d="M665.728 371.456c41.6 54.528 44.416 126.464 12.672 182.528l-20.864-27.264c19.2-43.776 15.232-96.256-15.872-136.96-31.104-40.576-80.64-58.24-128-51.072L492.8 311.424c62.464-15.872 131.2 5.504 172.928 60.032z" p-id="6622" fill="#3dc1eb"></path><path d="M587.264 435.2c-17.664-23.168-45.952-33.152-72.96-29.184l-11.904-15.488c35.584-9.088 74.88 3.2 98.56 34.176 23.808 30.976 25.344 72.064 7.296 104.064l-11.904-15.488c11.008-24.96 8.704-54.784-9.088-78.08zM335.872 280.96c6.912-6.912 18.304-7.04 25.344 0l91.776 91.392v0.128c6.784 6.656 7.424 17.92 0 25.344L420.608 430.08l-116.992-116.864 32.256-32.256zM399.872 616.32C237.824 450.56 275.584 349.312 292.608 327.936l117.12 116.736c-16.64 16.64-0.512 40.448 17.792 62.976 25.984 32.256 56.064 60.8 82.176 82.048 39.424 32.128 60.032 46.208 75.904 30.336l114.176 114.048c-18.944 19.712-129.024 57.088-299.904-117.76zM743.168 687.488l-32.384 32.256-114.432-114.304 32.256-32.256c7.04-6.912 18.304-7.04 25.344 0l89.216 88.832v0.128c6.656 6.656 7.424 17.92 0 25.344z" p-id="6623" fill="#3dc1eb"></path></svg>