<?xml version="1.0" standalone="no"?><!DOCTYPE svg PUBLIC "-//W3C//DTD SVG 1.1//EN" "http://www.w3.org/Graphics/SVG/1.1/DTD/svg11.dtd"><svg t="1526455258186" class="icon" style="" viewBox="0 0 1024 1024" version="1.1" xmlns="http://www.w3.org/2000/svg" p-id="5475" xmlns:xlink="http://www.w3.org/1999/xlink" width="200" height="200"><defs><style type="text/css"></style></defs><path d="M829.134 890.119h-635.421c-72.624 0-131.714-59.089-131.714-131.714v-476.565c0-72.628 59.085-131.714 131.714-131.714h635.424c72.628 0 131.714 59.085 131.714 131.713v476.566c-0.005 72.624-59.089 131.714-131.718 131.714zM193.714 201.746c-44.164 0-80.094 35.932-80.094 80.094v476.565c0 44.163 35.932 80.094 80.094 80.094h635.424c44.163 0 80.094-35.932 80.094-80.094v-476.565c0-44.163-35.932-80.094-80.094-80.094h-635.424z" p-id="5476" fill="#3dc1eb"></path><path d="M604.286 402.529h217.38c12.481 0 22.606 10.118 22.606 22.605 0 12.482-10.124 22.605-22.606 22.605h-217.38c-12.487 0-22.605-10.123-22.605-22.605-0.005-12.491 10.115-22.605 22.605-22.605zM604.286 501.727h161.209c12.483 0 22.606 10.119 22.606 22.605 0 12.482-10.122 22.606-22.606 22.606h-161.209c-12.486 0-22.605-10.123-22.605-22.606-0.004-12.486 10.116-22.605 22.605-22.605zM604.286 598.721h99.844c12.48 0 22.605 10.118 22.605 22.606 0 12.482-10.125 22.605-22.605 22.605h-99.844c-12.486 0-22.605-10.123-22.605-22.605-0.004-12.487 10.116-22.605 22.605-22.605zM534.801 699.030c-0.567 0-0.567-0.563-0.567-1.13v-0.563l-0.563-3.38c-7.321-63.616-48.975-117.657-107.521-142.422 34.339-23.082 55.171-61.927 55.171-104.146 0-69.239-56.858-126.095-126.094-126.095-34.906 0-64.737 12.387-89.511 37.151-24.202 24.211-36.583 54.037-36.583 88.943 0 42.218 21.39 81.063 55.162 104.146-57.983 24.207-98.509 77.681-107.516 140.167-0.567 1.125-0.567 2.255-0.567 3.38v4.499c0 9.012 7.321 18.016 18.015 18.016 9.57 0 18.016-8.445 18.016-18.016v-0.557c9.57-68.115 64.737-122.163 135.102-126.095 5.066 0.558 10.7 0.558 15.766 0 34.906 1.683 65.3 14.636 90.635 38.839 25.332 23.639 40.531 52.912 44.468 87.257h0.567v0.557c0 9.012 7.321 18.016 18.016 18.016 9.569 0 18.015-8.445 18.015-18.016l-0.563-0.557 0.554 0.005M355.227 537.467c-48.975 0-90.068-41.097-90.068-90.071 0-25.328 9.003-46.163 26.46-63.607 17.449-17.449 38.839-26.461 63.611-26.461 24.77 0 46.154 9.012 63.612 26.461 17.453 17.444 26.461 38.276 26.461 63.607-0.005 49.543-40.544 90.073-90.077 90.073M355.227 537.467z" p-id="5477" fill="#3dc1eb"></path></svg>