<?xml version="1.0" standalone="no"?><!DOCTYPE svg PUBLIC "-//W3C//DTD SVG 1.1//EN" "http://www.w3.org/Graphics/SVG/1.1/DTD/svg11.dtd"><svg t="1525745512414" class="icon" style="" viewBox="0 0 1024 1024" version="1.1" xmlns="http://www.w3.org/2000/svg" p-id="10688" xmlns:xlink="http://www.w3.org/1999/xlink" width="200" height="200"><defs><style type="text/css"></style></defs><path d="M511.662309 243.458871 511.662309 243.458871c97.06264 0 175.758979 80.142272 175.758979 179.027419s-78.69634 179.027419-175.758979 179.027419-175.758979-80.142272-175.758979-179.027419S414.599669 243.458871 511.662309 243.458871zM511.662309 288.216237 511.662309 288.216237c-72.803119 0-131.819235 60.110029-131.819235 134.270053s59.017138 134.271076 131.819235 134.271076 131.819235-60.110029 131.819235-134.271076S584.465428 288.216237 511.662309 288.216237zM263.107373 173.027775 263.107373 173.027775C331.729264 100.644211 421.715741 64.431451 511.663332 64.431451c89.946568 0 179.933045 36.21276 248.555959 108.596324 137.28369 144.809083 137.28369 379.579061 0 524.347213L511.662309 959.568549 263.10635 697.374988C125.823684 552.606837 125.823684 317.836859 263.107373 173.027775zM481.121735 927.352823l247.492744-261.072017c120.836089-127.424134 120.836089-334.697875-0.004093-462.161918-58.482973-61.687968-136.195915-94.930069-216.947054-94.930069S353.198228 142.429897 294.715255 204.118887l0 0c-120.840182 127.464043-120.840182 334.737784 0.001023 462.167035l247.487627 261.066901L541.135574 928.479483l-58.944484 0L481.121735 927.352823z" p-id="10689" fill="#fff"></path></svg>