<?xml version="1.0" standalone="no"?><!DOCTYPE svg PUBLIC "-//W3C//DTD SVG 1.1//EN" "http://www.w3.org/Graphics/SVG/1.1/DTD/svg11.dtd"><svg t="1525932805618" class="icon" style="" viewBox="0 0 1220 1024" version="1.1" xmlns="http://www.w3.org/2000/svg" p-id="4554" xmlns:xlink="http://www.w3.org/1999/xlink" width="238.28125" height="200"><defs><style type="text/css"></style></defs><path d="M597.71445312 152.98613281c-195.89941406 0-354.825 156.86015625-354.825 350.49023438 0 193.63183594 158.92646484 350.49199219 354.825 350.49199218 195.89853516 0 354.825-156.86103516 354.82500001-350.49111328 0-193.63095703-158.92646484-350.49111328-354.825-350.49111328v42.85722656c172.35351563 0 311.96777344 137.79931641 311.96777343 307.63388672s-139.61425781 307.63388672-311.96777344 307.63388672-311.96777344-137.79931641-311.96777343-307.63476562c0-169.83369141 139.61425781-307.63300781 311.96777343-307.63300782v-42.85722656z" fill="#ffffff" p-id="4555"></path><path d="M753.32832031 867.37695313c146.29394531-60.83525391 244.69453125-203.07568359 244.69453125-363.89794922 0-217.99160156-179.16240234-394.82138672-400.3040039-394.82138672-221.14951172 0-400.30400391 176.82539063-400.30400391 394.82226562 0 48.68876953 8.92265625 96.12333984 26.11933594 140.60302735 4.26708984 11.0390625-1.22167969 23.44658203-12.25986328 27.71455078-11.0390625 4.26708984-23.44658203-1.22167969-27.71367188-12.25986328a431.01210937 431.01210937 0 0 1-2.67363281-7.09980469c-1.62597656 0.06767578-3.26162109 0.10195313-4.90517578 0.10195312C113.02929687 652.53974609 62 602.17314453 62 540.03974609c0-57.13330078 43.14550781-104.31738281 99.03515625-111.54199218C197.04394531 222.453125 378.8984375 65.80039062 597.71796875 65.80039062c218.81425781 0 400.67314453 156.65625 436.68457031 362.69824219 55.88349609 7.22900391 99.02548828 54.41044922 99.02548828 111.54111328 0 62.13339844-51.02929688 112.5-113.98183593 112.5-1.66113281 0-3.31435547-0.03515625-4.95878907-0.10458984-41.7796875 113.99589844-130.37695313 207.28212891-245.64814453 254.90654297-1.02041016 29.41171875-25.49882812 52.9453125-55.546875 52.9453125-30.69580078 0-55.57939453-24.56015625-55.57939453-54.8578125 0-30.29677734 24.88359375-54.85693359 55.57939453-54.85693359 15.72539062 0 29.925 6.44501953 40.0350586 16.8046875z" fill="#ffffff" p-id="4556"></path><path d="M597.71796875 599.36767578c-51.79658203 0-98.48671875-9.35507813-139.28203125-24.90996094-14.17060547-5.40263672-26.55263672-11.16386719-37.03535156-16.88203125-6.08730469-3.31962891-10.06083984-5.79199219-11.80986328-7.00664062-16.91015625-11.75361328-39.04804687 4.78652344-32.57138672 24.33515625 31.021875 93.62724609 119.57871094 158.12666016 220.69863281 158.12666016 101.11816406 0 189.66445312-64.49765625 220.68632813-158.12666016 6.47753906-19.54951172-15.66210938-36.08964844-32.57226563-24.33427734-1.74902344 1.21552734-5.72167969 3.68701172-11.80722656 7.00664062-10.48183594 5.71728516-22.86210937 11.47851563-37.03095703 16.88115234-40.79267578 15.55488281-87.48017578 24.90996094-139.27587891 24.90996094z" fill="#ffffff" p-id="4557"></path></svg>