<?xml version="1.0" standalone="no"?><!DOCTYPE svg PUBLIC "-//W3C//DTD SVG 1.1//EN" "http://www.w3.org/Graphics/SVG/1.1/DTD/svg11.dtd"><svg t="1525335358790" class="icon" style="" viewBox="0 0 1024 1024" version="1.1" xmlns="http://www.w3.org/2000/svg" p-id="1094" xmlns:xlink="http://www.w3.org/1999/xlink" width="200" height="200"><defs><style type="text/css"></style></defs><path d="M118.140189 211.066113c29.974685-40.785915 66.119907-76.768431 107.180068-106.525152-11.95631-30.90487-41.933041-52.79953-77.095889-52.79953-45.591361 0-82.556251 36.96489-82.556251 82.502016C65.668117 169.18833 87.399047 198.999286 118.140189 211.066113zM905.976468 211.066113c30.68486-12.066827 52.525284-41.877783 52.525284-76.822666 0-45.537126-37.018102-82.502016-82.610486-82.502016-35.109636 0-65.139579 21.894659-77.042677 52.79953C839.801303 134.297682 875.999736 170.280198 905.976468 211.066113zM713.156928 488.047472l-178.077791-0.432859 0-184.706769c0-23.909549-19.385513-43.242873-43.349297-43.242873-23.910573 0-43.297109 19.333324-43.297109 43.242873l0 222.997863c0 0.819668 0.027629 1.633197 0.072655 2.441609-0.042979 0.76134-0.068562 1.526773-0.071631 2.297322-0.107447 23.910573 19.22383 43.351344 43.134403 43.351344l221.319641 0.591471c8.346085 0.054235 16.154935-2.314719 22.833031-6.408967 12.277628-7.647167 20.572548-21.217231 20.572548-36.726459C756.397754 507.541455 737.066477 488.100684 713.156928 488.047472zM959.429891 499.523851c0-60.334133-11.847839-118.811989-35.162848-173.960007-22.549575-53.181223-54.763255-101.010555-95.824439-141.962246-41.060161-41.060161-88.889493-73.27384-142.18021-95.76918-55.146994-23.315008-113.787556-35.162848-174.121689-35.162848-60.334133 0-118.975718 11.848862-174.122713 35.162848-53.289694 22.49534-101.121072 54.709019-142.181233 95.76918-41.059138 40.951691-73.272817 88.781022-95.824439 141.962246-23.313985 55.148018-35.162848 113.62485-35.162848 173.960007 0 60.278875 11.848862 118.810966 35.162848 173.903725 21.394263 50.504254 51.500954 96.084359 89.590458 135.639237l-72.813353 107.640556c-9.108448 13.407358-5.54325 31.647791 7.833409 40.736796 13.407358 9.109472 31.658024 5.594415 40.707121-7.853875l68.074422-100.58179c31.822776 25.403576 66.838268 46.257533 104.614639 62.204737 55.148018 23.25975 113.788579 35.109636 174.122713 35.109636 60.334133 0 118.975718-11.848862 174.121689-35.109636 37.755905-15.937994 72.755024-36.778648 104.564497-62.163805l68.045769 100.540857c9.049097 13.44829 27.299763 16.963347 40.707121 7.853875 13.375635-9.089006 16.940834-27.329439 7.832386-40.736796l-72.78163-107.593484c38.113039-39.567157 68.235081-85.162612 89.636506-135.687332C947.582051 618.334817 959.429891 559.802726 959.429891 499.523851zM869.721753 650.439002c-19.549242 46.084595-47.50392 87.580684-83.157955 123.180484-35.655058 35.598776-77.151148 63.555501-123.344213 83.102696-47.830355 20.202111-98.717326 30.466895-151.079904 30.466895-52.416813 0-103.251595-10.264784-151.080927-30.466895-46.193065-19.547195-87.689155-47.50392-123.343189-83.102696-35.655058-35.599799-63.61076-77.095889-83.157955-123.180484-20.255323-47.829332-30.521131-98.608855-30.521131-150.916175 0-52.362578 10.265808-103.141078 30.521131-150.917198 19.548218-46.194088 47.502897-87.580684 83.157955-123.234719 35.654035-35.598776 77.150124-63.61076 123.343189-83.101673 47.829332-20.203134 98.664114-30.41266 151.080927-30.41266 52.362578 0 103.248525 10.209526 151.079904 30.41266 46.194088 19.490913 87.689155 47.502897 123.344213 83.101673 35.654035 35.654035 63.608713 77.041654 83.157955 123.234719 20.25737 47.77612 30.521131 98.55462 30.521131 150.917198C900.242883 551.830147 889.979122 602.609671 869.721753 650.439002z" p-id="1095" fill="#fff"></path></svg>