<?xml version="1.0" standalone="no"?><!DOCTYPE svg PUBLIC "-//W3C//DTD SVG 1.1//EN" "http://www.w3.org/Graphics/SVG/1.1/DTD/svg11.dtd"><svg t="1525242156640" class="icon" style="" viewBox="0 0 1024 1024" version="1.1" xmlns="http://www.w3.org/2000/svg" p-id="3462" xmlns:xlink="http://www.w3.org/1999/xlink" width="200" height="200"><defs><style type="text/css"></style></defs><path d="M878.7968 545.7408c1.0752-11.1616 1.7408-22.3744 1.7408-33.7408s-0.6656-22.5792-1.7408-33.7408l85.5552-67.6352c18.5344-15.1552 23.296-41.2672 11.4176-61.9008l-91.2384-159.6416c-11.5712-20.2752-36.352-30.0032-59.8016-20.992L724.48 208.8448c-18.3808-13.2096-37.632-24.5248-57.4464-33.792l-15.2064-108.3392C648.2432 43.264 627.6608 25.6 604.0064 25.6L421.4784 25.6c-23.9616 0-44.0832 17.2544-47.872 41.472L358.4512 175.0528c-19.8656 9.3184-39.1168 20.6336-57.4976 33.792L200.448 167.936C178.7904 159.5392 152.576 168.8064 141.0048 189.0816L49.7664 348.672C37.888 369.4592 42.6496 395.5712 61.4912 410.88l85.1968 67.3792C145.6128 489.3696 144.9472 500.6336 144.9472 512s0.6656 22.6304 1.7408 33.7408L61.0304 613.376c-18.3808 15.2064-23.1424 41.2672-11.264 61.8496l91.2896 159.744c11.6224 20.224 36.9664 29.952 59.7504 20.8896l100.2496-40.7552c18.432 13.2096 37.6832 24.5248 57.4464 33.7408l15.2064 108.4928C377.4464 981.1456 397.568 998.4 421.4784 998.4l182.4768 0c23.6544 0 44.1856-17.664 47.9232-41.472l15.1552-108.032c19.8144-9.3184 39.0656-20.5824 57.4464-33.792l100.5056 40.96c5.632 2.2016 11.52 3.2768 17.5616 3.2768 17.2032 0 33.28-9.3184 41.984-24.4224l91.0848-159.5392c11.9296-20.5824 7.3216-46.6944-11.6736-62.4128L878.7968 545.7408zM843.9808 808.4992l-113.6128-46.2336c-8.4992-3.5328-18.1248-2.1504-25.344 3.4816-22.4256 17.408-46.3872 31.488-71.2704 41.8304-8.3456 3.4816-14.2336 11.1616-15.5136 20.1216l-16.7424 119.552-177.2032 2.6112-17.1008-122.1632c-1.2288-8.96-7.168-16.5888-15.5136-20.1216-24.6784-10.24-48.6912-24.3712-71.2704-41.8304-4.5568-3.4816-10.0864-5.3248-15.6672-5.3248-3.2256 0-6.5024 0.6144-9.6256 1.8944l-109.6192 47.2576-92.2112-156.3648 96.3584-76.0832c7.0656-5.5808 10.6496-14.4896 9.5232-23.3984C197.3248 540.0064 196.1472 526.1312 196.1472 512s1.1776-28.0064 2.9696-41.6256c1.1776-8.96-2.4064-17.8176-9.5232-23.3984L94.208 374.1184l87.296-158.6176 113.5104 46.1824c8.4992 3.4816 18.1248 2.1504 25.344-3.4304 22.4768-17.408 46.5408-31.5392 71.424-41.984 8.3456-3.4816 14.1824-11.1104 15.4624-20.0704L421.4784 76.8l179.712-2.6112 17.1008 122.112c1.2288 8.96 7.168 16.5888 15.5136 20.0704 24.7808 10.3424 48.7936 24.4224 71.3216 41.8816 7.2704 5.5808 16.896 6.912 25.344 3.4816l109.6192-47.2064 92.2624 156.2624-96.4096 76.1856c-7.0656 5.5808-10.7008 14.4384-9.5744 23.3472 1.7408 13.7216 3.0208 27.5968 3.0208 41.728s-1.2288 28.0064-3.0208 41.728c-1.1264 8.9088 2.5088 17.7664 9.5744 23.3472l95.3344 72.7552L843.9808 808.4992zM512.8192 318.976c-105.5744 0-191.4368 86.5792-191.4368 193.024 0 106.3936 85.8624 193.024 191.4368 193.024 105.5744 0 191.3856-86.5792 191.3856-193.024C704.2048 405.5552 618.3424 318.976 512.8192 318.976zM512.8192 653.824c-77.312 0-140.2368-63.5904-140.2368-141.824s62.9248-141.824 140.2368-141.824c77.312 0 140.1856 63.6416 140.1856 141.824S590.08 653.824 512.8192 653.824z" p-id="3463" fill="#fff"></path></svg>