<?xml version="1.0" standalone="no"?><!DOCTYPE svg PUBLIC "-//W3C//DTD SVG 1.1//EN" "http://www.w3.org/Graphics/SVG/1.1/DTD/svg11.dtd"><svg t="1525745413420" class="icon" style="" viewBox="0 0 1024 1024" version="1.1" xmlns="http://www.w3.org/2000/svg" p-id="9358" xmlns:xlink="http://www.w3.org/1999/xlink" width="200" height="200"><defs><style type="text/css"></style></defs><path d="M512 1024c-281.6 0-512-230.4-512-512s230.4-512 512-512 512 230.4 512 512S793.6 1024 512 1024zM512 64C262.4 64 64 262.4 64 512s198.4 448 448 448 448-198.4 448-448S761.6 64 512 64zM761.6 787.2c0 0-6.4 6.4-19.2 6.4-12.8 0-19.2 6.4-38.4 6.4-12.8 0-32 6.4-51.2 6.4-19.2 0-38.4 6.4-51.2 6.4-19.2 0-38.4 6.4-51.2 6.4-19.2 0-32 0-44.8 0-12.8 0-25.6 0-44.8 0-12.8 0-32 0-51.2-6.4-19.2 0-32-6.4-51.2-6.4-19.2 0-32-6.4-44.8-6.4-12.8 0-25.6-6.4-32-6.4s-12.8-6.4-19.2-6.4C262.4 793.6 262.4 780.8 256 768c0-19.2 0-38.4 0-70.4 0-12.8 6.4-25.6 19.2-32s19.2-12.8 38.4-19.2C332.8 640 345.6 633.6 358.4 633.6 371.2 627.2 384 620.8 396.8 614.4c6.4-6.4 12.8-12.8 19.2-12.8 6.4-6.4 6.4-6.4 12.8-12.8 0-6.4 6.4-6.4 6.4-12.8 0-6.4 0-12.8 0-12.8L377.6 550.4C364.8 544 358.4 537.6 352 524.8 352 518.4 345.6 505.6 339.2 486.4 339.2 473.6 332.8 454.4 332.8 428.8c0-19.2 0-44.8 0-64 0-25.6 6.4-44.8 12.8-64C364.8 275.2 371.2 256 390.4 236.8c19.2-19.2 38.4-32 70.4-38.4 6.4 0 19.2-6.4 25.6-6.4 6.4 0 12.8 0 25.6 0C512 192 512 192 518.4 192l12.8 0C556.8 192 576 198.4 588.8 204.8c19.2 6.4 32 19.2 44.8 32 12.8 12.8 25.6 32 32 44.8 6.4 19.2 12.8 32 19.2 51.2 6.4 19.2 6.4 32 12.8 51.2 0 19.2 0 32 0 44.8 0 19.2-6.4 32-6.4 51.2-6.4 12.8-6.4 25.6-12.8 38.4-6.4 12.8-12.8 25.6-19.2 32l-64 12.8c0 6.4 0 12.8 0 19.2 0 6.4 6.4 12.8 6.4 19.2 6.4 6.4 6.4 12.8 12.8 12.8C620.8 614.4 627.2 614.4 640 620.8c12.8 6.4 19.2 6.4 32 12.8 12.8 6.4 25.6 6.4 38.4 12.8 12.8 6.4 19.2 12.8 32 19.2 6.4 6.4 12.8 12.8 19.2 25.6 0 6.4 6.4 12.8 6.4 25.6 0 12.8 0 19.2 0 32 0 12.8 0 19.2 0 25.6C761.6 780.8 761.6 787.2 761.6 787.2zM550.4 672c0-6.4 6.4-6.4 6.4-12.8 0-6.4 0-6.4-6.4-12.8 0-6.4-6.4-6.4-6.4-6.4-6.4 0-6.4-6.4-12.8-6.4L499.2 633.6c-6.4 0-6.4 6.4-12.8 6.4 0 0-6.4 6.4-6.4 6.4 0 6.4 0 6.4 0 12.8 0 0 0 6.4 6.4 6.4 0 6.4 6.4 6.4 12.8 12.8 0 6.4 0 6.4-6.4 19.2 0 6.4-6.4 12.8-6.4 19.2 0 6.4-6.4 12.8-6.4 19.2 0 6.4 0 12.8 0 12.8 0 0 0 6.4 6.4 6.4 0 6.4 6.4 6.4 12.8 12.8 6.4 6.4 6.4 6.4 12.8 12.8 6.4 0 6.4 6.4 12.8 6.4 0 0 6.4 0 6.4-6.4 6.4 0 6.4-6.4 12.8-12.8 6.4-6.4 6.4-6.4 12.8-12.8 0-6.4 6.4-6.4 6.4-6.4 0 0 0-6.4 0-12.8 0-6.4 0-12.8-6.4-19.2 0-6.4-6.4-12.8-6.4-19.2 0-6.4 0-12.8-6.4-19.2C544 678.4 544 672 550.4 672z" p-id="9359" fill="#fff"></path></svg>