<?xml version="1.0" standalone="no"?><!DOCTYPE svg PUBLIC "-//W3C//DTD SVG 1.1//EN" "http://www.w3.org/Graphics/SVG/1.1/DTD/svg11.dtd"><svg t="1524650633790" class="icon" style="" viewBox="0 0 1024 1024" version="1.1" xmlns="http://www.w3.org/2000/svg" p-id="1881" xmlns:xlink="http://www.w3.org/1999/xlink" width="200" height="200"><defs><style type="text/css"></style></defs><path d="M844.8 864l-57.6-83.2c25.6-25.6 38.4-51.2 38.4-83.2 0-64-51.2-115.2-115.2-115.2s-115.2 51.2-115.2 115.2 51.2 115.2 115.2 115.2c12.8 0 25.6-6.4 44.8-6.4l57.6 83.2c6.4 6.4 25.6 12.8 32 6.4 6.4-12.8 12.8-25.6 0-32z" fill="#fff" p-id="1882"></path><path d="M640 691.2c0-38.4 32-70.4 70.4-70.4s70.4 32 70.4 70.4-32 70.4-70.4 70.4-70.4-32-70.4-70.4z" fill="#fff" p-id="1883"></path><path d="M512 582.4c115.2 0 211.2-89.6 211.2-211.2S627.2 166.4 512 166.4 300.8 256 300.8 371.2 396.8 582.4 512 582.4z" fill="#fff" p-id="1884"></path><path d="M512 537.6c-89.6 0-160-76.8-160-160S422.4 211.2 512 211.2s160 76.8 160 160S601.6 537.6 512 537.6z" fill="#fff" p-id="1885"></path><path d="M550.4 537.6c-192 0-364.8 160-364.8 339.2 0 12.8 6.4 19.2 19.2 19.2 12.8 0 25.6-6.4 25.6-25.6C230.4 716.8 384 576 550.4 576c57.6 6.4 70.4-38.4 0-38.4z" fill="#fff" p-id="1886"></path></svg>