<?xml version="1.0" standalone="no"?><!DOCTYPE svg PUBLIC "-//W3C//DTD SVG 1.1//EN" "http://www.w3.org/Graphics/SVG/1.1/DTD/svg11.dtd"><svg t="1524650392156" class="icon" style="" viewBox="0 0 1024 1024" version="1.1" xmlns="http://www.w3.org/2000/svg" p-id="1634" xmlns:xlink="http://www.w3.org/1999/xlink" width="200" height="200"><defs><style type="text/css"></style></defs><path d="M512 73.770667c2.730667 0 7.978667 0.668444 12.472889 5.162666l390.115555 390.115556H865.564444V906.780444c0 10.197333-8.305778 18.503111-18.503111 18.503112H657.792v-129.578667c0-80.398222-65.408-145.792-145.792-145.792-80.398222 0-145.792 65.408-145.792 145.792v129.578667H176.938667a18.531556 18.531556 0 0 1-18.503111-18.503112V469.048889H109.411556l390.115555-390.115556c4.494222-4.494222 9.742222-5.162667 12.472889-5.162666M512 28.444444a62.72 62.72 0 0 0-44.515556 18.446223L0 514.360889h113.109333v392.405333a63.815111 63.815111 0 0 0 63.815111 63.815111h234.595556V795.690667a100.48 100.48 0 1 1 200.96 0v174.904889H847.075556a63.815111 63.815111 0 0 0 63.815111-63.815112V514.360889H1024L556.515556 46.890667A62.72 62.72 0 0 0 512 28.444444z" p-id="1635" fill="#3CBFEF"></path></svg>