<?xml version="1.0" standalone="no"?><!DOCTYPE svg PUBLIC "-//W3C//DTD SVG 1.1//EN" "http://www.w3.org/Graphics/SVG/1.1/DTD/svg11.dtd"><svg t="1525932667998" class="icon" style="" viewBox="0 0 1024 1024" version="1.1" xmlns="http://www.w3.org/2000/svg" p-id="2594" xmlns:xlink="http://www.w3.org/1999/xlink" width="200" height="200"><defs><style type="text/css"></style></defs><path d="M892.69973333 662.29973333c-9.45066667-11.25013333-20.69973333-21.14986667-32.85013333-29.6992 13.05066667-37.80053333 20.25066667-78.3008 20.25066667-120.60053333 0-203.40053333-164.7008-368.10026667-368.10026667-368.10026667S143.89973333 308.59946667 143.89973333 512 308.60053333 880.10026667 512 880.10026667c42.29973333 0 82.8-7.2 120.59946667-20.25066667 8.5504 12.1504 18.45013333 23.40053333 29.70026666 32.85013333-46.34986667 18.45013333-97.2 28.34986667-150.29973333 28.34986667-225.89973333 0-409.0496-183.14986667-409.0496-409.0496S286.10026667 102.9504 512 102.9504 921.0496 286.10026667 921.0496 512c0 53.09973333-9.89866667 103.49973333-28.34986667 150.29973333z m-125.09973333-17.54986666c67.94986667 0 122.85013333 54.90026667 122.85013333 122.85013333 0 67.94986667-54.90026667 122.85013333-122.85013333 122.85013333-67.94986667 0-122.85013333-54.90026667-122.85013333-122.85013333 0-67.49973333 55.34933333-122.85013333 122.85013333-122.85013333z m15.30026667 189.45066666v-20.7008c0-2.69973333-2.25066667-4.94933333-4.94933334-4.94933333h-20.25066666c-2.7008 0-4.94933333 2.2496-4.94933334 4.94933333v20.25066667c0 2.69866667 2.2496 4.94933333 4.94933334 4.94933333h20.2496c2.69973333 0.45013333 4.94933333-1.79946667 4.94933333-4.50026666z m4.94933333-132.75093333c0-3.14986667-2.2496-5.39946667-4.94933333-5.39946667H752.29866667c-2.69973333 0-4.94933333 2.69973333-4.94933334 5.39946667l4.4992 86.85013333c0 2.7008 2.25066667 4.94933333 4.9504 4.94933334h21.14986667c2.69973333 0 4.94933333-2.2496 4.94933333-4.94933334l4.9504-86.85013333zM532.69973333 250.99946667l15.30026667 286.65066666-139.49973333 119.70026667c-2.25066667 1.79946667-4.94933333 1.79946667-6.74986667-0.45013333l-29.25013333-29.25013334c-1.80053333-1.80053333-1.80053333-4.94933333-0.45013334-7.2l103.94986667-118.8 15.30026667-250.65066666c0-2.69866667 2.25066667-4.94933333 4.94933333-4.94933334h31.05066667c3.14986667 0 5.39946667 2.25066667 5.39946666 4.94933334z" fill="#ffffff" p-id="2595"></path></svg>