<?xml version="1.0" encoding="utf-8"?>
<!-- Generator: Adobe Illustrator 16.0.0, SVG Export Plug-In . SVG Version: 6.00 Build 0)  -->
<!DOCTYPE svg PUBLIC "-//W3C//DTD SVG 1.1//EN" "http://www.w3.org/Graphics/SVG/1.1/DTD/svg11.dtd">
<svg version="1.1" id="图层_1" xmlns="http://www.w3.org/2000/svg" xmlns:xlink="http://www.w3.org/1999/xlink" x="0px" y="0px"
	 width="50px" height="50px" viewBox="0 0 50 50" enable-background="new 0 0 50 50" xml:space="preserve">
<g>
	<path fill="#FFFFFF" d="M1.5,7.775C1.565,7.3,1.605,6.82,1.698,6.35c0.496-2.529,2.257-4.185,4.793-4.4
		c1.367-0.118,2.747-0.078,4.122-0.105c0.317-0.009,0.634-0.011,0.951,0.001c0.7,0.027,1.021,0.319,1.137,1.014
		c0.074,0.441,0.029,0.876-0.125,1.294c-0.2,0.541-0.538,0.78-1.11,0.782c-1.24,0.004-2.479-0.004-3.718,0.002
		C6.802,4.945,5.958,5.211,5.315,5.95C4.832,6.507,4.632,7.173,4.592,7.897c-0.01,0.154-0.008,0.309-0.008,0.465
		c-0.002,11.674,0,23.348,0,35.023c0,1.639,0.714,2.678,2.24,3.266c0.55,0.211,1.116,0.319,1.705,0.319
		c11.041-0.002,22.083,0,33.124-0.002c1.195,0,2.168-0.433,2.771-1.524c0.295-0.533,0.382-1.118,0.382-1.721v-6.074
		c0-9.805-0.003-19.608,0-29.415c0-0.821-0.158-1.592-0.697-2.24c-0.642-0.771-1.5-1.05-2.463-1.056
		c-0.983-0.006-1.967,0.006-2.949-0.004c-0.795-0.008-1.366-0.415-1.737-1.092c-0.39-0.709-0.08-1.455,0.742-1.787
		c0.305-0.12,0.644-0.198,0.969-0.202c1.205-0.013,2.411-0.017,3.616,0.029c2.818,0.11,4.902,1.931,5.438,4.722
		c0.075,0.385,0.112,0.782,0.166,1.171V43.91c-0.016,0.084-0.029,0.167-0.041,0.251c-0.125,0.7-0.182,1.422-0.387,2.097
		c-0.463,1.534-1.447,2.629-2.934,3.244c-1.047,0.438-2.143,0.563-3.26,0.563c-11.047,0-22.097,0.002-33.146-0.008
		c-0.601,0-1.217-0.043-1.806-0.168c-2.534-0.537-4.077-2.104-4.618-4.656C1.601,44.78,1.564,44.314,1.5,43.857V7.775
		 M24.735,26.051c-3.797,0-7.594-0.001-11.391,0.002c-0.655,0-1.194-0.197-1.544-0.782c-0.634-1.059,0.099-2.329,1.375-2.385
		c0.049-0.005,0.103-0.003,0.152-0.003c7.578,0,15.155,0,22.731-0.002c0.68,0,1.239,0.22,1.596,0.835
		c0.568,0.974-0.055,2.198-1.174,2.312c-0.151,0.014-0.307,0.023-0.459,0.023C32.259,26.053,28.497,26.051,24.735,26.051
		L24.735,26.051 M24.747,14.289c3.813,0,7.626,0,11.44,0.002c0.799,0,1.393,0.405,1.619,1.101c0.305,0.93-0.356,1.948-1.324,2.041
		c-0.076,0.007-0.153,0.012-0.229,0.012c-7.68,0-15.36,0-23.038-0.001c-0.817,0-1.464-0.519-1.612-1.274
		c-0.179-0.902,0.486-1.793,1.396-1.87c0.127-0.01,0.255-0.01,0.383-0.01L24.747,14.289L24.747,14.289 M24.71,32.225
		c3.804,0,7.61,0.006,11.415-0.009c0.917-0.003,1.514,0.563,1.697,1.222c0.251,0.907-0.418,1.844-1.381,1.932
		c-0.068,0.009-0.135,0.009-0.205,0.009c-7.67,0-15.34,0.002-23.01,0c-0.863,0-1.514-0.549-1.641-1.369
		c-0.132-0.836,0.535-1.698,1.375-1.774c0.144-0.012,0.288-0.01,0.434-0.01H24.71L24.71,32.225 M24.731,0.33
		c1.724-0.003,3.457,0.031,5.179-0.011c1.294-0.034,2.283,1.001,2.474,2.205c0.158,1.005-0.103,1.892-0.842,2.612
		C31.13,5.538,30.637,5.74,30.063,5.74c-3.533,0-7.063,0.002-10.593-0.002c-1.04-0.002-1.929-0.659-2.267-1.701
		c-0.387-1.191-0.168-2.26,0.75-3.138c0.414-0.395,0.918-0.577,1.495-0.573C21.208,0.334,22.968,0.33,24.731,0.33 M24.731,0.33
		L24.731,0.33z"/>
</g>
</svg>
