<?xml version="1.0" standalone="no"?><!DOCTYPE svg PUBLIC "-//W3C//DTD SVG 1.1//EN" "http://www.w3.org/Graphics/SVG/1.1/DTD/svg11.dtd"><svg t="1525932856676" class="icon" style="" viewBox="0 0 1024 1024" version="1.1" xmlns="http://www.w3.org/2000/svg" p-id="4802" xmlns:xlink="http://www.w3.org/1999/xlink" width="200" height="200"><defs><style type="text/css"></style></defs><path d="M801.688 568.25c53.437-28.125 87.187-81.563 87.187-143.438 0-90-73.125-163.125-163.125-163.125s-163.125 73.125-163.125 163.125c0 61.875 36.563 118.125 87.188 143.438-28.125 11.25-56.25 25.313-78.75 45-2.813-2.813-5.625-8.438-8.438-11.25-33.75-39.375-78.75-70.313-129.375-84.375 61.875-30.938 104.063-95.625 104.063-168.75a188.438 188.438 0 0 0-376.875 0c0 73.125 42.187 137.813 104.062 168.75-115.313 36.563-196.875 143.438-196.875 270v2.813h33.75v-2.813c0-137.813 112.5-247.5 247.5-247.5 75.938 0 146.25 33.75 191.25 90 8.438 8.438 14.063 19.688 19.688 30.938 22.5 36.562 36.562 81.562 36.562 129.375v2.812h33.75v-2.813c0-53.437-14.063-101.25-39.375-143.437 36.563-33.75 81.563-53.438 135-53.438 109.688 0 196.875 87.188 196.875 196.875v2.813h33.75v-2.813c0-104.062-64.688-191.25-154.688-222.187z m-607.5-216.563C194.188 267.313 264.5 197 348.875 197s154.688 70.313 154.688 154.688-70.313 154.687-154.688 154.687c-84.375-2.813-154.688-70.313-154.688-154.688z m402.187 73.125c0-70.312 56.25-129.375 129.375-129.375 70.313 0 129.375 56.25 129.375 129.375 0 70.313-56.25 129.375-129.375 129.375-70.313 0-129.375-59.062-129.375-129.375z" p-id="4803" fill="#ffffff"></path></svg>