<?xml version="1.0" standalone="no"?><!DOCTYPE svg PUBLIC "-//W3C//DTD SVG 1.1//EN" "http://www.w3.org/Graphics/SVG/1.1/DTD/svg11.dtd"><svg t="1525745277388" class="icon" style="" viewBox="0 0 1024 1024" version="1.1" xmlns="http://www.w3.org/2000/svg" p-id="8980" xmlns:xlink="http://www.w3.org/1999/xlink" width="200" height="200"><defs><style type="text/css"></style></defs><path d="M837.8 735.3H187.7c-49.1 0-89.1-39.8-89.1-88.7V187.4c0-48.9 40-88.7 89.1-88.7h650.1c49.1 0 89.1 39.8 89.1 88.7v459.2c0 48.9-40 88.7-89.1 88.7zM187.7 157.8c-16.4 0-29.7 13.3-29.7 29.6v459.2c0 16.3 13.3 29.6 29.7 29.6h650.1c16.4 0 29.7-13.3 29.7-29.6V187.4c0-16.3-13.3-29.6-29.7-29.6H187.7z" fill="#3CBFEF" p-id="8981"></path><path d="M483.2 685.5h59.2V876h-59.2z" fill="#3CBFEF" p-id="8982"></path><path d="M813 925.5H221.3c-16.4 0-29.6-13.2-29.6-29.6s13.2-29.6 29.6-29.6H813c16.4 0 29.6 13.2 29.6 29.6s-13.3 29.6-29.6 29.6zM282 568.4c-7 0-14-2.5-19.6-7.4-12.2-10.8-13.4-29.5-2.6-41.7L386.4 376c10.6-12 28.7-13.4 40.9-3.3L543 467.5l192.9-216.4c10.8-12.2 29.5-13.3 41.8-2.4 12.2 10.9 13.2 29.6 2.4 41.8L568.4 528c-10.6 11.9-28.5 13.3-40.8 3.2l-115.7-94.7-107.8 122c-5.8 6.6-14 9.9-22.1 9.9z" fill="#3CBFEF" p-id="8983"></path></svg>