<?xml version="1.0" encoding="utf-8"?>
<!-- Generator: Adobe Illustrator 16.0.0, SVG Export Plug-In . SVG Version: 6.00 Build 0)  -->
<!DOCTYPE svg PUBLIC "-//W3C//DTD SVG 1.1//EN" "http://www.w3.org/Graphics/SVG/1.1/DTD/svg11.dtd">
<svg version="1.1" id="图层_1" xmlns="http://www.w3.org/2000/svg" xmlns:xlink="http://www.w3.org/1999/xlink" x="0px" y="0px"
	 width="200px" height="200px" viewBox="0 0 200 200" enable-background="new 0 0 200 200" xml:space="preserve">
<path fill="#FFFFFF" d="M100.947,118.147c-25.251,0-45.798-20.702-45.798-46.145c0-25.444,20.547-46.136,45.798-46.136
	c25.252,0,45.799,20.7,45.799,46.145C146.746,97.456,126.199,118.147,100.947,118.147z M100.947,35.508
	c-19.939,0-36.156,16.371-36.156,36.504c0,20.13,16.217,36.504,36.156,36.504c19.931,0,36.156-16.374,36.156-36.504
	C137.104,51.879,120.887,35.508,100.947,35.508z"/>
<path fill="#FFFFFF" d="M137.701,120.509c-0.911,0.007-1.805-0.253-2.574-0.744c-4.732-2.987-9.84-5.35-15.183-7.018
	c-2.541-0.791-3.96-3.491-3.169-6.03c0.79-2.541,3.491-3.957,6.029-3.166c6.149,1.916,12.023,4.625,17.472,8.06
	c2.251,1.419,2.928,4.396,1.508,6.646C140.9,119.66,139.358,120.511,137.701,120.509z M31.508,180.134
	c-2.663,0-4.82-2.159-4.82-4.821c0-33.177,21.067-62.024,52.413-71.762c2.542-0.793,5.245,0.627,6.036,3.171
	c0.791,2.542-0.631,5.244-3.174,6.035c-27.295,8.485-45.634,33.62-45.634,62.556C36.33,177.975,34.17,180.134,31.508,180.134z
	 M166.491,163.606c-2.661,0-4.821-2.157-4.821-4.82v-16.535c0-2.664,2.16-4.821,4.821-4.821c2.664,0,4.821,2.157,4.821,4.821v16.535
	C171.313,161.449,169.155,163.606,166.491,163.606z"/>
<path fill="#FFFFFF" d="M166.491,163.606h-56.152c-2.664,0-4.821-2.157-4.821-4.82c0-2.664,2.157-4.82,4.821-4.82h56.152
	c2.664,0,4.821,2.156,4.821,4.82C171.313,161.449,169.155,163.606,166.491,163.606z"/>
<path fill="#FFFFFF" d="M102.942,162.51c-2.662-0.004-4.816-2.167-4.812-4.83c0.001-1.32,0.546-2.584,1.507-3.493l16.332-15.437
	c1.936-1.829,4.988-1.742,6.816,0.192c1.829,1.938,1.743,4.988-0.192,6.815l-16.344,15.438
	C105.357,162.043,104.173,162.51,102.942,162.51z"/>
<path fill="#FFFFFF" d="M119.287,180.134c-1.345,0.001-2.626-0.559-3.539-1.543l-16.333-17.625
	c-1.811-1.953-1.693-5.005,0.261-6.815c1.954-1.812,5.005-1.694,6.816,0.261l16.342,17.623c1.811,1.952,1.695,5.005-0.256,6.813
	C121.683,179.677,120.508,180.136,119.287,180.134z"/>
</svg>
