<?xml version="1.0" standalone="no"?><!DOCTYPE svg PUBLIC "-//W3C//DTD SVG 1.1//EN" "http://www.w3.org/Graphics/SVG/1.1/DTD/svg11.dtd"><svg t="1525329868768" class="icon" style="" viewBox="0 0 1024 1024" version="1.1" xmlns="http://www.w3.org/2000/svg" p-id="3460" xmlns:xlink="http://www.w3.org/1999/xlink" width="200" height="200"><defs><style type="text/css"></style></defs><path d="M639.628 892.932H226.749c-54.57 0-98.806-44.238-98.806-98.806V226.14c0-54.57 44.237-98.806 98.806-98.806h569.914c54.57 0 98.807 44.238 98.807 98.806v413.526h63.96v-430.22c0-80.317-65.11-145.426-145.426-145.426H209.408c-80.316 0-145.426 65.11-145.426 145.426v604.596c0 80.317 65.11 145.426 145.426 145.426h430.22v-66.537z m319.802 28.253L710.734 672.49c35.524-43.93 56.814-99.846 56.814-160.743 0-141.298-114.545-255.843-255.843-255.843S255.863 370.447 255.863 511.745s114.545 255.843 255.843 255.843c60.897 0 116.814-21.29 160.744-56.814L921.146 959.47l38.284-38.285zM511.706 703.627c-105.973 0-191.882-85.908-191.882-191.882s85.909-191.882 191.882-191.882S703.59 405.772 703.59 511.745s-85.91 191.882-191.883 191.882z" fill="#3CBFEF" p-id="3461"></path></svg>