<?xml version="1.0" standalone="no"?><!DOCTYPE svg PUBLIC "-//W3C//DTD SVG 1.1//EN" "http://www.w3.org/Graphics/SVG/1.1/DTD/svg11.dtd"><svg t="1524229283964" class="icon" style="" viewBox="0 0 1145 1024" version="1.1" xmlns="http://www.w3.org/2000/svg" p-id="5031" xmlns:xlink="http://www.w3.org/1999/xlink" width="223.6328125" height="200"><defs><style type="text/css"></style></defs><path d="M1087.757586 321.333449 671.315185 32.58344c-74.802961-59.28941-152.558445-24.831921-184.950875 2.884258L43.639327 338.826726c-19.370605 12.868226-50.619571 39.253207-42.222798 71.321372 5.768515 22.032996 26.197249 34.423357 60.774206 36.846815 0.716798 0.068267 1.416528 0.085333 2.133326 0.085333l103.27007 0.136533 0 458.955331c0 64.989659 50.227039 117.82789 111.974042 117.82789l305.680089 0c9.028238 0 16.964213-3.993587 22.647395-10.120501 6.263447-5.734382 10.342367-13.789823 10.342367-22.954594L618.238022 718.183379l150.271519 0c17.169012 0 31.112433-14.011688 31.112433-31.266033s-13.943422-31.2831-31.112433-31.2831l-150.271519 0 0-69.000312 150.271519 0c17.169012 0 31.112433-14.011688 31.112433-31.266033 0-17.288478-13.943422-31.300167-31.112433-31.300167l-107.263657 0 111.240177-119.124952c11.741829-12.612227 11.093298-32.375363-1.433595-44.219591-12.509827-11.775962-32.23883-11.161564-43.963592 1.433595l-140.560617 150.595785-136.123297-151.602715c-11.502896-12.799959-31.163633-13.806889-43.946526-2.26986-12.765826 11.571163-13.772756 31.351367-2.26986 44.168392l108.663119 121.019346-107.075924 0c-17.169012 0-31.1295 14.011688-31.1295 31.300167 0 17.254345 13.943422 31.266033 31.1295 31.266033l150.254452 0 0 69.000312-150.254452 0c-17.169012 0-31.1295 14.028755-31.1295 31.2831s13.943422 31.266033 31.1295 31.266033l150.254452 0 0 243.284554L279.551105 961.467933c-27.443112 0-49.749174-24.814854-49.749174-55.295823L229.801932 420.91713c0-1.399463-0.631465-2.577059-0.80213-3.92532 0.034133-0.324266 0.204799-0.597331 0.204799-0.938664 0.034133-17.271412-13.875156-31.2831-31.078301-31.3343l-110.813512-0.1536L522.903927 86.104334c0.972797-0.665598 2.06506-1.535995 2.952524-2.303993 5.427183-4.642118 54.323026-44.356125 107.502589-1.638395 0.597331 0.443732 1.177596 0.870397 1.774927 1.314129l416.5448 288.852409c7.014378 5.137051 14.523687 11.861295 20.394602 17.971142-3.942387 0.187732-8.686905 0.324266-14.438354 0.170666l-99.03755 0.426666c-0.290132 0-0.511998 0.1536-0.80213 0.1536-0.307199 0-0.529065-0.1536-0.85333-0.1536-17.186078 0-31.112433 13.994622-31.112433 31.2831l0.170666 483.974984c0 30.480969-22.340196 55.295823-49.766241 55.295823l-158.122161 0c-17.169012 0-31.095367 13.977555-31.095367 31.266033 0 17.254345 13.926355 31.266033 31.095367 31.266033l158.122161 0c61.747002 0 111.991109-52.855298 111.991109-117.82789L988.122705 453.292493l69.000312-0.290132c19.59247 0.341332 71.83337 1.553062 84.923461-37.256414C1154.846437 377.755668 1113.954835 340.584587 1087.757586 321.333449" p-id="5032" fill="#fff"></path></svg>