<?xml version="1.0" standalone="no"?><!DOCTYPE svg PUBLIC "-//W3C//DTD SVG 1.1//EN" "http://www.w3.org/Graphics/SVG/1.1/DTD/svg11.dtd"><svg t="1524021215814" class="icon" style="" viewBox="0 0 1024 1024" version="1.1" xmlns="http://www.w3.org/2000/svg" p-id="13031" xmlns:xlink="http://www.w3.org/1999/xlink" width="200" height="200"><defs><style type="text/css"></style></defs><path d="M750.3 198.7C598 46.4 351.1 46.4 198.7 198.7s-152.3 399.2 0 551.5C345.1 896.6 578.8 902.3 732 767.3l172.1 172.1 35.4-35.4-172.1-171.9c135-153.2 129.3-387-17.1-533.4z m39.3 403.8c-17.1 42.1-42.2 80-74.7 112.4-32.5 32.5-70.3 57.6-112.4 74.7-40.7 16.5-83.8 24.9-128 24.9s-87.2-8.4-128-24.9c-42.1-17.1-80-42.2-112.4-74.7s-57.6-70.3-74.7-112.4c-16.5-40.7-24.9-83.8-24.9-128s8.4-87.2 24.9-128c17.1-42.1 42.2-80 74.7-112.4s70.3-57.6 112.4-74.7c40.7-16.5 83.8-24.9 128-24.9s87.2 8.4 128 24.9c42.1 17.1 80 42.2 112.4 74.7 32.5 32.5 57.6 70.3 74.7 112.4 16.5 40.7 24.9 83.8 24.9 128s-8.4 87.3-24.9 128z" fill="#dbdbdb" p-id="13032"></path></svg>