<?xml version="1.0" standalone="no"?><!DOCTYPE svg PUBLIC "-//W3C//DTD SVG 1.1//EN" "http://www.w3.org/Graphics/SVG/1.1/DTD/svg11.dtd"><svg t="1526372082746" class="icon" style="" viewBox="0 0 1024 1024" version="1.1" xmlns="http://www.w3.org/2000/svg" p-id="20994" xmlns:xlink="http://www.w3.org/1999/xlink" width="200" height="200"><defs><style type="text/css"></style></defs><path d="M628.8 539.4s4.9 0 0 0l179 174.1c10 10 29.9 10 39.8 0 10-10 10-29.9 0-39.8 0 0-174.1-169.1-179-174.1 14.9-14.9 263.5-278.5 263.5-278.5C947 246 957 270.9 957 300.6v422.7c0 84.5-64.6 149.2-149.2 149.2H216.2C131.6 872.5 67 807.9 67 723.3V300.7c0-29.9 10-54.7 19.9-74.5 0 0 258.6 258.6 278.5 273.5l-5 5-164.1 169c-10 10-10 29.9 0 39.8 10 10 29.9 10 39.8 0l169.1-174.1c54.7 49.8 84.5 74.5 114.3 74.5 29.8 0 59.6-29.7 109.3-74.5z" fill="#FFCA61" p-id="20995"></path><path d="M126.7 181.4c24.8-19.9 54.6-29.9 89.5-29.9h591.6c34.8 0 64.6 10 89.5 29.9 0 0-343 362.9-372.9 362.9-39.7 0-397.7-362.9-397.7-362.9z" fill="#FFE49B" p-id="20996"></path></svg>