<?xml version="1.0" encoding="utf-8"?>
<!-- Generator: Adobe Illustrator 16.0.0, SVG Export Plug-In . SVG Version: 6.00 Build 0)  -->
<!DOCTYPE svg PUBLIC "-//W3C//DTD SVG 1.1//EN" "http://www.w3.org/Graphics/SVG/1.1/DTD/svg11.dtd">
<svg version="1.1" id="图层_1" xmlns="http://www.w3.org/2000/svg" xmlns:xlink="http://www.w3.org/1999/xlink" x="0px" y="0px"
	 width="200px" height="200px" viewBox="0 0 200 200" enable-background="new 0 0 200 200" xml:space="preserve">
<path fill="#CDCDCD" d="M107.136,104.663c-3.933-2.601-9.605-2.601-13.539,0l-13.007,8.572l-64.817,42.86
	c2.394,7.613,10.916,12.947,20.682,12.943h127.929c9.727-0.035,18.192-5.36,20.574-12.943l-64.816-42.86L107.136,104.663z
	 M94.13,96.263c3.857-2.348,9.197-2.313,13.006,0.086l12.899,8.571l55.01-36.174l-63.965-37.12c-6.597-3.063-14.724-3.063-21.321,0
	l-63.964,37.12l55.436,36.089L94.13,96.263z M182.08,73.804l-55.223,35.231l58.847,39.002V83.319
	C185.692,79.929,184.433,76.617,182.08,73.804L182.08,73.804z M18.759,73.804c-2.352,2.813-3.613,6.125-3.624,9.515v64.718
	l58.847-39.002L18.759,73.804z"/>
</svg>
