<?xml version="1.0" standalone="no"?><!DOCTYPE svg PUBLIC "-//W3C//DTD SVG 1.1//EN" "http://www.w3.org/Graphics/SVG/1.1/DTD/svg11.dtd"><svg t="1505801152042" class="icon" style="" viewBox="0 0 1024 1024" version="1.1" xmlns="http://www.w3.org/2000/svg" p-id="2682" xmlns:xlink="http://www.w3.org/1999/xlink" width="64" height="64"><defs><style type="text/css"></style></defs><path d="M901.887513 836.287595l83.391895 83.391895a48.959939 48.959939 0 0 1 0.448 69.439914 48.959939 48.959939 0 0 1-69.375913-0.448L832.639599 904.959509l2.559997-2.431997a211.327736 211.327736 0 1 1 66.687917-66.303917zM959.99944 448.00008h-95.99988V127.61648a31.99996 31.99996 0 0 0-32.06396-31.61596H192.0004a32.06396 32.06396 0 0 0-32.06396 31.61596v768.76704a31.99996 31.99996 0 0 0 32.06396 31.61596H512V1023.99936H192.3844A128.06384 128.06384 0 0 1 64.00056 896.38352V127.61648A127.99984 127.99984 0 0 1 192.3844 0.00064h639.2312C902.527512 0.00064 959.99944 57.280568 959.99944 127.61648V448.00008zM256.00032 575.99992h191.99976v63.99992H256.00032V575.99992z m0-191.99976h511.99936v63.99992H256.00032V384.00016z m0-191.99976h511.99936v63.99992H256.00032V192.0004z m467.327416 675.327156a143.99982 143.99982 0 1 0 0-287.99964 143.99982 143.99982 0 0 0 0 287.99964z" fill="#F69B26" p-id="2683"></path></svg>
