<?xml version="1.0" encoding="utf-8"?>
<!-- Generator: Adobe Illustrator 16.0.0, SVG Export Plug-In . SVG Version: 6.00 Build 0)  -->
<!DOCTYPE svg PUBLIC "-//W3C//DTD SVG 1.1//EN" "http://www.w3.org/Graphics/SVG/1.1/DTD/svg11.dtd">
<svg version="1.1" id="图层_1" xmlns="http://www.w3.org/2000/svg" xmlns:xlink="http://www.w3.org/1999/xlink" x="0px" y="0px"
	 width="60px" height="60px" viewBox="0 0 60 60" enable-background="new 0 0 60 60" xml:space="preserve">
<g>
	<path fill="#B59C6B" d="M39.444,17.025l-10.668,10.67l-5.404-5.4l-7.098,7.127l-1.402-1.368l8.394-8.408l5.507,5.555l9.316-9.391
		l-2.561-2.584l6.59-0.034l0.063,6.599L39.444,17.025L39.444,17.025z M22.81,43.197h-7.464v-8.812l7.464-7.502V43.197L22.81,43.197z
		 M31.767,28.384v14.813h-7.464V26.884l4.479,4.5L31.767,28.384L31.767,28.384z M40.722,43.197h-7.464V27.916l7.464-7.502V43.197
		L40.722,43.197z M40.722,43.197"/>
	<path fill="#B59C6B" d="M30.136,60.273C13.519,60.273,0,46.755,0,30.137S13.519,0,30.136,0c16.618,0,30.137,13.52,30.137,30.137
		S46.754,60.273,30.136,60.273L30.136,60.273z M30.136,3.497c-14.689,0-26.639,11.95-26.639,26.64
		c0,14.689,11.95,26.64,26.639,26.64c14.689,0,26.639-11.951,26.639-26.64C56.774,15.447,44.825,3.497,30.136,3.497L30.136,3.497z
		 M30.136,3.497"/>
</g>
</svg>
