<?xml version="1.0" encoding="utf-8"?>
<!-- Generator: Adobe Illustrator 16.0.0, SVG Export Plug-In . SVG Version: 6.00 Build 0)  -->
<!DOCTYPE svg PUBLIC "-//W3C//DTD SVG 1.1//EN" "http://www.w3.org/Graphics/SVG/1.1/DTD/svg11.dtd">
<svg version="1.1" id="图层_1" xmlns="http://www.w3.org/2000/svg" xmlns:xlink="http://www.w3.org/1999/xlink" x="0px" y="0px"
	 width="60px" height="60px" viewBox="0 0 60 60" enable-background="new 0 0 60 60" xml:space="preserve">
<path fill="#B59C6B" d="M29.549,7.194l0.782,3.948l0.863-4.124c0,0,0-0.615,0.842-0.697l3.488-0.811l-3.737-0.933
	c0,0-0.575-0.041-0.633-0.812L30.39,0l-0.9,4.064c0,0-0.116,0.514-0.94,0.636l-3.487,0.737l3.387,0.852
	C28.448,6.282,29.374,6.188,29.549,7.194L29.549,7.194z M17.15,36.688c0,0,0.791,1.547,2.776,1.547h20.757
	c1.983,0,2.775-1.547,2.775-1.547c0.919-1.846-0.027-3.456-0.027-3.456l-5.257-10.385c0,0-0.836-1.725-2.619-1.725H24.974
	c0,0-1.75,0-2.526,1.725L17.176,33.24C17.176,33.24,16.229,34.843,17.15,36.688L17.15,36.688z M44.79,20.771l0.786,3.949
	l0.863-4.125c0,0,0-0.616,0.84-0.696l3.488-0.812l-3.735-0.933c0,0-0.576-0.04-0.633-0.811l-0.766-3.766l-0.9,4.07
	c0,0-0.117,0.514-0.939,0.635l-3.488,0.716l3.39,0.854C43.7,19.858,44.622,19.756,44.79,20.771L44.79,20.771z M59.23,54.676
	l-5.258-10.385c0,0-0.836-1.724-2.619-1.724H40.771c0,0-1.755,0-2.526,1.724l-5.256,10.385c0,0-0.948,1.611-0.028,3.449
	c0,0,0.791,1.55,2.775,1.55h20.759c1.982,0,2.775-1.55,2.775-1.55C60.184,56.287,59.23,54.676,59.23,54.676L59.23,54.676z
	 M22.297,44.291c0,0-0.837-1.724-2.62-1.724H9.097c0,0-1.75,0-2.528,1.724L1.312,55.665c0,0-0.947,1.611-0.026,3.448
	c0,0,0.791,0.562,2.776,0.562h20.756c1.986,0,2.776-1.55,2.776-1.55c0.921-1.846-0.026-3.449-0.026-3.449L22.297,44.291
	L22.297,44.291z M12.484,19.188l0.784,3.949l0.863-4.125c0,0,0-0.616,0.842-0.697l3.488-0.811l-3.735-0.934
	c0,0-0.575-0.04-0.634-0.811l-0.764-3.767l-0.902,4.063c0,0-0.117,0.514-0.939,0.636l-3.488,0.73l3.39,0.852
	C11.394,18.275,12.308,18.174,12.484,19.188L12.484,19.188z M13.473,26.109"/>
</svg>
