<?xml version="1.0" encoding="utf-8"?>
<!-- Generator: Adobe Illustrator 16.0.0, SVG Export Plug-In . SVG Version: 6.00 Build 0)  -->
<!DOCTYPE svg PUBLIC "-//W3C//DTD SVG 1.1//EN" "http://www.w3.org/Graphics/SVG/1.1/DTD/svg11.dtd">
<svg version="1.1" id="图层_1" xmlns="http://www.w3.org/2000/svg" xmlns:xlink="http://www.w3.org/1999/xlink" x="0px" y="0px"
	 width="64px" height="55px" viewBox="0 0 64 55" enable-background="new 0 0 64 55" xml:space="preserve">
<polygon fill="#0B0607" points="34.076,19.475 37.482,19.524 37.365,27.138 33.96,27.087 "/>
<path fill="#0B0607" d="M47.683,28.646c-0.752-0.255-2.762-0.532-4.514-1.417c-1.748-0.887-6.614-2.078-6.614-2.078l-10.098-0.015
	l-3.781,0.189c-1.15,1.09-4.072,2.768-5.715,3.236c-1.645,0.469-3.281,0.443-3.42,1.303s0.428,12.919,1.294,14.038
	c0.863,1.12,1.594,2.73,1.958,3.596s1.358,1.741,2.227,2.615c0.867,0.874,0.964,2.72,1.08,3.46c0.045,0.294,0.189,0.811,0.36,1.359
	H43.45c0.352-2.398,1.011-5.224,1.533-6.526c0.786-1.955,1.835-4.521,2.239-6.361C47.63,40.208,48.434,28.903,47.683,28.646z"/>
<path fill="#F9D9C3" d="M25.017,20.486c-0.037,2.315-0.221,6.944,0.749,9.934c0.969,2.99,2.954,5.995,4.202,5.572
	c1.248-0.422,7.49-9.81,5.981-14.572"/>
<linearGradient id="SVGID_1_" gradientUnits="userSpaceOnUse" x1="289.5781" y1="-360.1538" x2="297.8018" y2="-374.397" gradientTransform="matrix(0.9999 0.0151 0.0151 -0.9999 -257.2603 -345.4396)">
	<stop  offset="0.1348" style="stop-color:#E6B793"/>
	<stop  offset="1" style="stop-color:#F9D7BF"/>
</linearGradient>
<path opacity="0.54" fill="url(#SVGID_1_)" enable-background="new    " d="M35.128,21.565c0.078-0.007,0.082-0.004,0.014,0.007
	c-0.51,0.176-1.067,0.256-1.556,0.471c-0.551,0.243-0.877,0.683-1.188,1.171c-0.397,0.618-0.722,1.083-1.35,1.506
	c-0.336,0.227-1.295,0.502-1.446,0.833c0.613,0.876,1.676,0.813,2.606,0.646c0.513-0.09,0.964-0.231,1.438-0.445
	c0.358-0.163,0.919-0.687,1.275-0.705C34.8,26,34.023,26.892,33.383,27.578c-0.401,0.434-0.662,0.957-1.05,1.396
	c-0.435,0.491-0.562,0.896-0.79,1.273c-0.258,0.428,0.134,0.701-0.625,0.967c-0.802,0.282-0.732-0.059-1.324-0.558
	c-0.559-0.473-1.588-1.125-1.799-1.856c-0.32-1.105,0.375-1.141,0.963-1.976c0.205-0.291,0.521-0.568,0.672-0.859
	c0.1-0.189,0.03-0.362,0.212-0.54c0.121-0.118,0.33-0.156,0.467-0.261c0.505-0.391,0.209-0.565,0.1-1.019
	c-0.085-0.352,0.037-0.698-0.255-1.014c-0.288-0.312-0.724-0.393-1.013-0.744c-0.563-0.686-0.884-1.517-1.748-1.905
	c-0.679-0.304-2.146-0.662-2.183,0.394c-0.033,0.971-0.037,1.947-0.028,2.917c0.021,2.202,0.098,4.509,0.784,6.625
	c0.969,2.99,2.954,5.995,4.202,5.572c1.248-0.422,7.49-9.81,5.981-14.573"/>
<path fill="#F7F7F7" d="M27.104,45.464c0.712,1.526,2.856,7.546,3.538,9.469h0.275c0.282-1.997,1.385-7.952,1.745-9.195
	c0.412-1.424,2.252-12.93,2.252-12.93c0.77,0.585,4.854,1.406,4.854,1.406s-0.251-2.576-0.231-3.813
	c0.017-1.239-0.333-3.818-1.004-4.591c-0.67-0.773-2.653-5.09-2.653-5.09c0.612,1.331-0.091,3.567-0.531,4.852
	c-0.571,1.662-1.507,2.853-2.63,4.205c-0.378,0.453-0.865,0.817-1.352,1.152c-0.563,0.385-0.92,0.607-1.29,0.566
	c-0.297-0.031-0.602-0.229-1.028-0.644c-0.36-0.351-0.629-0.756-1.008-1.098c-1.091-0.973-1.571-2.344-2.076-3.658
	c-0.228-0.595-1.62-2.872-0.848-3.439c-0.002,0-0.889,0.655-1.974,1.399c-1.085,0.747-2.012,3.879-2.14,5.782
	c-0.126,1.903-0.273,5.143-0.273,5.143c1.856-0.163,4.513-1.649,4.513-1.649C25.131,34.188,26.253,43.641,27.104,45.464z"/>
<path fill="#D9D9D9" d="M22.768,29.157c0.139-0.777,0.692-2.456,1.465-2.814c0.675-0.313,1.376,0.178,1.991,0.429
	c-0.088-0.225-0.174-0.452-0.261-0.677c-0.215-0.563-1.476-2.639-0.947-3.335c-0.01-0.003-0.019-0.006-0.029-0.009
	c-0.283,0.206-1.004,0.727-1.845,1.306c-1.085,0.746-2.012,3.878-2.139,5.782c-0.127,1.903-0.274,5.144-0.274,5.144
	c0.424-0.039,0.89-0.146,1.358-0.288C22.47,32.871,22.439,30.997,22.768,29.157z"/>
<path fill="#D9D9D9" d="M34.891,26.657c1.138,1.147,3.086,1.936,4.617,2.931c-0.096-1.327-0.428-3.151-0.977-3.779
	c-0.504-0.581-1.748-3.166-2.337-4.412c-0.038,0.012-0.079,0.019-0.118,0.03c0.19,1.321-0.361,3.066-0.729,4.144
	C35.213,25.956,35.059,26.314,34.891,26.657z"/>
<g>
	<path fill="#D9D9D9" d="M25.19,33.36c0.013-0.008,0.025-0.013,0.034-0.018c0.006-0.004,0.017-0.012,0.017-0.012
		c-0.11,0.857,1.012,10.31,1.862,12.133c0.712,1.526,2.856,7.546,3.538,9.469h0.275c0.282-1.997,1.385-7.952,1.745-9.195
		c0.17-0.585,0.579-2.87,1.002-5.356c-0.181,0.34-0.354,0.67-0.487,0.979c-0.782,1.79-1.27,3.719-1.261,5.685
		c0.008,2.011-1.012,3.675-1.141,5.667c-0.218-0.936-0.961-1.698-1.244-2.613c-0.281-0.912-0.07-1.854-0.361-2.777
		c-0.543-1.722-1.061-3.465-1.585-5.202c-0.525-1.747-0.887-3.611-0.148-5.348c0.48-1.129,1.288-2.116,1.772-3.25
		c0.865-2.025-0.272-1.56-1.99-1.145c-1.764,0.427-3.122,1.58-4.771,2.201c1.254-0.429,2.434-1.05,2.725-1.207
		C25.178,33.366,25.185,33.363,25.19,33.36z"/>
	<path fill="#D9D9D9" d="M35.065,32.904c0.047,0.026,0.101,0.053,0.158,0.079c0.009,0.004,0.017,0.008,0.026,0.012
		c0.055,0.025,0.114,0.051,0.176,0.074c0.013,0.005,0.022,0.009,0.037,0.015c0.068,0.028,0.142,0.057,0.223,0.085
		c0.011,0.004,0.023,0.007,0.036,0.011c0.078,0.029,0.162,0.059,0.248,0.087c0.002,0,0.004,0.001,0.006,0.001
		c0.092,0.03,0.188,0.059,0.284,0.089c0.01,0.003,0.021,0.005,0.029,0.009c0.2,0.062,0.409,0.121,0.622,0.178
		c0.002,0.001,0.002,0.001,0.005,0.001c-0.308-0.214-0.651-0.403-1.104-0.574c-0.992-0.374-1.947-0.773-2.98-1.045
		c-0.63-0.166-2.127-0.516-2.614,0.07c0.186,0.413,0.529,0.689,0.755,1.078c0.244,0.418,0.299,0.948,0.618,1.352
		c0.616,0.778,1.508,1.104,2.272,1.668c0.182,0.136,0.328,0.28,0.442,0.433c0.346-2.098,0.604-3.718,0.604-3.718
		c0.036,0.026,0.079,0.053,0.123,0.079C35.045,32.894,35.053,32.897,35.065,32.904z"/>
</g>
<g>
	<path fill="#999999" d="M23.213,26.131c0.473-0.497,1.635-0.855,2.463-0.64c-0.451-0.915-1.164-2.393-0.562-2.835
		c-0.001,0.001-0.889,0.655-1.973,1.401c-0.816,0.562-1.542,2.47-1.907,4.194C22.103,27.881,22.655,26.718,23.213,26.131z"/>
	<path fill="#999999" d="M36.232,21.474c-0.056-0.035-0.109-0.069-0.165-0.105c0.191,1.176-0.226,2.705-0.587,3.799
		c1.141,0.242,2.421,0.743,3.428,1.332c-0.112-0.287-0.236-0.53-0.377-0.69C38.037,25.24,36.833,22.748,36.232,21.474z"/>
</g>
<path fill="#0B0607" d="M37.923,24.537c-0.078-0.21-0.179-0.409-0.234-0.628c0.056,1.281-0.701,2.591-1.85,3.163
	c-0.447,0.221-0.977,0.221-1.406,0.435c0.3-0.345,0.784-0.482,1.103-0.844c0.312-0.352,0.559-0.751,0.734-1.175
	c0.354-0.855,0.463-1.676,0.32-2.583c-0.065,1.293-0.589,2.036-1.509,2.878c0.918-0.664,1.625-3.059,1.156-4.102
	c-0.393-0.871-1.059-0.276-1.559,0.158c-0.473,0.411-0.739,1.113-1.321,1.396c-0.894,0.434-2.052-0.139-2.967-0.193
	c-0.256-0.016-0.525-0.014-0.814,0.011c-0.511,0.045-0.792,0.18-1.186,0.456c-0.434,0.304-0.454,0.087-0.899-0.023
	c-0.445-0.108-0.818,0.151-0.948,0.568c-0.295,0.959,0.739,1.551,1.387,1.98c-0.511,0.072-0.761-0.329-1.181-0.483
	c0.13,0.337,0.025,0.729-0.097,1.054c0.24-0.986-0.499-1.048-1.242-1.254c0.101,0.133,0.256,0.217,0.412,0.259
	c-0.95,0.038-1.744-1.076-2.252-1.74c-0.482-0.634-0.9-2.047-1.646-2.373c0.196,0.492,0.22,0.959,0.503,1.426
	c0.296,0.485,0.656,0.833,1.054,1.231c-0.881-0.03-1.576-1.384-1.974-2.021c-0.005-0.007-0.01-0.015-0.014-0.022
	c-0.545-0.87-0.559-1.756-0.908-2.665c-0.311-0.81-0.61-1.586-0.78-2.444c-0.354-1.79-0.321-3.654-0.022-5.452
	c0.576-3.458,2.174-7.096,4.998-9.289c1.684-1.309,3.776-2.132,5.913-2.132c0.647-0.001,0.956,0.086,1.542,0.31
	c0.548,0.211,1.059-0.039,1.612-0.019c0.542,0.02,1.141,0.278,1.626,0.516c1.229,0.601,2.348,1.294,2.969,2.539
	c0.595,1.194,1.516,2.106,1.942,3.419c0.787,2.433,1.08,5.824,0.594,8.31c-0.209,1.063-0.3,2.101-0.292,3.184
	c0.011,1.189-0.466,2.089-0.845,3.262c-0.345,1.061-0.971,2.027-1.927,2.628c0.462-0.478,0.763-1.729,0.609-2.369
	C38.243,22.764,37.571,23.604,37.923,24.537z"/>
<linearGradient id="SVGID_2_" gradientUnits="userSpaceOnUse" x1="-69.1445" y1="-591.9238" x2="-65.7983" y2="-591.9238" gradientTransform="matrix(0.7364 0.0529 0.0528 -0.7364 104.1721 -417.2697)">
	<stop  offset="0" style="stop-color:#FBE6D9"/>
	<stop  offset="1" style="stop-color:#F9DDCC"/>
</linearGradient>
<path fill="url(#SVGID_2_)" d="M24.321,17.14c-1.221,0.857-1.853-1.965-2.141-2.912c-0.173-0.556-0.136-1.136,0.557-1.35
	c0.757-0.238,1.445,0.637,1.76,1.166"/>
<linearGradient id="SVGID_3_" gradientUnits="userSpaceOnUse" x1="-41.4727" y1="-593.8086" x2="-61.8731" y2="-590.2555" gradientTransform="matrix(0.7358 0.0528 0.0526 -0.7364 99.7148 -418.1237)">
	<stop  offset="0" style="stop-color:#FBE6D9"/>
	<stop  offset="1" style="stop-color:#F9DDCC"/>
</linearGradient>
<path fill="url(#SVGID_3_)" d="M24.069,9.615c-0.353,1.185-0.393,3.563-0.151,6.307c0.241,2.746,0.25,4.435,2.221,6.521
	c1.975,2.088,2.198,3.273,4.623,3.399c2.425,0.127,3.801-2.287,4.535-3.232c0.731-0.943,1.922-2.071,2.304-4.253
	c0.383-2.181,1.449-8.86-0.293-11.062c-1.746-2.199-6.406-3.264-10.408-2.462C24.829,5.294,24.069,9.615,24.069,9.615z"/>
<path opacity="0.46" fill="#F5D1B7" enable-background="new    " d="M24.559,10.549c1.297-1.092,2.812-1.673,4.016-2.838
	c1.255-1.216,2.709-1.404,4.43-1.425c1.3-0.015,2.626,1.079,2.636,2.481c0.009,0.843-0.633,1.36-1.256,2.002
	c-1.036,1.067-3.518,2.12-5.054,1.254c0.03-0.133,0.067-0.221,0.105-0.336c-0.796,0.283-1.648,0.502-2.42,0.861
	c0.141-0.229,0.113-0.621,0.239-0.859c-0.059-0.049-0.114-0.102-0.166-0.156c-1.561,0.309-2.956,1.577-3.196,3.161
	c-0.051,0.341,0.183,0.716,0.121,1.045c-0.194,1.013-1.104,0.101-1.34-0.384c-0.285-0.592-0.632-1.495-0.327-2.117
	C22.802,12.312,23.767,11.219,24.559,10.549z"/>
<path fill="#F9D7BF" d="M28.932,21.057c-0.264-0.072-0.579-0.024-0.838-0.118c-0.28-0.103-0.665-0.89-0.955-0.454
	c-0.337,0.508,0.15,0.949,0.522,1.207c0.266,0.184,0.651,0.3,0.875,0.535c0.2,0.208,0.319,0.583,0.499,0.823
	c0.204,0.27,0.464,0.399,0.732,0.539c0.647,0.335,1.271,0.428,1.974,0.293c0.628-0.123,1.074-0.601,1.502-1.126
	c0.192-0.238,0.352-0.58,0.574-0.778c0.255-0.222,0.572-0.339,0.795-0.624c0.519-0.656-0.125-0.892-0.646-0.692
	c-0.479,0.185-0.928,0.414-1.401,0.55c-0.52,0.149-1.073,0.24-1.617,0.414c-0.552,0.171-1.061,0.168-1.598-0.003"/>
<path opacity="0.35" fill="#D94E5C" enable-background="new    " d="M28.394,21.155c-0.319-0.027-0.627-0.291-0.934-0.285
	c0.107,0.339,0.522,0.722,0.757,0.965c0.153,0.157,0.271,0.057,0.456,0.106c0.185,0.049,0.36,0.236,0.525,0.34
	c0.434,0.275,0.914,0.479,1.419,0.506c0.521,0.026,1.045-0.053,1.538-0.228c0.217-0.077,0.445-0.164,0.637-0.293
	c0.063-0.039,0.157-0.149,0.223-0.159c0.203-0.035,0.215,0.148,0.388-0.091c0.095-0.125,0.12-0.257,0.235-0.371
	c0.05-0.046,0.568-0.379,0.471-0.463c-0.111-0.098-0.479,0.172-1.256,0.279c-0.779,0.107-1.829,0.313-2.052,0.288
	C30.581,21.726,29.378,21.244,28.394,21.155z"/>
<path fill="#3F0D07" d="M28.088,21.164c0.609,0.521,1.785,1.322,2.571,1.367c0.786,0.046,1.998-0.378,2.676-1.015
	c0.151-0.113-0.196-0.087-0.674,0.054c-0.478,0.14-2.086,0.456-3.146-0.009C28.459,21.099,28.009,21.133,28.088,21.164z"/>
<linearGradient id="SVGID_4_" gradientUnits="userSpaceOnUse" x1="-45.8018" y1="-656.502" x2="-40.4277" y2="-656.502" gradientTransform="matrix(0.7373 0.0847 0.0637 -0.8281 104.2935 -518.1428)">
	<stop  offset="0" style="stop-color:#F4F3E8"/>
	<stop  offset="0.1874" style="stop-color:#F6F5EB"/>
	<stop  offset="0.3554" style="stop-color:#FCFBF6"/>
	<stop  offset="0.4719" style="stop-color:#FFFFFF"/>
	<stop  offset="1" style="stop-color:#F4F3E8"/>
</linearGradient>
<path fill="url(#SVGID_4_)" d="M28.735,21.23c0,0,0.164,0.597,0.373,0.607c0.211,0.01,0.211,0.01,0.211,0.01
	s0.119,0.238,0.642,0.202c0.036,0.07-0.021,0.419,0.833,0.28c0,0,0.616,0.2,0.763-0.085c0,0,0.592-0.013,0.621-0.208
	c0,0,0.366-0.051,0.451-0.212c0.08-0.16,0.078-0.281,0.078-0.281s-1.065,0.238-1.901,0.156
	C29.967,21.619,28.805,21.238,28.735,21.23z"/>
<path fill="#F7D3D5" d="M28.983,21.336c0,0,0.236,0.127,0.284,0.306c0,0,0.058-0.232,0.336-0.156
	c0.279,0.075,0.31,0.262,0.329,0.468c0,0-0.01-0.391,0.25-0.34c0.259,0.051,0.618,0.134,0.631,0.503c0,0-0.063-0.268,0.372-0.346
	c0.432-0.082,0.422,0.306,0.422,0.306s-0.056-0.329,0.275-0.399c0.331-0.073,0.327,0.229,0.327,0.229s0.021-0.278,0.229-0.362
	C32.438,21.544,31.781,21.924,28.983,21.336z"/>
<path opacity="0.19" fill="#FFFFFF" enable-background="new    " d="M30.034,22.862c0,0.326,0.701,0.281,0.876,0.271
	c0.31-0.016,0.725-0.212,1.026-0.116c0.023,0.351-0.537,0.438-0.741,0.552c0.008,0.182,0.65-0.152,0.772-0.235
	c0.117-0.081,0.253-0.194,0.271-0.346c0.055-0.458-1.057-0.063-1.297-0.03C30.615,23.004,30.343,22.858,30.034,22.862z"/>
<path opacity="0.33" fill="#F9D9C3" enable-background="new    " d="M37.32,16.099c0.307-0.652,0.636-1.805-0.037-2.262
	c-0.408-0.277-1.086-0.275-1.55-0.182c-1.311,0.261-2.361,0.91-3.104,2.212c-0.192,0.337-0.479,0.931-0.325,1.349
	c0.244,0.66,0.834-0.036,1.128-0.278c0.712-0.595,1.524-0.286,2.307-0.42c0.197-0.033,0.32-0.188,0.547-0.147
	c0.1,0.019-0.365,0.349-0.392,0.36c-0.187,0.08-0.558,0.043-0.71,0.193c-0.523,0.51,0.817,0.349,1.064,0.244
	C36.695,16.979,37.096,16.581,37.32,16.099z"/>
<path fill="#FBE5D5" d="M36.094,16.438c0.285-0.282,0.007-0.606-0.164-0.841c-0.228-0.324-0.583-0.472-0.956-0.493
	c-0.414-0.022-0.791,0.063-1.164,0.29c-0.265,0.161-0.784,0.382-0.821,0.788c-0.054,0.626,0.53,0.377,0.846,0.345
	c0.392-0.042,0.796,0.019,1.184,0.062C35.345,16.626,35.806,16.722,36.094,16.438z"/>
<path opacity="0.7" fill="#CA7956" enable-background="new    " d="M34.723,15.164c0.194-0.018,0.388-0.051,0.584-0.062
	c0.172-0.01,0.334,0.025,0.501,0.073c0.201,0.06,1.429,0.82,0.827,1.119c-0.108,0.053-0.258,0.025-0.374,0.032
	c-0.193,0.012-0.36,0.032-0.55,0.01c-0.219-0.027-0.456-0.082-0.677-0.069c-0.23,0.014-0.46,0.071-0.69,0.087"/>
<path opacity="0.18" fill="#155F98" enable-background="new    " d="M33.291,16.118c0.71-0.987,1.727-1.526,2.79-1.129
	c1.068,0.4,1.147,1.58-0.366,1.387"/>
<path fill="#ECCDCA" d="M33.471,15.963c-0.558,0.097,0.096,0.524,0.163,0.303c-0.085-0.106-0.211-0.13-0.119-0.296"/>
<path fill="#0B0607" d="M36.52,15.922c-0.09-0.046-0.158-0.114-0.18-0.197c-0.039-0.148,0.131-0.342,0.216-0.449
	c-0.104,0.13-0.159,0.278-0.354,0.25c-0.064-0.009-0.309-0.127-0.328-0.184c-0.038-0.1,0.147-0.291,0.208-0.354
	c-0.115,0.122-0.188,0.214-0.367,0.218c-0.082,0.004-0.369-0.017-0.421-0.056c-0.018-0.091,0.03-0.178,0.089-0.25
	c-0.131,0.305-0.544,0.17-0.814,0.254c-0.352,0.108-0.777,0.366-1.051,0.605c-0.132,0.115-0.211,0.265-0.276,0.419
	c0.588-0.637,1.264-0.916,2.139-0.8c0.35,0.047,0.514,0.308,0.761,0.512c0.237,0.194,0.477,0.187,0.76,0.093
	C36.795,16.008,36.64,15.985,36.52,15.922z"/>
<path fill="#0B0607" d="M34.8,16.362c0.097-0.008,0.193-0.023,0.288-0.042c0.099-0.02,0.231,0.016,0.336,0.014
	c0.161-0.006,0.278-0.013,0.411,0.067c0.034,0.02,0.069,0.045,0.104,0.069c-0.035-0.096-0.076-0.151-0.189-0.184
	c0.163,0.025,0.333,0.041,0.489,0.103c-0.079-0.05-0.162-0.118-0.255-0.138c0.095,0.008,0.244-0.021,0.282-0.115
	c-0.058-0.006-0.136,0.049-0.206,0.05c-0.135,0.001-0.265-0.026-0.396-0.021c-0.149,0.009-0.301,0.014-0.455,0.023
	c-0.269,0.017-0.538,0.041-0.805,0.063c-0.205,0.019-0.411,0.038-0.616,0.046c-0.092,0.003-0.237,0.026-0.321-0.02
	c0.222,0.119,0.5,0.115,0.745,0.113c0.233,0,0.479,0.006,0.707-0.05c0.259-0.063,0.519-0.124,0.776-0.186"/>
<path opacity="0.76" fill="#0B0607" enable-background="new    " d="M35.314,15.748c-0.064,0.314-0.351,0.521-0.632,0.465
	c-0.284-0.057-0.457-0.359-0.392-0.672c0.068-0.314,0.368-0.429,0.65-0.372C35.226,15.227,35.383,15.434,35.314,15.748z"/>
<path opacity="0.3" fill="#FFFFFF" enable-background="new    " d="M35.049,16.156c0.136-0.005,0.241-0.055,0.313-0.142
	c0.045-0.058,0.078-0.183-0.039-0.216c-0.117-0.036-0.184,0.118-0.258,0.155c-0.061,0.028-0.146,0.029-0.18,0.081
	c-0.04,0.057,0.005,0.093,0.076,0.112C34.986,16.156,35.021,16.158,35.049,16.156z"/>
<path opacity="0.5" fill="#FFFFFF" enable-background="new    " d="M34.723,15.643c-0.021,0.083-0.091,0.139-0.165,0.123
	c-0.073-0.015-0.115-0.093-0.098-0.176c0.018-0.082,0.09-0.137,0.162-0.124C34.693,15.48,34.736,15.56,34.723,15.643z"/>
<linearGradient id="SVGID_5_" gradientUnits="userSpaceOnUse" x1="92.5283" y1="-511.6636" x2="87.6787" y2="-511.6637" gradientTransform="matrix(0.9725 -0.0198 -0.0196 -0.9724 -62.3003 -482.3351)">
	<stop  offset="0" style="stop-color:#070001"/>
	<stop  offset="0.3784" style="stop-color:#070102"/>
	<stop  offset="0.5148" style="stop-color:#0A0606"/>
	<stop  offset="0.6119" style="stop-color:#12100F"/>
	<stop  offset="0.6905" style="stop-color:#211C19"/>
	<stop  offset="0.7579" style="stop-color:#352B26"/>
	<stop  offset="0.8176" style="stop-color:#4E3F38"/>
	<stop  offset="0.8715" style="stop-color:#6E5A50"/>
	<stop  offset="0.9211" style="stop-color:#977E72"/>
	<stop  offset="0.9652" style="stop-color:#C7AD9D"/>
	<stop  offset="1" style="stop-color:#F9DDCC"/>
</linearGradient>
<path opacity="0.2" fill="url(#SVGID_5_)" enable-background="new    " d="M33.83,13.354c-0.111,0.051-0.221,0.102-0.335,0.139
	c-0.188,0.063-0.572,0.166-0.476,0.479c0.077,0.235,0.413,0.072,0.576,0.043c0.225-0.04,0.445-0.018,0.663-0.045
	c0.228-0.028,0.438-0.153,0.661-0.201c0.383-0.079,0.794-0.166,1.184-0.213c0.374-0.045,0.765-0.171,1.125-0.001
	c0.106,0.051,0.184,0.083,0.301,0.106c0.274,0.055,0.2-0.126,0.078-0.312c-0.094-0.147-0.325-0.347-0.488-0.404
	c-0.249-0.089-0.421-0.192-0.688-0.175c-0.253,0.015-0.548,0.005-0.798,0.073c-0.212,0.057-0.379,0.213-0.606,0.215
	C34.6,13.061,34.223,13.171,33.83,13.354z"/>
<linearGradient id="SVGID_6_" gradientUnits="userSpaceOnUse" x1="92.1719" y1="-511.5439" x2="88.2422" y2="-511.544" gradientTransform="matrix(0.9725 -0.0198 -0.0196 -0.9724 -62.3003 -482.3351)">
	<stop  offset="0" style="stop-color:#070001"/>
	<stop  offset="0.3784" style="stop-color:#070102"/>
	<stop  offset="0.5148" style="stop-color:#0A0606"/>
	<stop  offset="0.6119" style="stop-color:#12100F"/>
	<stop  offset="0.6905" style="stop-color:#211C19"/>
	<stop  offset="0.7579" style="stop-color:#352B26"/>
	<stop  offset="0.8176" style="stop-color:#4E3F38"/>
	<stop  offset="0.8715" style="stop-color:#6E5A50"/>
	<stop  offset="0.9211" style="stop-color:#977E72"/>
	<stop  offset="0.9652" style="stop-color:#C7AD9D"/>
	<stop  offset="1" style="stop-color:#F9DDCC"/>
</linearGradient>
<path opacity="0.51" fill="url(#SVGID_6_)" enable-background="new    " d="M37.034,13.373c0.116,0.036,0.232,0.075,0.331,0.055
	c-0.022-0.158-0.232-0.302-0.348-0.393c-0.254-0.197-0.462-0.257-0.78-0.221c-0.249,0.029-0.493,0.107-0.739,0.145
	c-0.239,0.038-0.436,0.183-0.673,0.257c-0.268,0.083-0.54,0.125-0.806,0.207c-0.146,0.044-0.691,0.244-0.374,0.375
	c0.185,0.075,0.434-0.095,0.631-0.107c0.302-0.015,0.594-0.147,0.908-0.164c0.313-0.015,0.589-0.069,0.895-0.138
	c0.237-0.053,0.479-0.082,0.721-0.069C36.873,13.323,36.952,13.348,37.034,13.373z"/>
<linearGradient id="SVGID_7_" gradientUnits="userSpaceOnUse" x1="91.8018" y1="-511.4819" x2="88.7793" y2="-511.482" gradientTransform="matrix(0.9725 -0.0198 -0.0196 -0.9724 -62.3003 -482.3351)">
	<stop  offset="0" style="stop-color:#070001"/>
	<stop  offset="0.3784" style="stop-color:#070102"/>
	<stop  offset="0.5148" style="stop-color:#0A0606"/>
	<stop  offset="0.6119" style="stop-color:#12100F"/>
	<stop  offset="0.6905" style="stop-color:#211C19"/>
	<stop  offset="0.7579" style="stop-color:#352B26"/>
	<stop  offset="0.8176" style="stop-color:#4E3F38"/>
	<stop  offset="0.8715" style="stop-color:#6E5A50"/>
	<stop  offset="0.9211" style="stop-color:#977E72"/>
	<stop  offset="0.9652" style="stop-color:#C7AD9D"/>
	<stop  offset="1" style="stop-color:#F9DDCC"/>
</linearGradient>
<path fill="url(#SVGID_7_)" d="M37,13.169c0.019-0.213-0.635-0.266-0.763-0.259c-0.325,0.021-0.64,0.14-0.96,0.202
	c-0.204,0.038-0.405,0.077-0.599,0.169c-0.153,0.073-0.534,0.117-0.61,0.276c0.277,0.086,0.632-0.057,0.908-0.14
	c0.271-0.082,0.562-0.117,0.843-0.174c0.172-0.037,0.309,0.002,0.472-0.013c0.146-0.012,0.26-0.076,0.407-0.046
	C36.768,13.197,36.983,13.332,37,13.169z"/>
<path fill="#F9D9C3" d="M29.87,16.234c-0.363,0.733-1.855,0.927-2.182,0.224c0.218-0.26,0.502-0.019,0.748-0.226
	c-0.159-0.472-0.854-0.318-1.198-0.344c-0.437-0.029-0.832-0.129-1.231-0.235c-0.149-0.04-0.489-0.082-0.598-0.227
	c-0.186-0.248-0.056-0.251,0.091-0.455c0.49-0.667,1.146-0.993,1.864-1.014c0.792-0.023,2.049,0.66,2.467,1.483
	C29.984,15.747,29.977,16.013,29.87,16.234z"/>
<linearGradient id="SVGID_8_" gradientUnits="userSpaceOnUse" x1="109.2617" y1="-452.3306" x2="113.7402" y2="-452.3306" gradientTransform="matrix(0.9553 -0.1832 -0.1831 -0.9553 -161.6492 -398.2001)">
	<stop  offset="0" style="stop-color:#070001"/>
	<stop  offset="0.3784" style="stop-color:#070102"/>
	<stop  offset="0.5148" style="stop-color:#0A0606"/>
	<stop  offset="0.6119" style="stop-color:#12100F"/>
	<stop  offset="0.6905" style="stop-color:#211C19"/>
	<stop  offset="0.7579" style="stop-color:#352B26"/>
	<stop  offset="0.8176" style="stop-color:#4E3F38"/>
	<stop  offset="0.8715" style="stop-color:#6E5A50"/>
	<stop  offset="0.9211" style="stop-color:#977E72"/>
	<stop  offset="0.9652" style="stop-color:#C7AD9D"/>
	<stop  offset="1" style="stop-color:#F9DDCC"/>
</linearGradient>
<path opacity="0.2" fill="url(#SVGID_8_)" enable-background="new    " d="M29.229,13.398c0.101,0.054,0.204,0.105,0.311,0.147
	c0.177,0.069,0.544,0.19,0.419,0.46c-0.092,0.203-0.403,0.032-0.56-0.004c-0.215-0.052-0.428-0.048-0.64-0.088
	c-0.216-0.042-0.41-0.17-0.62-0.226c-0.367-0.101-0.756-0.207-1.13-0.28c-0.36-0.067-0.726-0.208-1.089-0.084
	c-0.107,0.036-0.185,0.059-0.301,0.069c-0.268,0.03-0.182-0.126-0.049-0.281c0.105-0.123,0.346-0.282,0.508-0.321
	c0.245-0.06,0.423-0.139,0.678-0.103c0.247,0.031,0.534,0.043,0.769,0.122c0.198,0.068,0.348,0.219,0.569,0.236
	C28.507,13.08,28.864,13.205,29.229,13.398z"/>
<linearGradient id="SVGID_9_" gradientUnits="userSpaceOnUse" x1="109.6455" y1="-452.1621" x2="113.2549" y2="-452.1621" gradientTransform="matrix(0.9553 -0.1832 -0.1831 -0.9553 -161.6492 -398.2001)">
	<stop  offset="0" style="stop-color:#070001"/>
	<stop  offset="0.3784" style="stop-color:#070102"/>
	<stop  offset="0.5148" style="stop-color:#0A0606"/>
	<stop  offset="0.6119" style="stop-color:#12100F"/>
	<stop  offset="0.6905" style="stop-color:#211C19"/>
	<stop  offset="0.7579" style="stop-color:#352B26"/>
	<stop  offset="0.8176" style="stop-color:#4E3F38"/>
	<stop  offset="0.8715" style="stop-color:#6E5A50"/>
	<stop  offset="0.9211" style="stop-color:#977E72"/>
	<stop  offset="0.9652" style="stop-color:#C7AD9D"/>
	<stop  offset="1" style="stop-color:#F9DDCC"/>
</linearGradient>
<path opacity="0.51" fill="url(#SVGID_9_)" enable-background="new    " d="M26.123,13.175c-0.116,0.024-0.232,0.048-0.325,0.024
	c0.035-0.137,0.251-0.25,0.373-0.321c0.259-0.155,0.465-0.195,0.771-0.138c0.238,0.044,0.467,0.13,0.705,0.183
	c0.227,0.051,0.406,0.195,0.627,0.277c0.253,0.093,0.516,0.149,0.763,0.242c0.142,0.053,0.648,0.27,0.335,0.36
	c-0.188,0.055-0.419-0.115-0.604-0.139c-0.293-0.036-0.564-0.176-0.866-0.213c-0.305-0.039-0.564-0.106-0.856-0.191
	c-0.223-0.063-0.458-0.106-0.69-0.116C26.285,13.144,26.203,13.159,26.123,13.175z"/>
<linearGradient id="SVGID_10_" gradientUnits="userSpaceOnUse" x1="110.0635" y1="-452.0483" x2="112.79" y2="-452.0483" gradientTransform="matrix(0.9553 -0.1832 -0.1831 -0.9553 -161.6492 -398.2001)">
	<stop  offset="0" style="stop-color:#070001"/>
	<stop  offset="0.3784" style="stop-color:#070102"/>
	<stop  offset="0.5148" style="stop-color:#0A0606"/>
	<stop  offset="0.6119" style="stop-color:#12100F"/>
	<stop  offset="0.6905" style="stop-color:#211C19"/>
	<stop  offset="0.7579" style="stop-color:#352B26"/>
	<stop  offset="0.8176" style="stop-color:#4E3F38"/>
	<stop  offset="0.8715" style="stop-color:#6E5A50"/>
	<stop  offset="0.9211" style="stop-color:#977E72"/>
	<stop  offset="0.9652" style="stop-color:#C7AD9D"/>
	<stop  offset="1" style="stop-color:#F9DDCC"/>
</linearGradient>
<path fill="url(#SVGID_10_)" d="M26.175,12.997c-0.001-0.19,0.634-0.19,0.758-0.173c0.316,0.043,0.61,0.174,0.915,0.252
	c0.193,0.047,0.386,0.098,0.563,0.19c0.143,0.075,0.508,0.146,0.571,0.293c-0.275,0.056-0.606-0.097-0.871-0.191
	c-0.255-0.095-0.533-0.145-0.802-0.219c-0.16-0.043-0.298-0.021-0.455-0.047c-0.137-0.02-0.245-0.085-0.389-0.071
	C26.395,13.038,26.175,13.142,26.175,12.997z"/>
<path fill="#F9D9C3" d="M29.838,18.312c-0.125,0.123-0.3,0.183-0.487,0.237c-0.511,0.144-0.133,0.77,0.213,0.837
	c0.359,0.072,0.937,0.049,0.864,0.573c0.039-0.277-0.649-0.117-0.776-0.125c-0.352-0.02-0.805-0.122-1.104-0.308
	c-0.379-0.231-0.457-0.329-0.438-0.772c0.029-0.678,0.888-0.597,1.276-0.837c0.119-0.071,0.293-0.429,0.455-0.398
	c0.248,0.049,0.202,0.436,0.132,0.596C29.939,18.196,29.892,18.259,29.838,18.312z"/>
<path fill="#FAE0CE" d="M28.46,18.829c0.045-0.019,0.086-0.036,0.12-0.046c0.181-0.058,0.512-0.039,0.66-0.133
	c0.079-0.051,0.161-0.177,0.151-0.276c-0.054-0.598-1.706-0.005-1.445,0.465C28.035,18.997,28.284,18.9,28.46,18.829z"/>
<path opacity="0.46" fill="#F5D1B7" enable-background="new    " d="M29.332,19.66c0.054,0.063,1.029,0.124,0.937,0.381
	c0.146-0.407-0.314-0.823-0.724-0.725C29.375,19.357,29.183,19.484,29.332,19.66z"/>
<path fill="#E0B599" d="M30.239,19.904c0.005-0.179-0.442-0.522-0.706-0.323c-0.194,0.146,0.188,0.143,0.303,0.161
	c0.16,0.027,0.292,0.092,0.431,0.151"/>
<path fill="#E0B599" d="M31.421,19.976c0.129-0.107,0.306-0.264,0.514-0.294c0.111-0.016,0.517,0.037,0.468,0.154
	c-0.021,0.056-0.141,0.06-0.199,0.066c-0.208,0.023-0.481-0.044-0.67,0.027"/>
<path fill="#FCEBE0" d="M31.278,18.06c0.02-0.252,0.033-0.507-0.051-0.75c-0.04-0.118-0.116-0.342-0.288-0.301
	c-0.214,0.049-0.162,0.549-0.186,0.727c-0.04,0.301-0.104,0.602-0.234,0.881c-0.115,0.253-0.145,0.884,0.179,1.023
	c0.13,0.055,0.434-0.025,0.541-0.113c0.235-0.194,0-0.817,0.007-1.082C31.25,18.317,31.265,18.188,31.278,18.06z"/>
<path fill="#FBE7DB" d="M27.425,17.594c0.276-0.043,0.969-0.108,0.929-0.549c-0.011-0.139-0.192-0.196-0.312-0.244
	c-0.561-0.22-1.493-0.272-1.821,0.322c-0.246,0.44,0.083,0.984,0.613,0.706C27.055,17.712,27.178,17.632,27.425,17.594z"/>
<path fill="#FCEBE0" d="M32.615,14.119c-0.126,0.197-0.347,0.359-0.608,0.395c-0.718,0.096-2.228-0.847-1.834-1.178
	c0.354-0.3,1.635-0.336,2.268,0.005C32.776,13.519,32.784,13.85,32.615,14.119z"/>
<path fill="#0B0607" d="M22.262,11.342c0.339,0.749,1.553,2.411,1.249,3.289c0.072-0.207,0.091-0.677,0.231-0.838
	c0.275-0.315,0.555-0.158,0.545,0.241c-0.01,0.412-0.823,1.359-1.089,1.67c0.549-0.384,0.988-0.898,1.539-1.279
	c0.268-0.183,0.482-0.293,0.699-0.516c0.2-0.204,0.297-0.457,0.556-0.614c-0.193,0.36-0.505,0.69-0.729,1.038
	c0.573-0.867,1.667-1.63,2.593-2.114c-0.311,0.376-0.583,0.511-1.166,1.031c0.835-0.429,1.731-1.25,2.682-1.365
	c-0.711,0.596-1.153,0.764-2.005,1.792c1.139-0.941,2.584-2.474,3.777-1.837c-0.666,0.596-1.876,0.95-2.752,1.104
	c1.224-0.17,1.569-0.256,2.285-0.506c0.542-0.188,1.046-0.511,1.577-0.728c0.444-0.179,0.923-0.429,1.184-0.861
	c-0.262,0.435-0.451,0.957-0.741,1.346c0.433-0.582,0.888-1.15,1.334-1.723c0.366-0.472,0.51-1.059,0.976-1.461
	c-0.206,1.449,0.693,2.812,1.437,3.977c-0.17-0.333-0.27-0.729-0.287-1.101c0.656,0.863,1.006,1.309,1.166,2.879
	c0.274-1.048-0.271-2.279-0.732-3.252c0.623,0.666,0.76,1.937,1.045,2.789c-0.021-0.44,0.023-0.904-0.095-1.33
	c0.522,0.884,0.58,1.835,0.771,2.819c-0.077-0.399,0.615-1.17,0.815-1.49c0.35-0.546,0.493-1.106,0.634-1.736
	c0.189-0.879,0.223-1.774,0.276-2.664c0.011-0.182,0.023-0.365,0.037-0.546c0.157-1.971-0.441-4-1.729-5.538
	c-0.752-0.9-1.721-1.768-2.857-2.086c-0.301-0.085-0.709-0.262-1.024-0.268c-0.441-0.008-0.823,0.281-1.284,0.216
	c-0.603-0.086-1.116-0.514-1.742-0.613c-0.773-0.125-1.591-0.056-2.364,0.028C24.532,1.589,20.256,6.909,22.262,11.342z"/>
<linearGradient id="SVGID_11_" gradientUnits="userSpaceOnUse" x1="93.1855" y1="-471.498" x2="94.1509" y2="-473.17" gradientTransform="matrix(0.9651 -0.1212 -0.1211 -0.9652 -124.5917 -430.2188)">
	<stop  offset="0.1348" style="stop-color:#E6B793"/>
	<stop  offset="1" style="stop-color:#F9D7BF"/>
</linearGradient>
<path opacity="0.53" fill="url(#SVGID_11_)" enable-background="new    " d="M23.496,15.051c0.457-0.778-0.754-2.23-1.059-1.285
	c-0.251,0.789,0.655,0.278,0.679,0.87c0.01,0.224-0.546,0.164-0.118,0.527C23.228,15.362,23.367,15.274,23.496,15.051z"/>
<linearGradient id="SVGID_12_" gradientUnits="userSpaceOnUse" x1="93.3887" y1="-471.4189" x2="94.0381" y2="-472.5438" gradientTransform="matrix(0.9651 -0.1212 -0.1211 -0.9652 -124.5917 -430.2188)">
	<stop  offset="0.1348" style="stop-color:#E6B793"/>
	<stop  offset="1" style="stop-color:#F9D7BF"/>
</linearGradient>
<path opacity="0.71" fill="url(#SVGID_12_)" enable-background="new    " d="M23.289,13.855c-0.09-0.33-0.383-0.579-0.699-0.317
	c-0.352,0.292,0.001,0.539,0.302,0.309c0.221,0.166,0.446,0.355,0.584,0.56c-0.033-0.333-0.146-0.701-0.429-0.907"/>
<path fill="#FBE5D5" d="M26.685,15.914c-0.252-0.313,0.063-0.602,0.257-0.819c0.266-0.296,0.637-0.401,1.009-0.383
	c0.412,0.024,0.779,0.151,1.124,0.417c0.245,0.19,0.732,0.468,0.722,0.873c-0.019,0.631-0.57,0.317-0.879,0.25
	c-0.383-0.083-0.793-0.068-1.182-0.068C27.406,16.183,26.939,16.226,26.685,15.914z"/>
<path opacity="0.7" fill="#CA7956" enable-background="new    " d="M28.197,14.799c-0.192-0.04-0.381-0.093-0.572-0.125
	c-0.172-0.03-0.339-0.014-0.507,0.015c-0.208,0.038-1.515,0.657-0.955,1.02c0.1,0.064,0.254,0.054,0.367,0.074
	c0.193,0.032,0.354,0.071,0.548,0.069c0.219-0.003,0.46-0.029,0.676,0.008c0.228,0.041,0.45,0.122,0.676,0.164"/>
<path opacity="0.18" fill="#155F98" enable-background="new    " d="M29.504,15.909c-0.589-1.062-1.536-1.711-2.64-1.435
	c-1.103,0.275-1.322,1.442,0.205,1.417"/>
<path fill="#ECCDCA" d="M29.344,15.731c0.543,0.161-0.157,0.514-0.197,0.285c0.097-0.097,0.226-0.105,0.155-0.28"/>
<path fill="#0B0607" d="M26.32,15.354c0.094-0.037,0.17-0.096,0.204-0.177c0.054-0.145-0.09-0.355-0.164-0.472
	c0.088,0.14,0.127,0.294,0.325,0.29c0.061-0.002,0.32-0.093,0.347-0.147c0.048-0.095-0.115-0.304-0.168-0.374
	c0.102,0.134,0.164,0.231,0.343,0.257c0.079,0.011,0.367,0.026,0.424-0.01c0.028-0.088-0.011-0.181-0.061-0.257
	c0.094,0.317,0.52,0.229,0.78,0.343c0.336,0.147,0.729,0.449,0.972,0.718c0.117,0.13,0.179,0.287,0.226,0.447
	c-0.509-0.699-1.147-1.05-2.031-1.031c-0.352,0.007-0.547,0.247-0.818,0.423c-0.257,0.166-0.493,0.131-0.765,0.005
	C26.037,15.408,26.193,15.403,26.32,15.354z"/>
<path fill="#0B0607" d="M27.978,15.983c-0.094-0.021-0.188-0.045-0.284-0.076c-0.095-0.03-0.231-0.011-0.333-0.025
	c-0.16-0.022-0.275-0.043-0.414,0.021c-0.04,0.017-0.077,0.038-0.114,0.061c0.047-0.093,0.094-0.144,0.209-0.165
	c-0.165,0.008-0.335,0.004-0.498,0.048c0.084-0.04,0.175-0.098,0.27-0.108c-0.096-0.002-0.241-0.049-0.267-0.146
	c0.058,0.003,0.129,0.063,0.2,0.073c0.13,0.016,0.262,0.003,0.392,0.024c0.151,0.024,0.301,0.046,0.451,0.073
	c0.264,0.046,0.529,0.101,0.794,0.153c0.201,0.041,0.402,0.082,0.605,0.114c0.09,0.013,0.231,0.05,0.321,0.015
	c-0.235,0.092-0.51,0.06-0.754,0.031c-0.231-0.028-0.478-0.051-0.696-0.131c-0.25-0.09-0.5-0.18-0.749-0.271"/>
<path opacity="0.76" fill="#0B0607" enable-background="new    " d="M27.539,15.313c0.028,0.32,0.287,0.558,0.572,0.534
	c0.288-0.026,0.496-0.305,0.467-0.624c-0.03-0.32-0.315-0.468-0.602-0.441C27.689,14.806,27.508,14.994,27.539,15.313z"/>
<path opacity="0.3" fill="#FFFFFF" enable-background="new    " d="M27.754,15.748c-0.133-0.02-0.233-0.08-0.293-0.175
	c-0.039-0.063-0.058-0.191,0.063-0.209c0.12-0.022,0.167,0.138,0.235,0.181c0.058,0.035,0.143,0.048,0.172,0.104
	c0.031,0.059-0.018,0.091-0.088,0.102C27.814,15.756,27.785,15.754,27.754,15.748z"/>
<path opacity="0.5" fill="#FFFFFF" enable-background="new    " d="M28.139,15.274c0.009,0.086,0.074,0.147,0.15,0.142
	c0.072-0.006,0.124-0.079,0.116-0.164c-0.007-0.084-0.072-0.148-0.146-0.142C28.185,15.117,28.133,15.19,28.139,15.274z"/>
<path fill="#363A40" d="M28.935,2.386c0.356-0.026,0.914-0.484,1.263-0.629c0.414-0.174,0.885-0.334,1.299-0.056
	c-0.82-0.418-1.771-0.141-2.651-0.037c-1.066,0.127-2.589,0.792-3.231,1.67c0.631-0.345,1.153-0.615,1.844-0.845
	c-0.873,0.292-1.137,0.996-1.754,1.572c-0.69,0.646-1.52,1.14-2.25,1.743c-0.743,0.61-0.757,1.385-1.232,2.137
	c0.392-1.148,1.394-2.217,2.412-2.878c1.101-0.713,2.44-0.306,3.564-0.933c-0.443,0.375-1.004,0.536-1.441,0.93
	c-0.374,0.337-0.65,0.885-1.117,1.108c0.699-0.791,1.798-1.14,2.771-1.458c1.121-0.367,2.165-0.694,3.347-0.781
	c-0.629-0.3-1.278-0.194-1.924-0.02c0.555-0.139,1.125-0.377,1.658-0.562c-0.819-0.399-1.815,0.025-2.665,0.056
	c0.541-0.019,1.103-0.376,1.636-0.499c-1.063-0.231-1.974,0.718-2.949,0.545c0.815-1.036,2.413-1.11,3.609-1.105
	C30.356,2.143,29.689,2.33,28.935,2.386z"/>
<path fill="#363A40" d="M32.304,7.097c0.146-0.112,0.162-0.365,0.176-0.557c0.043,1.37-1.484,2.471-2.517,3.137
	c-0.914,0.587-2.818,0.735-3.37,1.758c0.742-0.426,1.516-1.127,2.448-0.965c-0.402,0.177-0.824,0.229-1.217,0.448
	c-0.344,0.194-0.659,0.624-1.032,0.727c0.392-0.775,2.065-0.864,2.827-0.975c0.514-0.076,1.1-0.186,1.584-0.363
	c0.524-0.193,0.935-0.676,1.49-0.811c-0.43,0.695-1.392,0.949-2.04,1.362c0.491-0.027,1.111-0.323,1.492-0.617
	C32.498,9.97,33.5,9.139,33.438,8.69c-0.534,0.131-0.86,0.673-1.342,0.923c0.216-0.277,0.44-0.548,0.633-0.838
	C32.264,9.023,32,9.45,31.471,9.617c0.191-0.329,0.591-0.497,0.749-0.841c-0.247,0.098-0.494,0.239-0.65,0.455
	c0.697-0.315,1.236-1.503,1.159-2.227c-0.1,0.618-0.476,0.891-0.764,1.413c0.221-0.503,0.622-1.12,0.449-1.693"/>
<path fill="#363A40" d="M37.035,7.278c-0.122-0.588-0.925-1.328-0.778-1.96c-0.214,0.942,0.654,2.105,1.106,2.877
	c0.347,0.598,0.797,1.285,0.896,1.981c0.081,0.57-0.1,1.208-0.104,1.778c0.03-0.553,0.042-1.311,0.166-1.818
	c0.206,0.249,0.242,0.554,0.401,0.827c0.057-0.238,0.034-0.467,0.097-0.698c0.243,0.226,0.207,0.603,0.217,0.898
	c0.382-0.818,0.565-2.144,0.521-3.04c-0.05-1.028-0.278-2.353-0.879-3.211c0.34,0.768,0.529,1.785,0.493,2.631
	c-0.071-0.405-0.248-1.016-0.522-1.325c-0.114,0.388-0.012,0.793-0.118,1.177c-0.163-0.334-0.146-0.807-0.421-1.078
	c-0.183,0.331,0,0.7-0.17,1.018c-0.482-0.328-0.588-1.012-0.731-1.52C37.037,6.222,37.019,6.834,37.035,7.278z"/>
<path fill="#363A40" d="M28.245,7.798c0.743-0.223,1.01-0.383,1.103-1.133c-0.146,1.174-2.055,1.339-2.909,1.706
	c-0.975,0.422-2.59,1.121-2.552,2.409c0.383-0.127,0.521-0.502,0.792-0.754c0.372-0.345,0.892-0.598,1.403-0.65
	c-0.522,0.275-1.201,0.703-1.488,1.23c0.449-0.079,0.586-0.52,0.937-0.732c0.313-0.188,0.812-0.436,1.151-0.57
	c0.884-0.351,1.879-0.373,2.793-0.598c-0.468,0.005-0.899,0.132-1.354,0.179c-0.327,0.033-0.684-0.033-1.002,0.062
	c0.581-0.29,1.227-0.597,1.779-0.927c-0.536-0.19-1.856,0.245-2.426,0.388C27.068,8.333,27.666,7.971,28.245,7.798z"/>
<path fill="#363A40" d="M33.258,2.368c0.385,0.188,0.574,0.335,0.875,0.612c-0.393-0.071-0.651-0.036-1.039,0.034
	c0.282,0.084,0.581,0.255,0.709,0.525c-0.226-0.095-0.444-0.17-0.686-0.22c0.526,0.28,1.099,0.681,1.273,1.276
	c-0.071-0.216-0.222-0.396-0.277-0.617c0.214,0.154,0.386,0.294,0.557,0.494c0.08-0.117,0.034-0.276,0.008-0.424
	c0.279,0.024,0.509,0.191,0.693,0.389c-0.109-0.485-0.173-1.017-0.563-1.369C34.352,2.654,33.782,2.625,33.258,2.368z"/>
<path fill="#363A40" d="M38.758,15.475c0.57,0.349,0.271,2.084,0.234,2.658c-0.063,1.041-0.44,1.795-0.727,2.768
	c0.277-0.374,0.445-0.793,0.692-1.177c0.059,0.541-0.315,1.041-0.533,1.514c1.162-1.155,1.526-3.866,1.205-5.394
	c-0.015,0.639-0.176,1.222-0.282,1.843c0.025-0.374,0.099-0.769,0.017-1.127c-0.096,0.344-0.177,0.696-0.321,1.02
	c0.069-0.738-0.113-1.289-0.127-2.01"/>
<path fill="#363A40" d="M20.293,13.177c-0.017,0.713-0.239,1.416-0.126,2.129c0.119,0.756,0.603,1.339,0.791,2.055
	c-0.229-0.318-0.371-0.869-0.301-1.243c0.529,0.54,0.626,1.467,1.235,1.953c-0.061-0.697-0.517-1.406-0.641-2.122
	c-0.158-0.912-0.024-1.853-0.206-2.742c-0.107,0.635-0.353,1.282-0.393,1.922c0.081-0.43-0.051-0.862-0.012-1.295
	c-0.126,0.325-0.196,0.684-0.315,1.018c-0.229-0.54-0.12-1.268,0.215-1.742"/>
<path fill="#363A40" d="M23.799,20.785c-0.355,1.134-0.133,2.093,0.82,2.846c-0.272-0.208-0.39-0.573-0.522-0.893
	c0.164,0.38,0.499,0.712,0.871,0.875c-0.463-0.812-0.34-1.708-0.48-2.593c-0.352,0.193-0.508,0.647-0.528,1.042
	c0.018-0.274,0.056-0.544,0.02-0.808c-0.172,0.176-0.259,0.467-0.295,0.706c-0.194-0.288-0.168-0.885,0.109-1.093"/>
<path fill="#D9D9D9" d="M30.424,52.555c-0.013-2.629-1.205-5.217-0.774-7.837c0.251-1.521,0.397-2.93,0.315-4.457
	c-0.078-1.48-0.45-2.943-0.085-4.43c0.388,1.505,0.408,3.416,0.426,4.978c0.015,1.431,0.258,2.835,0.35,4.266
	c0.098,1.513-0.174,3.076,0.085,4.57c0.278,1.609,1.06,2.889-0.106,4.429c-0.902-0.092-0.017-1.501-0.324-2.078"/>
<path fill="#999999" d="M27.345,37.056c0.108-0.022-0.601-1.103-0.673-1.193c-0.294-0.366-0.48-0.268-0.364-0.833
	c0.179-0.875,1.28-1.438,1.704-2.191c-1.051,0.152-1.894,0.96-3.008,0.785c1.626-0.948,3.072-1.601,4.962-1.921
	c1.105-0.186,4.523-0.032,4.848,1.342c-1.029,0.092-3.15-1.098-2.443,0.703c0.306,0.779,0.901,1.263-0.341,1.215
	c-0.586-0.023-1.311-0.526-1.893-0.637c0.205,1.185,0.695,1.953-0.172,3.049c-0.222-0.406-0.422-1.22-1.027-1.274
	C28.401,36.047,27.938,36.94,27.345,37.056z"/>
<path fill="#B73322" d="M27.038,34.441c0.212-0.158,0.423-0.328,0.643-0.497c0.694-0.54,1.801-2.604,2.852-2.166
	c0.49,0.205,0.854,0.869,1.16,1.271c0.27,0.355,2.915,2.642,2.797,2.758c-0.344,0.338-2.491,3.463-2.172,3.747
	c-0.584-0.523-0.906-1.886-1.204-2.672c-0.388-1.017-0.813-1.973-0.944-3.07c-0.295,0.851-0.428,1.615-0.863,2.394
	c-0.143,0.252-1.788,3.358-1.656,3.444c-0.424-0.274-2.237-4.356-2.116-4.393C26.118,35.076,26.581,34.782,27.038,34.441z"/>
<g>
	<path fill="#600F13" d="M25.847,36.141c0.126,0.301,0.279,0.65,0.446,1.015c1.14-1.08,1.763-2.733,2.595-4.15
		C28.1,34.176,26.754,35.081,25.847,36.141z"/>
	<path fill="#600F13" d="M31.648,34.428c-0.204-0.619-0.717-1.648-1.028-2.602c-0.03-0.016-0.058-0.035-0.088-0.048
		c-0.014-0.006-0.027-0.006-0.041-0.012c0.354,1.012,0.363,2.189,0.644,3.209c0.174,0.633,0.461,1.349,0.86,1.885
		c0.31,0.413,0.727,0.702,0.995,1.105c0.077-0.125,0.156-0.251,0.236-0.377C32.874,36.583,31.825,34.965,31.648,34.428z"/>
	<path fill="#600F13" d="M30.155,33.857c0.005-0.724-0.021-1.445,0.105-2.133c-0.105-0.003-0.211,0.009-0.316,0.043
		c-0.69,2.527-1.7,4.869-2.747,7.218c0.195,0.353,0.358,0.602,0.453,0.664c-0.132-0.086,1.514-3.192,1.656-3.444
		C29.732,35.441,29.871,34.688,30.155,33.857z"/>
	<path fill="#600F13" d="M29.325,32.153c-0.078,0.21-0.174,0.41-0.286,0.604c0.179-0.291,0.372-0.567,0.579-0.824
		C29.52,31.996,29.421,32.068,29.325,32.153z"/>
	<path fill="#600F13" d="M28.888,33.005c0.054-0.082,0.103-0.166,0.151-0.248C28.989,32.838,28.937,32.92,28.888,33.005z"/>
</g>
<path fill="#999999" d="M30.081,37.106c0.466,0.861-0.003,2.826,0,3.828c0.005,1.367,0.059,2.757-0.024,4.119
	c-0.086,1.393-0.138,2.671,0.168,4.032c0.327,1.457,0.077,2.917,0.228,4.389c0.627-2.753-0.427-5.447-0.167-8.195
	c0.128-1.357,0.183-2.684,0.025-4.031c-0.078-0.663,0.02-1.234,0.008-1.877c-0.01-0.613-0.509-1.515-0.238-2.042"/>
<path fill="#999999" d="M30.641,54.933h0.275c0.252-1.786,1.161-6.74,1.608-8.655c-0.422,0.706-0.831,1.395-0.928,2.249
	c-0.118,1.033-0.137,1.705-0.573,2.679c-0.44,0.983-0.252,1.741-0.39,2.737c-1.205-2.772-2.022-5.772-3.072-8.661
	c-0.842-2.319-1.193-4.776-1.87-7.144c0.382,2.941,0.938,6.313,1.412,7.326C27.815,46.99,29.96,53.01,30.641,54.933z"/>
<g>
	<polygon fill="#EABF2A" points="42.79,42.945 37.488,43.245 37.386,41.521 42.689,41.219 	"/>
	<path fill="#EAD634" d="M39.723,41.704c0.258-0.135,0.536-0.251,0.815-0.362l-3.152,0.179l0.103,1.725l0.838-0.047
		C38.643,42.6,39.024,42.069,39.723,41.704z"/>
	<path fill="#EAD634" d="M41.61,43.013l1.18-0.067l-0.101-1.727l-0.456,0.025C42.79,41.723,42.263,42.43,41.61,43.013z"/>
	<path opacity="0.65" fill="#F7EBB8" enable-background="new    " d="M41.305,41.299l-3.919,0.222l0.007,0.109
		c0.426-0.021,0.821,0.005,1.245,0.356c0.435,0.363,0.579,0.735,0.586,1.163l2.024-0.116c-0.846-0.185-2.08-0.47-1.337-1.163
		C40.166,41.632,40.712,41.445,41.305,41.299z"/>
	<path opacity="0.65" fill="#BF8119" enable-background="new    " d="M42.689,41.219l-0.156,0.01
		c-0.193,0.32,0.217,0.962-0.205,1.191c-0.487,0.271-1.131,0.428-1.667,0.587c-0.75,0.226-2.07,0.106-2.83,0.221l4.959-0.282
		L42.689,41.219z"/>
</g>
<g>
	<path opacity="0.26" fill="#F1BAAE" enable-background="new    " d="M27.681,33.944c-0.219,0.169-0.43,0.339-0.643,0.497
		c-0.299,0.223-0.605,0.423-0.941,0.587c0.413,1.163,1.617,1.185,2.493,0.064c0.745-0.952,0.589-1.896,0.724-2.93
		C28.687,32.712,28.106,33.615,27.681,33.944z"/>
	<path opacity="0.26" fill="#F1BAAE" enable-background="new    " d="M33.844,35.211c0.023-0.019,0.043-0.041,0.066-0.06
		c-0.766-0.737-2.036-1.86-2.218-2.103c-0.306-0.401-0.67-1.065-1.16-1.271c-0.152-0.063-0.305-0.07-0.458-0.04
		c0.952,0.467,1.118,1.734,1.039,2.681C30.977,36.054,32.688,36.106,33.844,35.211z"/>
</g>
<g>
	<path opacity="0.79" fill="#831D20" enable-background="new    " d="M32.368,37.629c-0.555-0.276-1.107-1.444-1.517-1.949
		c-0.181-0.223-0.329-0.479-0.448-0.756c0.193,0.664,0.458,1.3,0.71,1.958c0.298,0.786,0.62,2.148,1.204,2.672
		c-0.159-0.142,0.291-0.98,0.824-1.831C32.877,37.758,32.615,37.752,32.368,37.629z"/>
	<path opacity="0.79" fill="#831D20" enable-background="new    " d="M30.116,33.975c-0.144-0.728-0.151-1.515-0.065-2.23
		c-0.016,0.003-0.033,0.006-0.048,0.012c-0.272,1.217-0.459,2.47-0.747,3.671c-0.32,1.339-1.589,2.132-2.867,1.938
		c0.492,1.06,1.05,2.146,1.262,2.285c-0.132-0.086,1.514-3.192,1.656-3.444C29.713,35.477,29.858,34.76,30.116,33.975z"/>
</g>
<path fill="#0B0607" d="M9.44,55c0.108-0.152,0.216-0.308,0.317-0.473c0.904-1.462,3.106-5.365,3.373-6.348
	c0.268-0.979,2.684-2.542,3.205-3.641c0.52-1.1-0.589-10.83-0.702-11.569c-0.115-0.74-1.329-3.71-1.329-3.71
	c-0.756,0.11-2.303,2.427-2.818,3.155c-0.514,0.73-0.783,1.712-1.306,3.057c-0.524,1.345-2.472,5.129-2.987,5.859
	c-0.515,0.729-1.795,2.063-1.808,2.924c-0.013,0.86-2.198,3.655-3.359,5.484c-0.784,1.235-1.528,3.589-2.088,5.214
	C3.103,55.003,6.273,54.959,9.44,55z"/>
<path fill="#0B0607" d="M58.083,54.929c2.181-1.118,3.961-1.978,0.201,0.002c0.056,0,0.11,0.002,0.164,0.002H64
	c-0.257-0.359-1.124-1.825-1.894-3.125c-0.221-0.229-0.356-0.489-0.46-0.779c-0.292-0.49-0.54-0.905-0.695-1.155
	c-0.613-0.992-2.564-5.081-3.306-6.075c-0.74-0.994-1.714-3.101-2.339-3.479c-0.624-0.378-0.978-1.858-1.842-2.856
	c-0.867-0.995-2.723-3.236-2.329-4.091c0.391-0.855-0.854-1.858-1.599-2.605c-0.742-0.75-1.345-2.481-1.854-2.121
	c0,0-2.325,11.773-1.975,13.623c0.348,1.851,1.724,2.607,2.221,2.861c0.501,0.254,1.117,1.123,1.6,2.484
	c0.482,1.359,2.213,3.475,3.075,4.719c0.67,0.962,1.108,1.921,1.444,2.594C55.391,54.897,56.737,54.909,58.083,54.929z"/>
<g>
	<path opacity="0.6" fill="#363A40" enable-background="new    " d="M13.578,32.661c0.102-0.054,0.197-0.108,0.269-0.166
		c-0.106-0.136-0.201-0.28-0.292-0.429C13.561,32.257,13.569,32.455,13.578,32.661z"/>
	<path opacity="0.6" fill="#363A40" enable-background="new    " d="M18.257,31.095c0.497-0.592,0.569-1.706,0.843-2.441
		c0.174-0.468,0.399-0.902,0.637-1.329c-0.998,0.551-2.022,1.023-2.778,1.237c-0.764,0.219-1.523,0.329-2.134,0.473
		c0.012,0.003,0.023,0.006,0.036,0.01C16.244,29.494,17.364,29.901,18.257,31.095z"/>
</g>
<path opacity="0.6" fill="#363A40" enable-background="new    " d="M1.732,54.972c1.269-1.91,1.296-4.178,2.467-6.089
	c0.603-0.984,1.422-1.818,2.158-2.706c0.579-0.699,1.585-1.35,2.016-2.096c-0.667-0.082-1.41,0.154-1.465-0.59
	c-0.044-0.594,0.945-1.286,1.286-1.628c1.117-1.123,1.414-2.382,2.198-3.67c0.377-0.618,2.554-2.681,2.471-3.223
	c-0.109-0.707-1.387-0.436-0.805-1.399c0.28-0.463,1.36-0.741,1.788-1.076c-0.445-0.578-0.732-1.252-1.017-1.919
	c-0.555,0.691-1.083,1.468-1.344,1.839c-0.515,0.73-0.783,1.711-1.306,3.056c-0.524,1.346-2.472,5.129-2.987,5.86
	c-0.515,0.729-1.795,2.062-1.808,2.923s-2.198,3.656-3.359,5.485c-0.784,1.233-1.528,3.589-2.088,5.213
	C0.536,54.961,1.134,54.968,1.732,54.972z"/>
<path opacity="0.6" fill="#363A40" enable-background="new    " d="M3.647,53.221c0.375,0.003,0.748,0.004,1.124,0.005
	c0.161-0.306,0.284-0.608,0.339-0.895C4.563,52.56,4.143,52.935,3.647,53.221z"/>
<g>
	<path opacity="0.6" fill="#363A40" enable-background="new    " d="M47.683,28.646c0,0-0.064,0.321-0.167,0.854l1.033,0.562
		c0.087-0.1,0.175-0.198,0.27-0.294C48.39,29.07,48.015,28.412,47.683,28.646z"/>
	<path opacity="0.6" fill="#363A40" enable-background="new    " d="M55.661,45.356c0.758,1.059,1.67,2.078,2.366,3.164
		c0.728,1.129,0.838,2.586,1.308,3.812c0.331,0.863,0.587,1.736,0.854,2.601H64c-0.257-0.358-1.124-1.825-1.894-3.125
		c-0.221-0.229-0.356-0.489-0.46-0.779c-0.292-0.49-0.54-0.905-0.695-1.155c-0.613-0.992-2.564-5.081-3.306-6.075
		c-0.74-0.994-1.716-3.101-2.339-3.479c-0.624-0.378-0.978-1.858-1.842-2.856c-0.867-0.995-2.723-3.236-2.329-4.091
		c0.391-0.855-0.854-1.858-1.599-2.605c-0.093-0.091-0.178-0.2-0.266-0.314l-0.723-0.392c-0.436,0.523-0.747,1.097-0.795,1.661
		c1.227,0.423,1.742,0.601,2.065,1.8c0.399,1.488,0.82,2.873,1.65,4.221c1.033,1.681,2.954,3.666,0.863,5.43
		c0.211,0.81,1.36,0.832,2.04,1.099C55.099,44.553,55.251,44.78,55.661,45.356z"/>
</g>
<g>
	<path opacity="0.6" fill="#363A40" enable-background="new    " d="M47.683,28.646c-0.104-0.035-0.232-0.068-0.38-0.107
		c-0.249,0.15-0.443,0.326-0.613,0.515l1.257,0.681C47.902,29.099,47.816,28.693,47.683,28.646z"/>
	<path opacity="0.6" fill="#363A40" enable-background="new    " d="M47.986,31.801c0.004-0.313,0.006-0.607,0.002-0.887
		c-0.128,0.269-0.21,0.539-0.234,0.808C47.835,31.748,47.911,31.773,47.986,31.801z"/>
	<path opacity="0.6" fill="#363A40" enable-background="new    " d="M41.328,30.117c0.816-0.314,1.303-0.498,2.163-0.184
		c0.998,0.367,1.34,1.294,2.155,0.429c0.431-0.45,0.681-0.913,1.043-1.31l-2.649-1.439c-0.294-0.115-0.585-0.242-0.871-0.385
		c-0.63-0.321-1.671-0.682-2.743-1.01C40.655,27.515,40.65,29.122,41.328,30.117z"/>
</g>
<path opacity="0.6" fill="#363A40" enable-background="new    " d="M20.458,54.933h4.176c0.189-0.404,0.659-0.693,1.022-0.956
	c-0.643-0.996-2.699-1.275-3.211-2.197c0.423-0.61,1.636-1.194,1.666-1.897c-1.123-0.404-2.364-0.329-3.535-0.567
	c-1.182-0.238-2.199-1.092-3.377-1.133c0.473,0.642,1.179,1.288,1.82,1.932c0.867,0.874,0.964,2.72,1.08,3.46
	C20.144,53.867,20.287,54.384,20.458,54.933z"/>
<path opacity="0.6" fill="#363A40" enable-background="new    " d="M34.76,54.933h8.69c0.352-2.398,1.009-5.224,1.533-6.526
	c0.151-0.376,0.312-0.776,0.475-1.186c-0.439,0.377-0.839,0.806-1.39,1.107c-0.934,0.511-1.873,0.973-2.757,1.568
	c-1.469,0.991-3.119,1.697-4.861,2.106c0.902-0.023,1.83-0.045,2.73,0.006c-0.999,0.654-1.95,1.353-2.933,2.027
	C35.778,54.357,35.272,54.647,34.76,54.933z"/>
</svg>
