<?xml version="1.0" encoding="utf-8"?>
<!-- Generator: Adobe Illustrator 16.0.0, SVG Export Plug-In . SVG Version: 6.00 Build 0)  -->
<!DOCTYPE svg PUBLIC "-//W3C//DTD SVG 1.1//EN" "http://www.w3.org/Graphics/SVG/1.1/DTD/svg11.dtd">
<svg version="1.1" id="图层_1" xmlns="http://www.w3.org/2000/svg" xmlns:xlink="http://www.w3.org/1999/xlink" x="0px" y="0px"
	 width="40px" height="30px" viewBox="0 0 40 30" enable-background="new 0 0 40 30" xml:space="preserve">
<g>
	<path fill="#4C4C4C" d="M40.115,30c-0.434-0.799-0.824-1.623-1.305-2.395c-1.677-2.709-3.984-4.717-6.869-6.062
		c-2.623-1.226-5.402-1.801-8.277-1.896c-1.363-0.045-2.734,0.055-4.1,0.092c-0.104,0.003-0.205,0.027-0.336,0.047
		c0,2.888,0,5.763,0,8.695C12.801,23.781,6.423,19.116,0,14.417c6.411-4.691,12.794-9.36,19.23-14.069c0,0.172,0,0.281,0,0.39
		c0,2.625,0.004,5.25-0.006,7.875c0,0.254,0.065,0.333,0.327,0.351c2.969,0.197,5.854,0.773,8.594,1.974
		c3.942,1.725,6.957,4.475,9.051,8.228c1.609,2.886,2.512,5.995,2.863,9.273c0.012,0.084,0.037,0.164,0.057,0.248
		C40.115,29.126,40.115,29.563,40.115,30z"/>
</g>
</svg>
