<?xml version="1.0" encoding="utf-8"?>
<!-- Generator: Adobe Illustrator 16.0.0, SVG Export Plug-In . SVG Version: 6.00 Build 0)  -->
<!DOCTYPE svg PUBLIC "-//W3C//DTD SVG 1.1//EN" "http://www.w3.org/Graphics/SVG/1.1/DTD/svg11.dtd">
<svg version="1.1" id="图层_1" xmlns="http://www.w3.org/2000/svg" xmlns:xlink="http://www.w3.org/1999/xlink" x="0px" y="0px"
	 width="64px" height="55px" viewBox="0 0 64 55" enable-background="new 0 0 64 55" xml:space="preserve">
<polygon fill="#0B0607" points="34.339,19.394 37.716,19.443 37.599,27.074 34.223,27.024 "/>
<path fill="#C3C2B9" d="M47.826,28.587c-0.745-0.257-2.737-0.535-4.474-1.421c-1.733-0.89-6.557-2.083-6.557-2.083l-10.009-0.015
	l-3.748,0.189c-1.141,1.093-4.037,2.775-5.665,3.245c-1.63,0.469-3.253,0.443-3.391,1.305c-0.138,0.862,0.425,12.949,1.282,14.07
	c0.856,1.122,1.58,2.735,1.941,3.604c0.36,0.869,1.346,1.746,2.207,2.622c0.859,0.876,0.956,2.727,1.07,3.467
	c0.045,0.295,0.188,0.813,0.357,1.363h22.79c0.35-2.404,1.002-5.236,1.521-6.541c0.779-1.961,1.818-4.532,2.22-6.376
	C47.773,40.174,48.569,28.844,47.826,28.587z"/>
<path fill="#C3C2B9" d="M25.359,20.407c-0.037,2.321-0.22,6.96,0.743,9.956c0.96,2.998,2.927,6.01,4.165,5.585
	c1.236-0.421,7.424-9.832,5.928-14.604"/>
<path opacity="0.54" fill="#C3C2B9" enable-background="new    " d="M35.381,21.489c0.078-0.007,0.082-0.004,0.014,0.007
	c-0.506,0.178-1.058,0.257-1.542,0.472c-0.546,0.244-0.869,0.685-1.178,1.174c-0.394,0.62-0.715,1.085-1.338,1.509
	c-0.333,0.228-1.284,0.503-1.433,0.835c0.607,0.878,1.661,0.814,2.583,0.647c0.508-0.09,0.955-0.232,1.426-0.447
	c0.355-0.163,0.911-0.688,1.264-0.706c-0.121,0.953-0.891,1.847-1.524,2.535c-0.398,0.434-0.657,0.958-1.041,1.4
	c-0.431,0.491-0.557,0.898-0.783,1.275c-0.256,0.429,0.132,0.702-0.62,0.97c-0.795,0.283-0.725-0.06-1.312-0.559
	c-0.555-0.475-1.575-1.128-1.784-1.861c-0.317-1.108,0.372-1.143,0.955-1.981c0.203-0.291,0.516-0.569,0.667-0.861
	c0.098-0.189,0.03-0.363,0.209-0.54c0.12-0.12,0.328-0.157,0.463-0.262c0.5-0.393,0.208-0.566,0.098-1.022
	c-0.083-0.352,0.037-0.699-0.252-1.016c-0.286-0.312-0.718-0.394-1.004-0.746c-0.557-0.687-0.876-1.52-1.733-1.909
	c-0.672-0.305-2.127-0.663-2.163,0.396c-0.033,0.974-0.037,1.951-0.028,2.924c0.021,2.208,0.098,4.519,0.778,6.64
	c0.96,2.998,2.927,6.01,4.165,5.585c1.236-0.422,7.424-9.832,5.928-14.605"/>
<path fill="#C3C2B9" d="M27.428,45.442c0.705,1.529,2.831,7.563,3.506,9.49h0.273c0.279-2.002,1.373-7.971,1.729-9.217
	c0.408-1.427,2.231-12.959,2.231-12.959c0.764,0.586,4.812,1.41,4.812,1.41s-0.248-2.582-0.229-3.823
	c0.018-1.242-0.33-3.826-0.995-4.601c-0.664-0.775-2.63-5.102-2.63-5.102c0.607,1.334-0.09,3.575-0.526,4.863
	c-0.566,1.666-1.494,2.859-2.607,4.214c-0.375,0.455-0.857,0.819-1.34,1.154c-0.558,0.387-0.912,0.609-1.278,0.568
	c-0.294-0.031-0.596-0.23-1.019-0.646c-0.357-0.352-0.624-0.758-1-1.099c-1.081-0.976-1.557-2.349-2.057-3.667
	c-0.226-0.596-1.606-2.878-0.841-3.446c-0.003,0-0.882,0.656-1.957,1.402c-1.076,0.749-1.994,3.888-2.121,5.795
	c-0.125,1.908-0.271,5.154-0.271,5.154c1.839-0.163,4.473-1.651,4.473-1.651C25.472,34.143,26.585,43.615,27.428,45.442z"/>
<path fill="#C3C2B9" d="M23.13,29.099c0.138-0.78,0.686-2.462,1.452-2.821c0.669-0.314,1.364,0.178,1.974,0.43
	c-0.087-0.226-0.173-0.453-0.258-0.678c-0.213-0.563-1.464-2.645-0.939-3.343c-0.01-0.003-0.019-0.006-0.029-0.01
	c-0.28,0.207-0.996,0.729-1.83,1.31c-1.076,0.747-1.994,3.886-2.12,5.794c-0.125,1.908-0.271,5.155-0.271,5.155
	c0.42-0.038,0.882-0.146,1.346-0.289C22.835,32.82,22.804,30.942,23.13,29.099z"/>
<path fill="#C3C2B9" d="M35.146,25.592c1.127,1.15,3.059,1.94,4.576,2.937c-0.094-1.33-0.425-3.157-0.968-3.787
	c-0.499-0.582-1.732-3.173-2.316-4.422c-0.037,0.012-0.078,0.019-0.117,0.03c0.189,1.324-0.358,3.073-0.723,4.153
	C35.465,24.89,35.313,25.249,35.146,25.592z"/>
<g>
	<path fill="#C3C2B9" d="M25.531,33.313c0.013-0.009,0.025-0.015,0.034-0.021c0.006-0.004,0.017-0.009,0.017-0.009
		c-0.109,0.859,1.004,10.332,1.847,12.159c0.705,1.529,2.831,7.563,3.506,9.49h0.273c0.279-2.002,1.373-7.971,1.729-9.217
		c0.168-0.584,0.573-2.876,0.993-5.369c-0.18,0.342-0.351,0.673-0.482,0.981c-0.776,1.794-1.259,3.728-1.25,5.699
		c0.008,2.013-1.003,3.682-1.13,5.678c-0.216-0.938-0.953-1.701-1.234-2.618c-0.278-0.915-0.069-1.859-0.358-2.784
		c-0.539-1.726-1.052-3.473-1.571-5.213c-0.521-1.752-0.88-3.619-0.146-5.362c0.476-1.13,1.276-2.12,1.756-3.257
		c0.857-2.029-0.27-1.563-1.973-1.146c-1.749,0.428-3.094,1.584-4.729,2.206c1.244-0.43,2.413-1.052,2.7-1.21
		C25.519,33.317,25.526,33.315,25.531,33.313z"/>
	<path fill="#C3C2B9" d="M35.32,32.854c0.046,0.027,0.099,0.053,0.156,0.079c0.009,0.004,0.016,0.007,0.026,0.011
		c0.054,0.025,0.112,0.051,0.174,0.075c0.013,0.005,0.022,0.009,0.036,0.015c0.068,0.029,0.141,0.057,0.221,0.085
		c0.012,0.004,0.023,0.008,0.036,0.012c0.078,0.028,0.161,0.058,0.246,0.086c0.002,0,0.004,0.001,0.006,0.001
		c0.091,0.03,0.186,0.061,0.282,0.09c0.009,0.004,0.02,0.006,0.028,0.009c0.199,0.062,0.405,0.121,0.617,0.179
		c0.002,0.001,0.002,0.001,0.004,0.001c-0.305-0.214-0.645-0.405-1.094-0.577c-0.982-0.374-1.93-0.774-2.954-1.046
		c-0.625-0.168-2.109-0.519-2.591,0.07c0.183,0.413,0.524,0.691,0.749,1.079c0.241,0.419,0.296,0.951,0.612,1.355
		c0.611,0.78,1.495,1.106,2.252,1.671c0.18,0.138,0.325,0.28,0.438,0.434c0.344-2.102,0.6-3.726,0.6-3.726
		c0.035,0.026,0.077,0.053,0.122,0.079C35.299,32.843,35.307,32.849,35.32,32.854z"/>
</g>
<g>
	<path fill="#C3C2B9" d="M23.572,26.065c0.469-0.498,1.621-0.857,2.441-0.641c-0.447-0.917-1.154-2.399-0.557-2.841
		c-0.002,0.001-0.882,0.656-1.956,1.404c-0.809,0.563-1.529,2.476-1.89,4.204C22.47,27.819,23.018,26.653,23.572,26.065z"/>
	<path fill="#C3C2B9" d="M36.477,21.397c-0.055-0.036-0.108-0.07-0.164-0.106c0.19,1.179-0.224,2.711-0.581,3.808
		c1.131,0.243,2.398,0.745,3.397,1.335c-0.111-0.288-0.235-0.531-0.374-0.692C38.265,25.172,37.071,22.675,36.477,21.397z"/>
</g>
<path fill="#C3C2B9" d="M38.152,24.467c-0.078-0.211-0.179-0.41-0.233-0.629c0.055,1.283-0.694,2.597-1.833,3.17
	c-0.443,0.22-0.968,0.22-1.394,0.435c0.297-0.345,0.777-0.482,1.093-0.845c0.309-0.353,0.554-0.753,0.728-1.178
	c0.353-0.857,0.459-1.68,0.318-2.589c-0.065,1.296-0.585,2.041-1.496,2.885c0.909-0.665,1.611-3.066,1.146-4.112
	c-0.39-0.872-1.05-0.276-1.545,0.159c-0.468,0.412-0.733,1.115-1.311,1.4c-0.885,0.434-2.033-0.139-2.941-0.194
	c-0.254-0.016-0.521-0.014-0.807,0.012c-0.506,0.045-0.785,0.18-1.175,0.456c-0.431,0.305-0.449,0.087-0.891-0.024
	c-0.441-0.108-0.811,0.151-0.94,0.57c-0.292,0.961,0.733,1.555,1.375,1.984c-0.506,0.072-0.753-0.33-1.17-0.484
	c0.129,0.338,0.024,0.731-0.096,1.056c0.238-0.988-0.494-1.051-1.231-1.257c0.1,0.133,0.254,0.218,0.409,0.26
	c-0.941,0.038-1.728-1.079-2.232-1.744c-0.478-0.635-0.892-2.051-1.631-2.378c0.194,0.492,0.218,0.961,0.499,1.429
	c0.292,0.486,0.649,0.834,1.044,1.234c-0.874-0.03-1.562-1.387-1.956-2.025c-0.006-0.007-0.011-0.015-0.014-0.023
	c-0.541-0.872-0.554-1.759-0.9-2.67c-0.308-0.811-0.605-1.59-0.773-2.449c-0.352-1.793-0.319-3.663-0.022-5.464
	c0.571-3.466,2.154-7.112,4.954-9.31c1.668-1.313,3.743-2.137,5.861-2.137c0.642-0.001,0.947,0.086,1.528,0.312
	c0.542,0.211,1.048-0.04,1.598-0.02c0.537,0.021,1.13,0.279,1.612,0.518c1.219,0.602,2.327,1.297,2.941,2.544
	c0.591,1.197,1.504,2.111,1.926,3.427c0.78,2.438,1.071,5.837,0.589,8.329c-0.207,1.064-0.297,2.104-0.289,3.191
	c0.011,1.192-0.462,2.094-0.838,3.27c-0.342,1.063-0.962,2.032-1.91,2.633c0.458-0.479,0.757-1.733,0.604-2.374
	C38.47,22.69,37.804,23.533,38.152,24.467z"/>
<path fill="#C3C2B9" d="M24.42,9.512c-0.351,1.188-0.39,3.571-0.15,6.322c0.239,2.751,0.248,4.445,2.202,6.536
	c1.957,2.092,2.178,3.281,4.583,3.406c2.403,0.128,3.767-2.292,4.494-3.239c0.726-0.946,1.906-2.076,2.285-4.263
	c0.379-2.185,1.436-8.88-0.291-11.085c-1.73-2.205-6.35-3.272-10.317-2.468C25.173,5.181,24.42,9.512,24.42,9.512z"/>
<path opacity="0.33" fill="#C3C2B9" enable-background="new    " d="M37.556,16.01c0.303-0.654,0.63-1.81-0.038-2.267
	c-0.403-0.278-1.076-0.275-1.535-0.182c-1.3,0.262-2.341,0.912-3.078,2.217c-0.19,0.338-0.475,0.933-0.323,1.352
	c0.242,0.662,0.828-0.035,1.118-0.279c0.707-0.596,1.512-0.286,2.287-0.421c0.195-0.033,0.317-0.188,0.542-0.147
	c0.099,0.02-0.361,0.35-0.388,0.361c-0.186,0.08-0.553,0.043-0.704,0.193c-0.52,0.512,0.81,0.35,1.055,0.244
	C36.935,16.893,37.332,16.493,37.556,16.01z"/>
<path fill="#C3C2B9" d="M30.138,18.229c-0.123,0.123-0.297,0.183-0.483,0.237c-0.506,0.144-0.131,0.772,0.211,0.839
	c0.356,0.072,0.929,0.049,0.856,0.576c0.039-0.279-0.644-0.118-0.77-0.126c-0.349-0.02-0.798-0.122-1.095-0.308
	c-0.376-0.232-0.452-0.331-0.434-0.774c0.029-0.679,0.88-0.598,1.265-0.838c0.118-0.072,0.291-0.43,0.451-0.399
	c0.245,0.049,0.2,0.437,0.131,0.598C30.239,18.112,30.191,18.176,30.138,18.229z"/>
<path fill="#C3C2B9" d="M28.772,18.746c0.045-0.019,0.085-0.036,0.119-0.045c0.18-0.059,0.508-0.04,0.655-0.134
	c0.079-0.051,0.159-0.177,0.149-0.276c-0.053-0.599-1.691-0.004-1.432,0.466C28.351,18.915,28.598,18.818,28.772,18.746z"/>
<path fill="#C3C2B9" d="M31.565,17.975c0.02-0.252,0.033-0.508-0.05-0.751c-0.039-0.118-0.115-0.342-0.285-0.302
	c-0.212,0.049-0.16,0.55-0.185,0.728c-0.039,0.301-0.103,0.604-0.232,0.883c-0.114,0.254-0.144,0.886,0.178,1.026
	c0.129,0.054,0.43-0.026,0.536-0.113c0.233-0.195,0-0.819,0.007-1.084C31.537,18.233,31.553,18.104,31.565,17.975z"/>
<path opacity="0.5" fill="#C3C2B9" enable-background="new    " d="M28.454,15.184c0.009,0.087,0.073,0.148,0.148,0.142
	c0.072-0.006,0.124-0.079,0.115-0.165c-0.007-0.084-0.071-0.147-0.145-0.142C28.499,15.026,28.448,15.1,28.454,15.184z"/>
<path fill="#C3C2B9" d="M30.719,52.549c-0.013-2.635-1.194-5.229-0.768-7.854c0.249-1.525,0.394-2.937,0.313-4.468
	c-0.077-1.483-0.447-2.949-0.085-4.439c0.385,1.509,0.405,3.424,0.423,4.988c0.015,1.435,0.255,2.843,0.347,4.275
	c0.097,1.518-0.173,3.085,0.084,4.582c0.276,1.612,1.05,2.895-0.105,4.438c-0.894-0.092-0.017-1.504-0.322-2.083"/>
<path fill="#C3C2B9" d="M27.667,37.015c0.107-0.021-0.595-1.104-0.667-1.196c-0.291-0.366-0.477-0.269-0.361-0.835
	c0.178-0.876,1.268-1.44,1.688-2.196c-1.042,0.152-1.877,0.962-2.981,0.786c1.612-0.949,3.044-1.604,4.918-1.924
	c1.095-0.187,4.483-0.032,4.806,1.344c-1.021,0.093-3.123-1.1-2.423,0.705c0.304,0.781,0.894,1.267-0.338,1.218
	c-0.581-0.023-1.299-0.526-1.876-0.638c0.203,1.188,0.689,1.958-0.171,3.056c-0.22-0.407-0.418-1.223-1.018-1.278
	C28.713,36.003,28.254,36.9,27.667,37.015z"/>
<path fill="#C3C2B9" d="M27.362,34.395c0.211-0.158,0.42-0.328,0.637-0.498c0.688-0.541,1.786-2.61,2.826-2.171
	c0.486,0.205,0.847,0.871,1.15,1.273c0.267,0.356,2.889,2.648,2.772,2.764c-0.34,0.339-2.468,3.471-2.153,3.755
	c-0.579-0.523-0.897-1.889-1.193-2.678c-0.384-1.019-0.806-1.978-0.936-3.076c-0.292,0.853-0.424,1.619-0.855,2.398
	c-0.141,0.253-1.772,3.366-1.641,3.452c-0.421-0.276-2.217-4.365-2.098-4.401C26.45,35.032,26.91,34.736,27.362,34.395z"/>
<g>
	<path fill="#C3C2B9" d="M26.182,36.098c0.125,0.302,0.277,0.653,0.442,1.018c1.129-1.083,1.747-2.74,2.572-4.16
		C28.415,34.128,27.081,35.036,26.182,36.098z"/>
	<path fill="#C3C2B9" d="M31.932,34.381c-0.202-0.62-0.71-1.652-1.019-2.606c-0.03-0.017-0.058-0.036-0.088-0.049
		c-0.013-0.006-0.027-0.006-0.04-0.012c0.352,1.014,0.36,2.193,0.638,3.217c0.172,0.634,0.457,1.351,0.853,1.889
		c0.307,0.414,0.721,0.702,0.986,1.108c0.075-0.127,0.154-0.252,0.233-0.378C33.146,36.541,32.107,34.92,31.932,34.381z"/>
	<path fill="#C3C2B9" d="M30.452,33.81c0.006-0.726-0.021-1.449,0.105-2.138c-0.105-0.003-0.209,0.008-0.313,0.043
		c-0.684,2.533-1.685,4.88-2.722,7.234c0.194,0.353,0.355,0.602,0.449,0.665c-0.131-0.086,1.5-3.199,1.641-3.452
		C30.034,35.396,30.171,34.642,30.452,33.81z"/>
	<path fill="#C3C2B9" d="M29.629,32.102c-0.077,0.21-0.172,0.41-0.283,0.604c0.178-0.292,0.368-0.569,0.574-0.826
		C29.822,31.944,29.725,32.017,29.629,32.102z"/>
	<path fill="#C3C2B9" d="M29.196,32.955c0.054-0.082,0.102-0.167,0.15-0.249C29.296,32.787,29.245,32.869,29.196,32.955z"/>
</g>
<path fill="#C3C2B9" d="M30.379,37.065c0.461,0.864-0.004,2.832,0,3.837c0.004,1.37,0.057,2.764-0.025,4.129
	c-0.085,1.395-0.136,2.679,0.167,4.041c0.324,1.461,0.076,2.924,0.226,4.4c0.622-2.76-0.423-5.462-0.166-8.216
	c0.127-1.36,0.181-2.689,0.025-4.04c-0.077-0.664,0.021-1.237,0.009-1.882c-0.011-0.614-0.504-1.518-0.235-2.046"/>
<path fill="#C3C2B9" d="M30.934,54.933h0.273c0.25-1.79,1.151-6.756,1.594-8.675c-0.418,0.707-0.824,1.397-0.92,2.253
	c-0.117,1.036-0.136,1.71-0.568,2.686c-0.436,0.985-0.25,1.745-0.386,2.744c-1.194-2.779-2.005-5.786-3.045-8.681
	c-0.835-2.325-1.183-4.788-1.854-7.161c0.379,2.95,0.931,6.328,1.399,7.344C28.133,46.972,30.258,53.005,30.934,54.933z"/>
<g>
	<path opacity="0.26" fill="#C3C2B9" enable-background="new    " d="M28,33.896c-0.217,0.17-0.426,0.34-0.637,0.498
		c-0.296,0.224-0.599,0.425-0.933,0.588c0.41,1.166,1.603,1.188,2.471,0.065c0.738-0.954,0.584-1.9,0.718-2.938
		C28.997,32.661,28.422,33.566,28,33.896z"/>
	<path opacity="0.26" fill="#C3C2B9" enable-background="new    " d="M34.109,35.166c0.022-0.02,0.042-0.041,0.064-0.06
		c-0.758-0.74-2.017-1.865-2.198-2.107c-0.303-0.402-0.664-1.068-1.15-1.273c-0.151-0.063-0.302-0.071-0.454-0.04
		c0.943,0.467,1.108,1.737,1.03,2.687C31.266,36.011,32.963,36.063,34.109,35.166z"/>
</g>
<g>
	<path opacity="0.79" fill="#C3C2B9" enable-background="new    " d="M32.646,37.588c-0.55-0.275-1.098-1.446-1.504-1.952
		c-0.179-0.224-0.325-0.479-0.444-0.758c0.192,0.666,0.456,1.303,0.704,1.962c0.296,0.789,0.615,2.154,1.193,2.678
		c-0.158-0.141,0.289-0.981,0.817-1.834C33.15,37.719,32.891,37.713,32.646,37.588z"/>
	<path opacity="0.79" fill="#C3C2B9" enable-background="new    " d="M30.414,33.928c-0.143-0.73-0.15-1.52-0.064-2.236
		c-0.016,0.003-0.033,0.006-0.048,0.012c-0.269,1.219-0.455,2.475-0.74,3.68c-0.317,1.341-1.575,2.136-2.842,1.941
		c0.488,1.063,1.041,2.152,1.251,2.29c-0.131-0.086,1.5-3.199,1.641-3.452C30.014,35.433,30.158,34.713,30.414,33.928z"/>
</g>
<path fill="#C3C2B9" d="M9.919,55c0.107-0.152,0.214-0.309,0.314-0.475c0.896-1.465,3.079-5.377,3.343-6.36
	c0.265-0.981,2.66-2.549,3.176-3.649c0.515-1.102-0.583-10.854-0.696-11.597c-0.114-0.741-1.317-3.717-1.317-3.717
	c-0.75,0.11-2.283,2.432-2.793,3.161c-0.51,0.733-0.776,1.716-1.294,3.065c-0.52,1.347-2.45,5.139-2.961,5.871
	c-0.51,0.731-1.779,2.067-1.792,2.931c-0.014,0.863-2.179,3.664-3.33,5.496c-0.777,1.238-1.514,3.599-2.07,5.227
	C3.637,55.003,6.78,54.958,9.919,55z"/>
<path fill="#C3C2B9" d="M58.136,54.929c2.16-1.121,3.925-1.982,0.199,0.002c0.055,0,0.108,0.002,0.162,0.002H64
	c-0.255-0.36-1.114-1.829-1.877-3.134c-0.219-0.227-0.353-0.489-0.455-0.779c-0.29-0.491-0.536-0.907-0.689-1.158
	c-0.608-0.995-2.542-5.093-3.277-6.088c-0.733-0.999-1.698-3.108-2.318-3.487c-0.618-0.378-0.968-1.863-1.825-2.862
	c-0.859-0.998-2.699-3.245-2.31-4.103c0.388-0.857-0.847-1.86-1.583-2.611c-0.737-0.751-1.334-2.485-1.839-2.123
	c0,0-2.305,11.799-1.958,13.652c0.346,1.855,1.709,2.614,2.202,2.867c0.496,0.256,1.106,1.126,1.585,2.491
	c0.479,1.363,2.194,3.482,3.049,4.729c0.663,0.965,1.099,1.925,1.432,2.6C55.467,54.897,56.801,54.908,58.136,54.929z"/>
<g>
	<path opacity="0.6" fill="#C3C2B9" enable-background="new    " d="M14.02,32.61c0.101-0.054,0.195-0.108,0.267-0.166
		c-0.105-0.137-0.199-0.282-0.289-0.43C14.003,32.206,14.011,32.403,14.02,32.61z"/>
	<path opacity="0.6" fill="#C3C2B9" enable-background="new    " d="M18.659,31.04c0.493-0.593,0.564-1.71,0.835-2.447
		c0.172-0.467,0.396-0.903,0.632-1.331c-0.989,0.553-2.004,1.025-2.753,1.24c-0.757,0.219-1.51,0.329-2.116,0.473
		c0.012,0.003,0.023,0.008,0.036,0.012C16.663,29.437,17.773,29.846,18.659,31.04z"/>
</g>
<path opacity="0.6" fill="#C3C2B9" enable-background="new    " d="M2.278,54.972c1.258-1.916,1.285-4.188,2.446-6.104
	c0.598-0.986,1.41-1.822,2.139-2.712c0.574-0.701,1.572-1.352,1.999-2.099c-0.661-0.083-1.398,0.153-1.453-0.592
	c-0.044-0.596,0.937-1.289,1.275-1.633c1.107-1.126,1.401-2.387,2.179-3.678c0.373-0.62,2.532-2.688,2.449-3.229
	c-0.108-0.71-1.374-0.438-0.797-1.403c0.277-0.464,1.348-0.743,1.772-1.078c-0.441-0.579-0.726-1.255-1.008-1.923
	c-0.55,0.692-1.072,1.472-1.332,1.842c-0.511,0.733-0.776,1.715-1.294,3.064c-0.52,1.348-2.45,5.139-2.961,5.872
	c-0.51,0.731-1.779,2.066-1.792,2.93c-0.014,0.864-2.179,3.665-3.33,5.497c-0.777,1.237-1.514,3.599-2.07,5.226
	C1.093,54.96,1.686,54.968,2.278,54.972z"/>
<path opacity="0.6" fill="#C3C2B9" enable-background="new    " d="M2.279,54.972c0.397,0.003,0.794,0.005,1.192,0.006
	c0.17-0.317,0.301-0.629,0.359-0.925C3.251,54.289,2.805,54.676,2.279,54.972z"/>
<g>
	<path opacity="0.6" fill="#C3C2B9" enable-background="new    " d="M47.826,28.587c0,0-0.063,0.321-0.166,0.854l1.024,0.562
		c0.086-0.099,0.173-0.198,0.268-0.294C48.527,29.012,48.155,28.351,47.826,28.587z"/>
	<path opacity="0.6" fill="#C3C2B9" enable-background="new    " d="M55.734,45.335c0.751,1.06,1.656,2.082,2.347,3.171
		c0.721,1.133,0.829,2.592,1.296,3.82c0.327,0.864,0.581,1.739,0.846,2.606H64c-0.255-0.359-1.114-1.829-1.877-3.134
		c-0.219-0.227-0.353-0.489-0.455-0.779c-0.29-0.491-0.536-0.907-0.689-1.158c-0.608-0.995-2.542-5.093-3.277-6.088
		c-0.733-0.999-1.7-3.108-2.318-3.487c-0.618-0.378-0.968-1.863-1.825-2.862c-0.859-0.998-2.699-3.245-2.31-4.103
		c0.388-0.857-0.847-1.86-1.583-2.611c-0.093-0.09-0.178-0.199-0.265-0.313l-0.716-0.394c-0.432,0.524-0.741,1.101-0.787,1.666
		c1.215,0.424,1.726,0.603,2.047,1.803c0.396,1.493,0.813,2.881,1.636,4.231c1.023,1.684,2.928,3.674,0.855,5.441
		c0.209,0.812,1.348,0.834,2.022,1.1C55.178,44.528,55.327,44.757,55.734,45.335z"/>
</g>
<g>
	<path opacity="0.6" fill="#C3C2B9" enable-background="new    " d="M47.826,28.587c-0.104-0.035-0.23-0.07-0.377-0.108
		c-0.246,0.15-0.439,0.327-0.607,0.514l1.246,0.684C48.043,29.04,47.959,28.634,47.826,28.587z"/>
	<path opacity="0.6" fill="#C3C2B9" enable-background="new    " d="M48.126,31.748c0.004-0.313,0.007-0.609,0.002-0.889
		c-0.126,0.269-0.207,0.54-0.23,0.81C47.977,31.695,48.053,31.721,48.126,31.748z"/>
	<path opacity="0.6" fill="#C3C2B9" enable-background="new    " d="M41.528,30.062c0.808-0.316,1.291-0.5,2.144-0.184
		c0.988,0.367,1.328,1.294,2.137,0.43c0.426-0.454,0.674-0.917,1.033-1.315l-2.627-1.442c-0.29-0.115-0.579-0.242-0.862-0.385
		c-0.625-0.322-1.657-0.684-2.72-1.013C40.86,27.453,40.855,29.063,41.528,30.062z"/>
</g>
<path opacity="0.6" fill="#C3C2B9" enable-background="new    " d="M20.84,54.933h4.139c0.188-0.406,0.654-0.695,1.014-0.959
	c-0.637-0.998-2.675-1.277-3.183-2.202c0.419-0.611,1.622-1.196,1.651-1.901c-1.113-0.405-2.343-0.33-3.504-0.568
	c-1.171-0.239-2.179-1.095-3.347-1.136c0.468,0.644,1.169,1.292,1.805,1.937c0.859,0.876,0.956,2.727,1.07,3.467
	C20.529,53.864,20.671,54.383,20.84,54.933z"/>
<path opacity="0.6" fill="#C3C2B9" enable-background="new    " d="M35.017,54.933h8.613c0.35-2.404,1-5.236,1.521-6.541
	c0.15-0.377,0.309-0.778,0.471-1.189c-0.436,0.378-0.832,0.808-1.377,1.11c-0.926,0.512-1.857,0.976-2.734,1.572
	c-1.455,0.993-3.092,1.7-4.817,2.111c0.895-0.022,1.814-0.046,2.706,0.007c-0.989,0.653-1.933,1.355-2.907,2.031
	C36.025,54.355,35.524,54.647,35.017,54.933z"/>
</svg>
