<?xml version="1.0" encoding="utf-8"?>
<!-- Generator: Adobe Illustrator 16.0.0, SVG Export Plug-In . SVG Version: 6.00 Build 0)  -->
<!DOCTYPE svg PUBLIC "-//W3C//DTD SVG 1.1//EN" "http://www.w3.org/Graphics/SVG/1.1/DTD/svg11.dtd">
<svg version="1.1" id="图层_1" xmlns="http://www.w3.org/2000/svg" xmlns:xlink="http://www.w3.org/1999/xlink" x="0px" y="0px"
	 width="50px" height="50px" viewBox="0 0 50 50" enable-background="new 0 0 50 50" xml:space="preserve">
<g>
	<path fill-rule="evenodd" clip-rule="evenodd" fill="#515151" d="M22.278,22.28v-2.785h-2.784V16.71h-2.783v5.57h2.783H22.278
		L22.278,22.28z M36.204,25.063h2.786v2.786h-2.786V25.063L36.204,25.063z"/>
	<path fill-rule="evenodd" clip-rule="evenodd" fill="#515151" d="M22.278,25.063h-5.567v2.786h5.567v2.786h2.786V22.28h-2.786
		V25.063L22.278,25.063z M16.711,13.925V0H0v16.71h16.711V13.925L16.711,13.925L16.711,13.925z M8.355,13.925H2.784V2.785h11.141
		v11.141H8.355L8.355,13.925L8.355,13.925z"/>
	<path fill-rule="evenodd" clip-rule="evenodd" fill="#515151" d="M5.569,5.57v5.569h5.571V5.57H8.355H5.569L5.569,5.57z
		 M13.925,33.419H0v16.712h16.711V33.419H13.925L13.925,33.419z M13.925,40.938v6.406H2.784v-11.14h11.141V40.938L13.925,40.938
		L13.925,40.938z"/>
	<path fill-rule="evenodd" clip-rule="evenodd" fill="#515151" d="M5.569,38.989v5.569h5.571v-5.569H8.355H5.569L5.569,38.989z
		 M48.737,0H33.42v16.71h16.709V0H48.737L48.737,0z M47.345,7.519v6.406H36.204V2.785h11.141V7.519L47.345,7.519z"/>
	<path fill-rule="evenodd" clip-rule="evenodd" fill="#515151" d="M38.99,5.57v5.569h5.569V5.57h-2.783H38.99L38.99,5.57z
		 M19.495,13.925h2.784v2.785h-2.784V13.925L19.495,13.925z M13.925,22.28h-2.785v2.782h5.571V22.28H13.925L13.925,22.28z
		 M5.569,22.28h2.786v2.782H5.569V22.28L5.569,22.28z M2.784,25.063h2.785v2.786H2.784V25.063L2.784,25.063z M0,19.495h2.784v2.785
		H0V19.495L0,19.495z M8.355,25.063h2.785v2.786H8.355V25.063L8.355,25.063L8.355,25.063z M22.278,33.419h2.786v2.786h-2.786V33.419
		L22.278,33.419z M36.204,33.419h2.786v2.786h-2.786V33.419L36.204,33.419z M25.064,36.205h2.786v2.784h-2.786V36.205L25.064,36.205
		z M19.495,38.989h2.784v2.786h-2.784V38.989L19.495,38.989z"/>
	<path fill-rule="evenodd" clip-rule="evenodd" fill="#515151" d="M25.064,44.559v-2.783h-2.786v5.569h5.572v-2.786H25.064
		L25.064,44.559z M27.851,47.345h2.783v2.786h-2.783V47.345L27.851,47.345z M27.851,38.989h2.783v2.786h-2.783V38.989L27.851,38.989
		z M16.711,30.635v2.784h5.567v-2.784h-2.784H16.711L16.711,30.635z M36.204,27.849h-8.354v5.57h2.783v-2.784h2.786v2.784h2.784
		v-2.784V27.849L36.204,27.849z M38.99,25.063h2.786V22.28h2.783v-2.785h-8.355v2.785h2.786V25.063L38.99,25.063z M44.56,27.849
		h2.785V22.28H44.56v2.782V27.849L44.56,27.849z"/>
	<path fill-rule="evenodd" clip-rule="evenodd" fill="#515151" d="M47.345,30.635H44.56v-2.786h-2.783v2.786H38.99v2.784h8.354
		v2.786h2.784v-8.356h-2.784V30.635L47.345,30.635z M41.776,44.559h5.568v-2.783h2.784v-2.786h-8.353v2.786V44.559L41.776,44.559z
		 M33.42,47.345h2.784v2.786H33.42V47.345L33.42,47.345z M41.776,47.345H38.99v2.786h8.354v-2.786H44.56H41.776L41.776,47.345z
		 M47.345,44.559h2.784v2.786h-2.784V44.559L47.345,44.559z M36.204,44.559h2.786v2.786h-2.786V44.559L36.204,44.559z"/>
	<path fill-rule="evenodd" clip-rule="evenodd" fill="#515151" d="M38.99,41.775v-2.786h-5.57v5.569h2.784v-2.783H38.99
		L38.99,41.775z M38.99,36.205h2.786v2.784H38.99V36.205L38.99,36.205z M33.42,22.28v-2.785h-2.786v2.785h-2.783v2.782h8.354V22.28
		H33.42L33.42,22.28z M25.064,19.495h2.786v2.785h-2.786V19.495L25.064,19.495z M27.851,16.71h2.783v2.785h-2.783V16.71
		L27.851,16.71L27.851,16.71z M27.851,13.925h2.783v-2.786h-2.783V8.354h2.783V5.57h-5.569v5.569h-2.786v2.786h2.786H27.851
		L27.851,13.925z"/>
	<path fill-rule="evenodd" clip-rule="evenodd" fill="#515151" d="M19.495,8.354h2.784v2.785h-2.784V8.354L19.495,8.354z
		 M22.278,2.785h2.786V5.57h-2.786V2.785L22.278,2.785z M25.064,0h2.786v2.785h-2.786V0L25.064,0z"/>
</g>
</svg>
