<?xml version="1.0" standalone="no"?><!DOCTYPE svg PUBLIC "-//W3C//DTD SVG 1.1//EN" "http://www.w3.org/Graphics/SVG/1.1/DTD/svg11.dtd"><svg t="1505986365839" class="icon" style="" viewBox="0 0 1047 1024" version="1.1" xmlns="http://www.w3.org/2000/svg" p-id="20756" xmlns:xlink="http://www.w3.org/1999/xlink" width="65.4375" height="64"><defs><style type="text/css"></style></defs><path d="M1047.296 374.714182h-126.836364v125.975273h-43.915636v-125.975273h-126.184727v-44.613818h126.184727V204.241455h43.915636v125.975272h126.836364v44.497455zM461.056 0c-112.872727 0-204.357818 97.908364-204.357818 232.96 0 134.958545 91.485091 267.729455 204.357818 267.729455 112.872727 0 204.357818-132.864 204.357818-267.822546C665.413818 97.908364 573.928727 0 461.056 0z m131.560727 540.602182l-134.306909 407.505454-128.907636-407.505454c-68.631273 0-127.488 22.690909-175.476364 62.487273C68.049455 674.024727 16.453818 799.534545 3.374545 947.432727a874.123636 874.123636 0 0 0-3.397818 76.520728h922.274909c0-266.938182-117.178182-483.351273-329.634909-483.351273z m-200.843636 74.100363l69.282909 229.562182 69.399273-229.562182-69.399273-76.520727-69.282909 76.520727z" p-id="20757" fill="#ffffff"></path></svg>
