<?xml version="1.0" encoding="utf-8"?>
<!-- Generator: Adobe Illustrator 16.0.0, SVG Export Plug-In . SVG Version: 6.00 Build 0)  -->
<!DOCTYPE svg PUBLIC "-//W3C//DTD SVG 1.1//EN" "http://www.w3.org/Graphics/SVG/1.1/DTD/svg11.dtd">
<svg version="1.1" id="图层_1" xmlns="http://www.w3.org/2000/svg" xmlns:xlink="http://www.w3.org/1999/xlink" x="0px" y="0px"
	 width="60px" height="60px" viewBox="0 0 60 60" enable-background="new 0 0 60 60" xml:space="preserve">
<circle fill="#3AB4DF" cx="30.084" cy="29.917" r="29.916"/>
<g>
	<g>
		<path fill="#FFFFFF" d="M47.176,48.769H13.242c0,0-3.766,0.225-3.766-2.579c0,0,2.623-5.494,6.985-10.025
			c2.874-2.986,6.637,0,6.637,0s1.487,2.805,6.438,2.895h1.688c4.953-0.09,6.438-2.895,6.438-2.895s3.371-2.986,6.242,0
			c3.527,3.666,6.787,10.07,6.787,10.07C50.691,49.039,47.176,48.769,47.176,48.769L47.176,48.769z M30.034,34.219
			c-5.964,0-10.8-5.286-10.8-11.806c0-6.521,4.836-11.356,10.8-11.356c5.966,0,10.798,4.835,10.798,11.356
			C40.832,28.933,36,34.219,30.034,34.219L30.034,34.219z M30.034,34.219"/>
	</g>
</g>
</svg>
