<?xml version="1.0" standalone="no"?><!DOCTYPE svg PUBLIC "-//W3C//DTD SVG 1.1//EN" "http://www.w3.org/Graphics/SVG/1.1/DTD/svg11.dtd"><svg t="1505975259196" class="icon" style="" viewBox="0 0 1024 1024" version="1.1" xmlns="http://www.w3.org/2000/svg" p-id="2313" xmlns:xlink="http://www.w3.org/1999/xlink" width="64" height="64"><defs><style type="text/css"></style></defs><path d="M231.14 66.073c-30.891 0-55.912 24.881-55.912 55.912v223.649h55.912V121.986h670.946v782.77H231.14V681.107h-55.912v223.649c0 31.031 25.021 55.912 55.912 55.912h670.946c30.892 0 55.912-24.881 55.912-55.912v-782.77c0-31.031-25.021-55.912-55.912-55.912H231.14z" fill="#ffffff" p-id="2314"></path><path d="M846.174 177.898H678.438v670.946h167.737V177.898z m-55.912 55.912v559.122H734.35V233.81h55.912zM398.877 737.019c29.857 0 57.925-11.742 79.06-32.709l111.824-111.824c21.135-21.247 32.765-49.203 32.765-79.116 0-29.913-11.63-57.869-32.765-79.116L477.937 322.431c-21.135-20.967-49.203-32.709-79.06-32.709-29.885 0-57.925 11.742-79.06 32.709-21.806 21.806-32.709 50.6-32.709 79.115h-111.88c-61.643 0-111.824 50.041-111.824 111.824 0 61.503 50.181 111.824 111.824 111.824h111.88c0 28.515 10.903 57.31 32.709 79.116 21.135 20.968 49.175 32.709 79.06 32.709z m0-55.912c-14.314 0-28.599-5.591-39.53-16.494-21.834-21.806-21.834-57.03 0-78.836l16.382-16.494H175.228c-30.891 0-55.912-25.16-55.912-55.912 0-31.031 25.021-55.912 55.912-55.912h200.501l-16.382-16.494c-21.834-21.806-21.834-57.031 0-78.837 10.931-11.182 25.216-16.494 39.53-16.494s28.599 5.312 39.53 16.494l111.825 111.824c21.833 21.806 21.833 57.031 0 78.837L438.407 664.613c-10.931 10.903-25.217 16.494-39.53 16.494z" fill="#ffffff" p-id="2315"></path></svg>