<?xml version="1.0" standalone="no"?><!DOCTYPE svg PUBLIC "-//W3C//DTD SVG 1.1//EN" "http://www.w3.org/Graphics/SVG/1.1/DTD/svg11.dtd"><svg t="1505987479439" class="icon" style="" viewBox="0 0 1024 1024" version="1.1" xmlns="http://www.w3.org/2000/svg" p-id="33377" xmlns:xlink="http://www.w3.org/1999/xlink" width="64" height="64"><defs><style type="text/css"></style></defs><path d="M991.36 479.552l-73.92 0 0 73.536-25.6 0L891.84 479.552l-73.536 0L818.304 453.504l73.536 0L891.84 380.032l25.6 0 0 73.536 73.92 0L991.36 479.552z" p-id="33378" fill="#ffffff"></path><path d="M660.224 262.912c-53.76 0-97.536 46.784-97.536 111.424 0 64.512 43.776 128 97.536 128 53.824 0 97.6-63.488 97.6-128C757.824 309.696 714.048 262.912 660.224 262.912z" p-id="33379" fill="#ffffff"></path><path d="M723.136 521.408l-61.568 194.816L597.44 521.408c-33.024 0-61.12 11.008-84.096 30.144 50.112 41.472 80.128 114.752 87.744 201.152l279.36 0C880.384 625.024 824.512 521.408 723.136 521.408z" p-id="33380" fill="#ffffff"></path><path d="M627.136 556.928 660.224 666.688 693.312 556.928 660.224 520.256Z" p-id="33381" fill="#ffffff"></path><path d="M301.376 213.12c-65.792 0-119.104 57.152-119.104 136 0 78.784 53.312 156.288 119.104 156.288S420.48 427.84 420.48 349.056C420.48 270.272 367.168 213.12 301.376 213.12z" p-id="33382" fill="#ffffff"></path><path d="M378.048 528.704l-78.272 237.888L224.64 528.704c-40 0-74.304 13.248-102.272 36.48C72.32 606.592 42.24 679.872 34.624 766.208c-1.28 14.528-1.984 29.44-1.984 44.672l537.536 0C570.176 655.04 501.888 528.704 378.048 528.704z" p-id="33383" fill="#ffffff"></path><path d="M260.992 571.968 301.376 705.984 341.824 571.968 301.376 527.296Z" p-id="33384" fill="#ffffff"></path></svg>