<?xml version="1.0" encoding="utf-8"?>
<!-- Generator: Adobe Illustrator 16.0.0, SVG Export Plug-In . SVG Version: 6.00 Build 0)  -->
<!DOCTYPE svg PUBLIC "-//W3C//DTD SVG 1.1//EN" "http://www.w3.org/Graphics/SVG/1.1/DTD/svg11.dtd">
<svg version="1.1" id="图层_1" xmlns="http://www.w3.org/2000/svg" xmlns:xlink="http://www.w3.org/1999/xlink" x="0px" y="0px"
	 width="64px" height="64px" viewBox="0 0 64 64" enable-background="new 0 0 64 64" xml:space="preserve">
<g>
	<g>
		<path fill="#FFFFFF" d="M17.746,23.773l-5.142,5.457L7.46,23.773c-0.234-0.249-0.612-0.249-0.847,0
			c-0.233,0.248-0.233,0.65,0,0.898l4.544,4.822H8.093c-0.331,0-0.599,0.285-0.599,0.635c0,0.351,0.268,0.635,0.599,0.635h3.922
			v2.669H8.422c-0.33,0-0.599,0.284-0.599,0.635c0,0.352,0.269,0.636,0.599,0.636h3.593v3.94c0,0.351,0.268,0.635,0.599,0.635
			c0.33,0,0.599-0.284,0.599-0.635v-3.94h3.592c0.331,0,0.598-0.284,0.598-0.636c0-0.351-0.267-0.635-0.598-0.635h-3.592v-2.669
			h3.921c0.331,0,0.599-0.284,0.599-0.635c0-0.351-0.268-0.635-0.599-0.635h-3.084l4.543-4.822c0.234-0.248,0.234-0.65,0-0.898
			C18.358,23.524,17.979,23.524,17.746,23.773L17.746,23.773z M17.746,23.773"/>
		<path fill="#FFFFFF" d="M12.604,17.134c-6.95,0-12.604,6-12.604,13.376c0,7.375,5.654,13.376,12.604,13.376
			c6.949,0,12.603-6.001,12.603-13.376C25.206,23.135,19.552,17.134,12.604,17.134L12.604,17.134z M12.604,42.616
			c-6.29,0-11.406-5.431-11.406-12.105c0-6.675,5.117-12.105,11.406-12.105c6.289,0,11.406,5.43,11.406,12.105
			C24.009,37.186,18.892,42.616,12.604,42.616L12.604,42.616z M12.604,42.616"/>
	</g>
</g>
<g>
	<g>
		<defs>
			<rect id="SVGID_1_" x="8.842" y="18.186" width="56.384" height="37.441"/>
		</defs>
		<clipPath id="SVGID_2_">
			<use xlink:href="#SVGID_1_"  overflow="visible"/>
		</clipPath>
		<path clip-path="url(#SVGID_2_)" fill="#FFFFFF" d="M65.238,34.865"/>
	</g>
	<path fill="#FFFFFF" d="M45.76,21.34c-3.163,0-5.737,2.921-5.737,6.957c0,4.028,2.574,7.991,5.737,7.991
		c3.166,0,5.741-3.963,5.741-7.991C51.501,24.261,48.926,21.34,45.76,21.34L45.76,21.34z M45.76,21.34"/>
	<path fill="#FFFFFF" d="M49.46,37.479l-3.622,12.163l-3.771-12.163c-1.943,0-3.596,0.688-4.947,1.882
		c2.948,2.59,4.714,7.165,5.161,12.559h16.434C58.71,43.947,55.424,37.479,49.46,37.479L49.46,37.479z M49.46,37.479"/>
	<path fill="#FFFFFF" d="M43.813,39.696l1.946,6.853l1.946-6.853l-1.946-2.29L43.813,39.696z M43.813,39.696"/>
	<path fill="#FFFFFF" d="M24.649,18.231c-3.87,0-7.005,3.568-7.005,8.49c0,4.919,3.136,9.758,7.005,9.758
		c3.871,0,7.007-4.843,7.007-9.762C31.656,21.799,28.52,18.231,24.649,18.231L24.649,18.231z M24.649,18.231"/>
	<path fill="#FFFFFF" d="M29.161,37.934l-4.604,14.853l-4.42-14.853c-2.353,0-4.371,0.828-6.016,2.278
		c-2.944,2.585-4.713,7.16-5.162,12.55c-0.076,0.907-0.117,1.839-0.117,2.79h31.621C40.463,45.821,36.445,37.934,29.161,37.934
		L29.161,37.934z M29.161,37.934"/>
	<path fill="#FFFFFF" d="M22.274,40.635l2.375,8.367l2.38-8.367l-2.38-2.789L22.274,40.635z M22.274,40.635"/>
</g>
</svg>
