<?xml version="1.0" standalone="no"?><!DOCTYPE svg PUBLIC "-//W3C//DTD SVG 1.1//EN" "http://www.w3.org/Graphics/SVG/1.1/DTD/svg11.dtd"><svg t="1505975656735" class="icon" style="" viewBox="0 0 1024 1024" version="1.1" xmlns="http://www.w3.org/2000/svg" p-id="3042" xmlns:xlink="http://www.w3.org/1999/xlink" width="64" height="64"><defs><style type="text/css"></style></defs><path d="M103.76 474.667h520.985c42.319-48.811 89.103-102.191 105.175-118.65H103.76v-99.89h672.413v98.161c0.209 0.218 0.434 0.443 0.514 0.54l24.768 28.017V279.849a48.264 48.264 0 0 0-48.264-48.263H126.726a48.264 48.264 0 0 0-48.264 48.263v413.083a48.264 48.264 0 0 0 48.264 48.264h515.9v-24.55H103.76v-241.98z" fill="#ffffff" p-id="3043"></path><path d="M942.24 594.602c0-8.583-9.443-17.6-11.687-19.53L773.486 397.404c-10.618-11.535-27.229-11.873-38.346-0.99-4.69 4.594-9.09 9.5-13.514 14.351-16.224 17.818-32.087 35.965-47.95 54.104-31.363 35.876-62.606 71.881-93.47 108.2-1.618 1.914-3.29 3.804-4.851 5.775-6.05 5.599-13.016 14.769-10.136 23.497 3.04 9.218 15.002 10.57 23.19 10.57h69.477v157.678a16.088 16.088 0 0 0 16.088 16.088h158.868a16.088 16.088 0 0 0 16.088-16.088V611.72h73.498c17.633 0 19.82-13.208 19.813-17.118z m-104.29 7.53h-65.14v36.407h65.14v15.42h-65.14v32.16h-39.4v-32.16h-64.536v-15.42h64.537v-36.407h-64.537v-15.413h64.537v-5.88l-47.476-62.727h31.693l34.694 50.162h2.18l34.694-50.162h31.685l-48.079 63.515v5.092h65.14v15.413z m-666.508-58.746h289.583v31.822H171.442z m0 74.07h209.626v31.821H171.442z" fill="#ffffff" p-id="3044"></path></svg>