<?xml version="1.0" encoding="utf-8"?>
<!-- Generator: Adobe Illustrator 16.0.0, SVG Export Plug-In . SVG Version: 6.00 Build 0)  -->
<!DOCTYPE svg PUBLIC "-//W3C//DTD SVG 1.1//EN" "http://www.w3.org/Graphics/SVG/1.1/DTD/svg11.dtd">
<svg version="1.1" id="图层_1" xmlns="http://www.w3.org/2000/svg" xmlns:xlink="http://www.w3.org/1999/xlink" x="0px" y="0px"
	 width="64px" height="64px" viewBox="0 0 64 64" enable-background="new 0 0 64 64" xml:space="preserve">
<g>
	<rect x="5.078" y="38.33" fill="#FFFFFF" width="17.136" height="2.583"/>
	<rect x="5.205" y="44.017" fill="#FFFFFF" width="17.136" height="2.583"/>
	<g>
		<defs>
			<rect id="SVGID_1_" x="-0.22" y="21.104" width="51.161" height="36.615"/>
		</defs>
		<clipPath id="SVGID_2_">
			<use xlink:href="#SVGID_1_"  overflow="visible"/>
		</clipPath>
		<rect x="4.952" y="32.772" clip-path="url(#SVGID_2_)" fill="#FFFFFF" width="17.136" height="2.585"/>
		<path clip-path="url(#SVGID_2_)" fill="#FFFFFF" d="M46.531,57.66H4.178c-2.429,0-4.405-1.977-4.405-4.405V25.514
			c0-2.429,1.976-4.405,4.405-4.405h42.354c2.431,0,4.406,1.976,4.406,4.405v27.741C50.938,55.684,48.962,57.66,46.531,57.66
			L46.531,57.66z M4.178,23.7c-1,0-1.813,0.813-1.813,1.813v27.741c0,1.002,0.813,1.816,1.813,1.816h42.354
			c1.002,0,1.816-0.814,1.816-1.816V25.514c0-1-0.814-1.813-1.816-1.813H4.178z M4.178,23.7"/>
	</g>
</g>
<g>
	<g>
		<path fill="#FFFFFF" d="M57.393,2.327c1.11,1.048,1.099,1.036,2.032,1.917c0.933,0.881,1.846,3.252,0,5.098
			c-1.847,1.846-24.149,24.149-24.149,24.149s-10.236,4.256-10.772,4.485c-0.537,0.229-1.005-0.295-0.766-0.845
			c0.238-0.549,4.485-10.31,4.485-10.31S50.929,4,52.409,2.518C53.892,1.036,56.28,1.278,57.393,2.327L57.393,2.327z M25.32,36.379
			l8.484-3.578l-4.88-4.728L25.32,36.379z M29.516,27.023l5.365,5.237l17.845-17.853L47.4,9.22L29.516,27.023z M48.207,8.407
			l5.334,5.189l2.355-2.345l-5.333-5.197L48.207,8.407z M51.355,5.202l5.396,5.188c0,0,1.14-1.145,1.955-1.958
			c0.813-0.816,0.983-2.305-0.122-3.388c-0.922-0.908-0.98-0.954-1.833-1.769C55.896,2.461,54.22,2.4,53.375,3.228
			C52.528,4.056,51.355,5.202,51.355,5.202L51.355,5.202z M51.355,5.202"/>
		<path fill="#FFFFFF" d="M62.51,48.661H25.298c-0.477,0-0.866-0.39-0.866-0.863c0-0.479,0.389-0.868,0.866-0.868H62.51
			c0.478,0,0.867,0.39,0.867,0.868C63.377,48.271,62.987,48.661,62.51,48.661L62.51,48.661z M62.51,48.661"/>
	</g>
</g>
</svg>
