<?xml version="1.0" standalone="no"?><!DOCTYPE svg PUBLIC "-//W3C//DTD SVG 1.1//EN" "http://www.w3.org/Graphics/SVG/1.1/DTD/svg11.dtd"><svg t="1505988372191" class="icon" style="" viewBox="0 0 1024 1024" version="1.1" xmlns="http://www.w3.org/2000/svg" p-id="36693" xmlns:xlink="http://www.w3.org/1999/xlink" width="64" height="64"><defs><style type="text/css"></style></defs><path d="M756.363636 733.090909C756.363636 733.090909 763.008 806.237091 756.363636 814.545455 749.719273 822.853818 669.917091 822.853818 663.272727 814.545455 656.628364 806.237091 663.272727 791.272727 663.272727 791.272727L512 791.272727C512 791.272727 515.328 802.909091 512 814.545455 508.672 826.181818 423.889455 822.853818 418.909091 814.545455 413.917091 806.237091 418.909091 779.636364 418.909091 779.636364 418.909091 779.636364 415.581091 768 395.636364 768L395.636364 802.909091C395.636364 802.909091 309.189818 809.553455 302.545455 779.636364 302.545455 779.636364 304.209455 758.027636 314.181818 744.727273 324.154182 731.426909 314.181818 733.090909 314.181818 733.090909L232.727273 640C212.375273 640.453818 205.661091 640.337455 186.181818 640 168.820364 629.690182 150.993455 629.562182 151.272727 570.181818 151.424 538.379636 151.808 512.989091 164.875636 507.240727 186.693818 497.652364 189.509818 500.363636 197.818182 488.727273 206.126545 477.090909 191.162182 372.363636 290.909091 314.181818 290.909091 314.181818 272.942545 292.654545 244.363636 267.636364 224.418909 251.008 246.027636 152.936727 418.909091 256 412.741818 239.906909 869.038545 164.282182 872.727273 523.636364 872.727273 523.636364 887.947636 673.629091 756.363636 733.090909ZM337.454545 372.363636C318.173091 372.363636 302.545455 387.991273 302.545455 407.272727 302.545455 426.554182 318.173091 442.181818 337.454545 442.181818 356.736 442.181818 372.363636 426.554182 372.363636 407.272727 372.363636 387.991273 356.736 372.363636 337.454545 372.363636ZM520.285091 570.763636C521.739636 573.672727 522.472727 575.499636 522.472727 576.221091 524.648727 577.687273 526.836364 578.397091 529.012364 578.397091 533.376 577.687273 539.554909 575.499636 547.560727 571.857455 560.651636 567.493818 570.472727 564.596364 577.012364 563.130182 578.466909 564.596364 579.2 566.4 579.2 568.576L579.2 569.669818C579.2 574.766545 576.64 577.687273 571.566545 578.397091 570.100364 578.397091 569.006545 578.397091 568.285091 578.397091 555.194182 584.226909 545.000727 594.408727 537.739636 608.942545 536.273455 614.039273 535.563636 618.402909 535.563636 622.033455 534.097455 625.687273 538.461091 632.226909 548.654545 641.675636 549.364364 643.141818 550.458182 644.584727 551.924364 646.039273 555.554909 650.402909 559.557818 652.578909 563.921455 652.578909 572.648727 652.578909 574.464 646.039273 569.378909 632.948364 568.645818 628.584727 568.285091 625.687273 568.285091 624.221091 570.472727 619.136 577.373091 614.4 589.021091 610.036364 590.464 610.036364 591.557818 609.675636 592.290909 608.942545 598.097455 606.766545 603.915636 605.312 609.745455 604.578909 616.285091 605.312 619.915636 607.499636 620.648727 611.130182 619.915636 616.96 617.739636 622.033455 614.109091 626.397091 609.745455 630.050909 604.648727 632.226909 598.830545 632.948364 595.921455 633.681455 593.000727 634.414545 590.103273 635.124364 579.909818 640.221091 575.546182 645.317818 577.012364 650.402909 585.006545 656.942545 597.364364 658.397091 614.109091 654.766545 628.642909 651.112727 636.637091 646.039273 638.103273 639.488 638.103273 636.590545 635.927273 634.414545 631.563636 632.948364 631.563636 630.050909 633.739636 626.397091 638.103273 622.033455 639.557818 619.136 641.000727 616.96 642.466909 615.493818 647.552 600.215273 641.000727 590.778182 622.836364 587.124364 614.818909 587.124364 603.915636 589.312 590.103273 593.675636 594.466909 587.124364 597.748364 576.221091 599.924364 560.942545 599.924364 558.766545 600.285091 556.578909 601.018182 554.402909L603.194182 552.215273C612.642909 549.317818 622.103273 545.675636 631.563636 541.312L633.739636 540.218182C641.000727 535.854545 644.654545 531.863273 644.654545 528.221091 638.103273 525.323636 627.560727 526.033455 613.015273 530.397091 607.185455 531.863273 603.194182 532.584727 601.018182 532.584727 600.285091 531.130182 599.924364 528.593455 599.924364 524.939636 599.191273 514.769455 596.654545 509.312 592.290909 508.578909 584.273455 511.499636 579.909818 517.306182 579.2 526.033455L579.2 534.760727C579.2 536.226909 578.466909 537.681455 577.012364 539.124364 563.188364 543.488 549.364364 547.141818 535.563636 550.039273L533.376 547.851636C537.006545 538.414545 542.824727 529.687273 550.830545 521.669818 554.461091 518.039273 558.091636 514.408727 561.745455 510.766545 575.546182 496.221091 586.461091 486.050909 594.466909 480.221091 596.654545 478.766545 598.830545 478.033455 601.018182 478.033455L609.745455 478.033455C618.472727 476.590545 623.546182 472.226909 625.012364 464.942545 622.103273 456.215273 614.109091 454.039273 601.018182 458.402909 593.000727 465.675636 585.739636 473.669818 579.2 482.397091 575.546182 486.760727 570.100364 492.590545 562.839273 499.851636 559.185455 503.505455 555.915636 507.136 553.018182 510.766545 545.733818 519.493818 539.927273 528.221091 535.563636 536.948364 534.097455 539.124364 533.003636 541.684364 532.293818 544.581818 527.930182 554.042182 523.915636 560.232727 520.285091 563.130182 518.818909 564.596364 518.818909 567.133091 520.285091 570.763636ZM463.557818 654.766545C464.279273 655.476364 465.012364 656.209455 465.745455 656.942545 470.818909 662.760727 475.182545 665.669818 478.836364 665.669818 482.466909 664.936727 484.642909 662.760727 485.376 659.130182 485.376 657.664 485.003636 655.848727 484.293818 653.672727 482.827636 652.206545 482.466909 651.112727 483.2 650.402909 485.376 649.669818 486.830545 647.505455 487.563636 643.851636 487.563636 641.675636 486.830545 638.394182 485.376 634.030545 483.2 630.4 482.466909 627.130182 483.2 624.221091 483.2 619.136 485.736727 611.130182 490.833455 600.215273 494.464 593.675636 497.000727 588.590545 498.466909 584.948364 497.000727 583.493818 496.290909 582.050909 496.290909 580.584727 488.273455 588.590545 481.733818 597.317818 476.648727 606.766545 475.915636 608.232727 475.182545 609.314909 474.472727 610.036364 470.109091 617.309091 465.012364 620.590545 459.194182 619.857455 455.552 625.687273 454.097455 631.493818 454.830545 637.312 454.830545 644.584727 457.728 650.402909 463.557818 654.766545ZM457.018182 530.397091C453.364364 531.130182 449.000727 534.760727 443.927273 541.312 438.830545 545.675636 436.642909 549.317818 437.376 552.215273 436.642909 560.942545 438.830545 566.772364 443.927273 569.669818 461.381818 576.954182 472.285091 575.499636 476.648727 565.306182 475.915636 551.505455 472.285091 541.312 465.745455 534.760727 462.824727 532.584727 459.915636 531.130182 457.018182 530.397091ZM494.103273 478.033455C478.836364 479.499636 470.818909 484.584727 470.109091 493.312 473.006545 494.045091 475.182545 497.314909 476.648727 503.121455 479.546182 509.672727 483.2 512.942545 487.563636 512.942545 496.290909 512.942545 503.552 510.045091 509.381818 504.215273 514.455273 493.312 509.381818 484.584727 494.103273 478.033455ZM709.818182 372.363636C708.154182 364.055273 694.853818 350.754909 686.545455 349.090909 633.355636 322.490182 535.272727 325.818182 535.272727 325.818182 522.414545 325.818182 512 336.232727 512 349.090909 512 361.949091 521.972364 372.363636 535.272727 372.363636 588.462545 375.691636 640 369.035636 686.545455 395.636364 708.154182 397.300364 711.482182 380.672 709.818182 372.363636ZM581.376 595.851636 555.194182 615.493818C552.285091 616.96 550.830545 614.772364 550.830545 608.942545 548.654545 603.869091 551.191273 599.121455 558.475636 594.757818L559.557818 593.675636C561.745455 592.221091 563.921455 591.488 566.109091 591.488L577.012364 591.488C580.642909 591.488 582.097455 592.954182 581.376 595.851636Z" p-id="36694" fill="#ffffff"></path></svg>