<?xml version="1.0" standalone="no"?><!DOCTYPE svg PUBLIC "-//W3C//DTD SVG 1.1//EN" "http://www.w3.org/Graphics/SVG/1.1/DTD/svg11.dtd"><svg t="1505987041741" class="icon" style="" viewBox="0 0 1024 1024" version="1.1" xmlns="http://www.w3.org/2000/svg" p-id="25737" xmlns:xlink="http://www.w3.org/1999/xlink" width="64" height="64"><defs><style type="text/css"></style></defs><path d="M967.232 816.704H739.84c-4.672 0-9.344 1.28-13.44 3.648l-213.952 127.68H191.936c-29.824 0-54.144-24.384-54.144-54.208v-20.032c0-29.888 24.32-54.272 54.144-54.272h156.608c2.752 11.264 8.384 21.568 16.704 30.016l6.656 6.656c12.48 12.48 28.928 18.752 45.312 18.752 15.808 0 31.616-5.76 43.904-17.344l179.008-136.448a26.27 26.27 0 0 0 4.992-36.864c-8.832-11.584-25.344-13.824-36.8-4.928L428.096 816.768l-2.624 2.304c-4.544 4.48-11.904 4.416-16.32 0.064l-6.656-6.656c-3.008-2.944-3.392-6.464-3.392-8.192s0.384-5.184 3.2-7.936l283.008-277.568h281.984c14.528 0 26.304-11.776 26.304-26.24 0-14.592-11.84-26.368-26.304-26.368H872.96c1.472-14.528 2.496-29.12 2.496-43.584C875.456 189.504 685.888 0 452.992 0 219.968 0 30.464 189.504 30.464 422.528c0 83.648 34.112 210.304 97.408 280.192 5.184 5.76 12.288 8.704 19.52 8.704 6.272 0 12.544-2.24 17.6-6.784 10.752-9.664 11.584-26.304 1.92-37.184-51.776-57.216-83.84-171.648-83.84-244.928 0-204.032 166.016-369.984 369.984-369.984 204.032 0 369.92 165.952 369.92 369.984 0 14.528-1.152 29.12-2.88 43.584h-144c-6.592 0-12.288 2.688-16.96 6.656-2.048 1.216-4.224 2.176-6.016 3.968L365.312 758.912c-2.56 2.56-4.672 5.312-6.72 8.128H191.936c-58.816 0-106.752 47.872-106.752 106.816v20.032c0 58.752 47.936 106.688 106.752 106.688H519.808c4.736 0 9.344-1.344 13.44-3.712l213.888-127.488h220.096c14.528 0 26.304-11.904 26.304-26.368s-11.776-26.304-26.304-26.304z" p-id="25738" fill="#ffffff"></path><path d="M325.12 454.272c-14.528 0-26.24 11.776-26.24 26.304 0 14.528 11.712 26.304 26.24 26.304h95.232v66.56c0 14.528 11.776 26.24 26.24 26.24 14.528 0 26.368-11.776 26.368-26.24v-66.56h95.168c14.528 0 26.368-11.776 26.368-26.304 0-14.592-11.84-26.304-26.368-26.304H472.96v-46.72h95.168c14.528 0 26.368-11.776 26.368-26.304 0-14.464-11.84-26.304-26.368-26.304h-52.672l46.208-96c6.272-13.056 0.832-28.736-12.288-35.072-13.056-6.208-28.8-0.768-35.2 12.352l-57.088 118.72h-27.776l-57.088-118.72c-6.336-13.12-22.016-18.56-35.136-12.288-13.12 6.336-18.624 22.016-12.288 35.072l46.144 96H325.12c-14.528 0-26.24 11.84-26.24 26.304 0 14.528 11.712 26.304 26.24 26.304h95.232v46.656H325.12z" p-id="25739" fill="#ffffff"></path></svg>