<?xml version="1.0" standalone="no"?><!DOCTYPE svg PUBLIC "-//W3C//DTD SVG 1.1//EN" "http://www.w3.org/Graphics/SVG/1.1/DTD/svg11.dtd"><svg t="1505974165796" class="icon" style="" viewBox="0 0 1024 1024" version="1.1" xmlns="http://www.w3.org/2000/svg" p-id="1180" xmlns:xlink="http://www.w3.org/1999/xlink" width="64" height="64"><defs><style type="text/css"></style></defs><path d="M546.443947 673.058133zM583.922347 219.818667c37.594453-37.59104 98.53952-37.59104 136.133973 0.003413l45.0048-45.001387a21.060267 21.060267 0 0 1 35.918507 13.704534l0.187733 0.003413 0.006827 173.339307-0.044374-0.003414a20.992 20.992 0 0 1-6.167893 15.005014 21.009067 21.009067 0 0 1-16.913067 6.07232h-166.621866a21.026133 21.026133 0 0 1-18.920107-5.778774 21.05344 21.05344 0 0 1-0.006827-29.781333l59.4944-59.497813c-25.634133-25.64096-63.73376-31.214933-94.79168-16.735574a95.798613 95.798613 0 0 1 26.719574-51.329706zM391.8848 168.492373c1.071787 0 2.399573-0.529067 4.000427-1.594026 3.201707-2.133333 7.471787-5.874347 12.806826-11.205974 6.403413-5.86752 12.8-10.134187 19.21024-12.8 6.403413-2.665813 14.936747-1.87392 25.606827 2.392747 5.33504 1.60768 9.601707 3.867307 12.803413 6.802773 3.198293 2.932053 6.26688 5.737813 9.202347 8.40704a48.247467 48.247467 0 0 0 9.60512 6.802774c3.467947 1.867093 7.871147 2.798933 13.206187 2.798933 5.331627 0 9.867947-0.79872 13.60896-2.399573a318.747307 318.747307 0 0 1 10.796373-4.406614 50.486613 50.486613 0 0 1 10.407253-2.79552c3.47136-0.535893 7.604907 0 12.407467 1.600854 5.33504 2.133333 8.93952 5.20192 10.8032 9.20576a19.991893 19.991893 0 0 1 1.604267 12.404053c-0.79872 4.266667-2.67264 8.533333-5.608107 12.8a36.194987 36.194987 0 0 1-10.806613 10.407253c-10.134187 6.4-17.8688 12.936533-23.210667 19.602774a494.01856 494.01856 0 0 0-16.001707 21.210453 464.203093 464.203093 0 0 0-8.802986 12.806827 203.45856 203.45856 0 0 0-8.8064 14.40768 177.54112 177.54112 0 0 1-10.40384 16.807253H308.647253a545.75104 545.75104 0 0 0-11.205973-18.414933 266.263893 266.263893 0 0 0-10.400427-16.001707 344.572587 344.572587 0 0 1-9.601706-14.400853c-5.338453-8.004267-11.33568-15.07328-18.008747-21.210454a257.7408 257.7408 0 0 0-19.602773-16.411306c-6.935893-4.799147-11.738453-11.332267-14.411094-19.59936-2.658987-8.277333-0.262827-15.34976 7.205547-21.21728 3.730773-2.658987 7.99744-3.7376 12.803413-3.201707 4.795733 0.54272 9.867947 1.60768 15.199574 3.201707 5.341867 1.600853 10.540373 3.208533 15.609173 4.80256 5.0688 1.60768 9.73824 1.86368 14.004907 0.79872 7.471787-1.600853 13.07648-4.399787 16.810666-8.3968 3.730773-4.000427 10.134187-8.93952 19.203414-14.80704 6.939307-4.266667 14.67392-5.737813 23.207253-4.4032 8.536747 1.338027 14.94016 4.13696 19.203413 8.403626a41.00096 41.00096 0 0 0 6.8096 6.806187 78.267733 78.267733 0 0 0 7.601494 5.20192 49.26464 49.26464 0 0 0 8.809813 5.594453m90.432853 160.06144c6.403413 8.543573 14.40768 17.875627 24.005974 28.01664 8.004267 9.076053 17.875627 19.339947 29.620906 30.808747 11.73504 11.47904 25.340587 23.61344 40.813227 36.420267 12.806827 11.205973 26.0096 24.405333 39.615147 39.611733 13.612373 15.202987 25.480533 32.945493 35.61472 53.224107 10.141013 20.278613 17.206613 43.618987 21.210453 70.02112 4.000427 26.412373 3.334827 55.896747-2.003627 88.436053-4.795733 26.678613-14.271147 51.892907-28.409173 75.63264s-32.945493 44.417707-56.4224 62.02368c-23.47008 17.605973-51.350187 31.617707-83.63008 42.021547s-68.959573 15.602347-110.045867 15.602346c-42.151253 0-79.496533-6.004053-112.04608-18.005333-32.54272-12.008107-60.153173-27.610453-82.827946-46.820693-22.678187-19.203413-40.680107-40.680107-54.019414-64.41984-13.339307-23.749973-22.142293-47.353173-26.40896-70.833494-4.809387-26.14272-5.474987-51.22048-2.003626-75.229866 3.47136-24.00256 9.73824-46.55104 18.81088-67.62496 9.0624-21.080747 20.40832-40.420693 34.010453-58.026667 13.60896-17.605973 28.409173-33.344853 44.414293-47.21664 13.878613-12.274347 26.415787-23.876267 37.614934-34.819413 11.205973-10.939733 20.544853-20.937387 28.013226-30.010027 9.076053-10.134187 17.073493-19.735893 24.0128-28.811947h180.06016M394.24 574.846293l-21.609813-21.613226-16.810667-16.807254c-5.328213-5.33504-9.069227-9.332053-11.199147-12.00128-4.266667-3.7376-9.867947-6.802773-16.807253-9.20576-6.93248-2.399573-12.806827-0.928427-17.60256 4.4032-4.273493 5.86752-5.338453 11.60192-3.201707 17.21344 2.12992 5.60128 4.53632 10.001067 7.19872 13.19936l12.004694 11.20256c5.874347 6.403413 12.270933 13.335893 19.206826 20.814507a1175.886507 1175.886507 0 0 0 26.405547 27.200853l-0.79872 16.81408H316.613973c-4.809387 0-8.93952 1.867093-12.407466 5.604694-3.464533 3.7376-5.20192 7.738027-5.20192 12.008106 0 4.266667 1.600853 8.004267 4.80256 11.20256 3.201707 3.198293 7.468373 4.799147 12.806826 4.799147H371.029333v28.009813H316.613973c-4.80256 0-8.93952 1.46432-12.407466 4.399787-3.464533 2.935467-5.20192 6.813013-5.20192 11.605333-0.529067 4.273493 0.935253 7.87456 4.4032 10.810027 3.47136 2.925227 7.867733 4.39296 13.206186 4.39296H371.029333v16.008533c0.54272 7.4752 2.93888 12.67712 7.205547 15.612587 4.273493 2.925227 9.601707 4.39296 16.008533 4.39296 6.396587 0.535893 11.598507-1.467733 15.602347-5.997227s6.00064-9.198933 6.00064-14.00832v-16.001706h56.02304c5.338453 0 9.741653-1.204907 13.206187-3.607894 3.47136-2.39616 4.939093-6.263467 4.399786-11.595093 0-11.2128-7.468373-16.81408-22.40512-16.81408h-51.22048l0.802134-27.211093 52.0192-0.79872c7.468373 0.535893 12.806827-0.93184 16.008533-4.399787 3.201707-3.47136 4.80256-7.60832 4.80256-12.407467 0-4.27008-1.73056-8.137387-5.20192-11.598506-3.464533-3.474773-8.93952-5.205333-16.407893-5.205334h-52.022614v-15.202986a544.720213 544.720213 0 0 0 24.814934-24.814934 1314.63168 1314.63168 0 0 0 19.203413-19.6096c6.403413-6.66624 11.205973-11.328853 14.40768-13.994666 12.270933-10.673493 14.936747-20.012373 8.004267-28.01664-3.730773-4.80256-8.54016-7.202133-14.40768-7.202134-5.86752 0-11.205973 2.136747-16.001707 6.4-2.67264 2.136747-7.202133 6.007467-13.60896 11.61216a1102.882133 1102.882133 0 0 0-19.21024 17.196374 5863.799467 5863.799467 0 0 0-24.81152 23.210666m0 0z" fill="#ffffff" p-id="1181"></path><path d="M748.6464 452.56704c0.63488 0 1.419947-0.314027 2.37568-0.945493 1.908053-1.273173 4.4544-3.498667 7.621973-6.673067 3.80928-3.488427 7.625387-6.034773 11.43808-7.61856 3.80928-1.594027 8.891733-1.112747 15.240534 1.426773 3.181227 0.955733 5.720747 2.304 7.625386 4.048214a2415.616 2415.616 0 0 0 5.474987 5.00736c1.747627 1.5872 3.652267 2.932053 5.720747 4.048213 2.061653 1.112747 4.683093 1.66912 7.860906 1.66912 3.170987 0 5.870933-0.477867 8.096427-1.430187a183.913813 183.913813 0 0 1 6.434133-2.62144 29.805227 29.805227 0 0 1 6.188374-1.665706c2.061653-0.320853 4.52608 0 7.38304 0.948906 3.177813 1.26976 5.321387 3.095893 6.434133 5.4784 1.109333 2.382507 1.42336 4.840107 0.95232 7.38304-0.477867 2.542933-1.590613 5.07904-3.331413 7.61856a21.562027 21.562027 0 0 1-6.437547 6.1952c-6.038187 3.80928-10.63936 7.703893-13.820587 11.6736a292.283733 292.283733 0 0 0-14.762666 20.241067 122.1632 122.1632 0 0 0-5.236054 8.577707 106.246827 106.246827 0 0 1-6.1952 10.011306h-98.62144a314.97216 314.97216 0 0 0-6.673066-10.96704 157.436587 157.436587 0 0 0-6.18496-9.519786 206.15168 206.15168 0 0 1-5.720747-8.577707 69.16096 69.16096 0 0 0-10.714453-12.622507 152.77056 152.77056 0 0 0-11.677014-9.765546c-4.130133-2.860373-6.990507-6.751573-8.574293-11.6736-1.583787-4.92544-0.16384-9.13408 4.287147-12.622507 2.218667-1.590613 4.7616-2.22208 7.61856-1.90464 2.85696 0.314027 5.881173 0.945493 9.055573 1.90464 3.177813 0.948907 6.270293 1.90464 9.28768 2.85696 3.013973 0.95232 5.79584 1.109333 8.33536 0.477867 4.447573-0.948907 7.775573-2.618027 10.00448-4.99712 2.225493-2.382507 6.038187-5.321387 11.431253-8.81664 4.130133-2.542933 8.74496-3.413333 13.820587-2.624854 5.07904 0.795307 8.88832 2.46784 11.434667 5.00736 1.273173 1.5872 2.624853 2.93888 4.051626 4.051627s2.935467 2.143573 4.522667 3.095893c1.600853 1.262933 3.341653 2.379093 5.25312 3.324587m53.828267 95.2832c3.80928 5.075627 8.58112 10.635947 14.29504 16.677547 4.765013 5.39648 10.63936 11.50976 17.629866 18.333013 6.987093 6.833493 15.08352 14.05952 24.292694 21.68832 7.625387 6.66624 15.486293 14.527147 23.586133 23.575893 8.09984 9.05216 15.16544 19.6096 21.203627 31.679147 6.03136 12.069547 10.236587 25.961813 12.619093 41.683627 2.38592 15.721813 1.979733 33.26976-1.191253 52.650666-2.860373 15.872-8.4992 30.887253-16.91648 45.01504-8.413867 14.14144-19.606187 26.443093-33.583787 36.918614-13.974187 10.482347-30.569813 18.824533-49.783467 25.01632-19.217067 6.188373-41.05216 9.28768-65.50528 9.28768-25.091413 0-47.322453-3.570347-66.699946-10.717867-19.367253-7.14752-35.805867-16.431787-49.302187-27.869867-13.49632-11.441493-24.221013-24.2176-32.157013-38.3488-7.939413-14.1312-13.182293-28.183893-15.721814-42.164906-2.85696-15.561387-3.252907-30.487893-1.194666-44.77952 2.06848-14.29504 5.799253-27.712853 11.195733-40.256854a158.969173 158.969173 0 0 1 20.251307-34.536106c8.096427-10.47552 16.909653-19.84512 26.436266-28.105387a629.930667 629.930667 0 0 0 22.391467-20.72576c6.673067-6.509227 12.229973-12.46208 16.674133-17.85856a288.9728 288.9728 0 0 0 14.29504-17.155413H802.474667v-0.006827m-52.425387 146.60608l-12.868267-12.864853-10.007893-10.00448c-3.170987-3.177813-5.39648-5.556907-6.669653-7.14752-2.536107-2.218667-5.870933-4.051627-10.00448-5.474987-4.123307-1.426773-7.61856-0.559787-10.478934 2.624853-2.542933 3.485013-3.177813 6.898347-1.908053 10.233174 1.273173 3.341653 2.70336 5.95968 4.29056 7.871146l7.140693 6.662827a2202.92096 2202.92096 0 0 0 11.441494 12.393813 710.321493 710.321493 0 0 0 15.7184 16.192854l-0.477867 10.00448h-32.392533c-2.860373 0-5.321387 1.112747-7.386454 3.341653-2.05824 2.21184-3.09248 4.59776-3.09248 7.13728 0 2.542933 0.948907 4.765013 2.85696 6.673067 1.90464 1.90464 4.44416 2.863787 7.621974 2.863786h32.392533v16.67072h-32.392533c-2.860373 0-5.321387 0.866987-7.386454 2.614614-2.05824 1.75104-3.09248 4.05504-3.09248 6.905173-0.320853 2.542933 0.549547 4.68992 2.62144 6.44096 2.061653 1.747627 4.67968 2.618027 7.860907 2.618027h32.395947v9.526613c0.320853 4.450987 1.747627 7.540053 4.287146 9.291093 2.542933 1.747627 5.720747 2.62144 9.530027 2.62144 3.80928 0.320853 6.90176-0.873813 9.28768-3.570346 2.382507-2.699947 3.570347-5.474987 3.570347-8.338774v-9.526613h33.35168c3.177813 0 5.799253-0.7168 7.860906-2.143573 2.065067-1.426773 2.93888-3.7376 2.62144-6.912 0-6.66624-4.44416-10.00448-13.335893-10.00448h-30.49472l0.484693-16.192854 30.958934-0.48128c4.447573 0.320853 7.61856-0.55296 9.530026-2.618026 1.911467-2.065067 2.85696-4.522667 2.85696-7.386454 0-2.542933-1.027413-4.84352-3.095893-6.905173-2.061653-2.061653-5.31456-3.09248-9.765547-3.09248h-30.96576v-9.055573a323.84 323.84 0 0 0 14.772907-14.76608 867.898027 867.898027 0 0 0 11.434667-11.670187c3.80928-3.969707 6.669653-6.754987 8.57088-8.331947 7.31136-6.35904 8.895147-11.90912 4.77184-16.677546-2.225493-2.863787-5.08928-4.29056-8.584534-4.29056s-6.662827 1.273173-9.526613 3.80928c-1.590613 1.273173-4.283733 3.577173-8.096427 6.905173a748.090027 748.090027 0 0 0-11.43808 10.243413 2727.99744 2727.99744 0 0 0-14.769493 13.810347m0 0z" fill="#ffffff" p-id="1182"></path></svg>