<?xml version="1.0" standalone="no"?><!DOCTYPE svg PUBLIC "-//W3C//DTD SVG 1.1//EN" "http://www.w3.org/Graphics/SVG/1.1/DTD/svg11.dtd"><svg t="1505987339825" class="icon" style="" viewBox="0 0 1629 1024" version="1.1" xmlns="http://www.w3.org/2000/svg" p-id="31912" xmlns:xlink="http://www.w3.org/1999/xlink" width="101.8125" height="64"><defs><style type="text/css"></style></defs><path d="M1629.695021 295.170447c0-45.901828-45.130402-75.967878-74.671725-75.967877h-104.220879c-13.176902 0-22.93525 5.662348-29.697958 13.823021-85.22891-111.097147-152.938218-210.861767-216.712077-221.939763C1140.614608 0.007832 979.695847 0.007832 800.889392 0.007832c-206.773598 0-280.979335 7.910057-343.99743 11.077996-63.022011 3.164023-166.334409 112.185759-251.140406 218.908879-6.590409-6.461185-15.428528-10.792138-26.870699-10.792137H74.659977c-29.541323 0-74.671725 30.06605-74.671725 75.967877 0 26.111021 23.800658 41.938967 87.809469 41.147962 13.192566-0.164467 24.098264-0.332849 33.809621-0.673529-55.910792 70.101904-97.99073 125.327419-97.99073 150.232351V992.320612l39.358409 31.651977h203.531258l32.830654-12.663924v-88.623969h1063.495465v75.967878l18.874493 25.320015h190.789017l28.695495-31.651977V485.877231c0-18.020834-44.535189-77.013415-101.36621-150.604359 11.442172 0.622623 25.00283 0.83408 42.06036 1.045537 64.008811 0.791006 87.809468-15.036941 87.809468-41.147962zM292.119985 269.963992c28.934363-46.806394 122.83301-164.490034 178.888688-176.582241 44.02221-9.495985 200.692252-14.242019 352.036711-14.242019 157.410141 0 313.99795 4.746034 360.240459 14.242019 57.555457 11.818096 126.423862 124.982822 154.27353 178.60283 7.248275 13.932665-8.454363 30.304918-24.619075 30.304918H310.172145c-17.300314 0-26.909859-17.989507-18.05216-32.325507zM242.1574 554.741721c-67.411702-4.017683-77.03691-34.138554-62.591266-66.268268 19.508864-43.411335 63.746447-38.062256 130.790057-20.750195 101.107763 26.103189 162.093522 40.161163 174.941492 62.920199 20.859839 38.821935-175.740329 28.112031-243.140283 24.098264z m871.570845 241.049208H501.885308c-39.793071 0-60.206501-11.077996-61.784597-31.706799-3.461629-45.494577 80.471128-118.564711 139.996268-118.564711h491.58657c49.371289 0 113.117736 71.687832 113.117736 113.04725 0 22.845185-19.281744 37.22426-71.07304 37.22426z m296.768122-241.049208c-67.399954 4.013767-263.996207 14.723671-243.136367-24.098264 12.836222-22.759036 73.821981-36.81701 174.929744-62.920199 67.04361-17.312061 111.281193-22.66114 130.801805 20.750195 14.441728 32.129713 4.808688 62.250585-62.595182 66.268268z" fill="#ffffff" p-id="31913"></path></svg>