<?xml version="1.0" encoding="UTF-8"?>
<svg width="28px" height="24px" viewBox="0 0 28 24" version="1.1" xmlns="http://www.w3.org/2000/svg" xmlns:xlink="http://www.w3.org/1999/xlink">
    <!-- Generator: Sketch 43.1 (39012) - http://www.bohemiancoding.com/sketch -->
    <title>我的群组</title>
    <desc>Created with Sketch.</desc>
    <defs></defs>
    <g id="L_12_营销管理_总行" stroke="none" stroke-width="1" fill="none" fill-rule="evenodd" opacity="0.5">
        <g id="营销首页切图" transform="translate(-232.000000, -459.000000)" fill="#FFFFFF">
            <path d="M249.69879,469.727494 C251.099309,468.626767 252.002769,466.921942 252.002769,465.005977 C252.002769,461.694114 249.311021,459 246.001914,459 C242.692842,459 240.00106,461.69408 240.00106,465.005977 C240.00106,466.921942 240.905477,468.626767 242.305142,469.727494 C238.617086,471.2026 236.000513,474.808712 236.000513,479.019879 L236.000513,481.02186 C236.000513,481.575183 236.447833,482.022885 237.000684,482.022885 L255.003213,482.022885 C255.556065,482.022885 256.00335,481.575183 256.00335,481.02186 L256.00335,479.019879 C256.003384,474.807719 253.387768,471.2026 249.69879,469.727494 Z M246.001983,461.002015 C248.208362,461.002015 250.002564,462.797715 250.002564,465.005977 C250.002564,467.21424 248.208362,469.010008 246.001983,469.010008 C243.795604,469.010008 242.001367,467.21424 242.001367,465.005977 C242.001367,462.797715 243.795604,461.002015 246.001983,461.002015 Z M254.003077,480.020938 L238.00082,480.020938 L238.00082,479.019879 C238.00082,474.604415 241.590216,471.011955 246.00294,471.011955 C250.414638,471.011955 254.003043,474.604415 254.003043,479.019879 L254.003043,480.020938 L254.003077,480.020938 Z M239.306714,470.075494 C239.334063,470.014865 239.334063,469.95037 239.347703,469.887791 C239.357446,469.849675 239.368214,469.81351 239.373103,469.773445 C239.380897,469.694237 239.376077,469.619033 239.365308,469.541776 C239.361411,469.500752 239.371154,469.46161 239.361411,469.420552 C239.355565,469.397081 239.338951,469.380487 239.332114,469.357015 C239.316491,469.312057 239.294988,469.271957 239.273486,469.229907 C239.232497,469.143891 239.187543,469.06571 239.126008,468.996322 C239.117223,468.986571 239.106454,468.979728 239.096711,468.969942 C239.005914,468.875099 238.901374,468.802768 238.782203,468.750967 C237.700021,468.268093 237.000684,467.192787 237.000684,466.007994 C237.000684,464.614012 237.944175,463.413651 239.295911,463.088097 C239.833105,462.95808 240.163203,462.417519 240.034288,461.879866 C239.903391,461.342214 239.361309,461.015735 238.827055,461.140859 C236.573807,461.684363 235.000342,463.68631 235.000342,466.007994 C235.000342,467.274903 235.481882,468.46257 236.300356,469.365809 C233.697525,470.715757 232,473.415687 232,476.470528 L232,478.018957 C232,478.572246 232.447354,479.019948 233.000137,479.019948 C233.552954,479.019948 234.000308,478.572246 234.000308,478.018957 L234.000308,476.470528 C234.000308,473.702134 235.859941,471.326732 238.528272,470.654204 C238.860317,470.607227 239.162109,470.404914 239.306714,470.075494 Z M255.699644,469.365774 C256.518084,468.462536 256.999556,467.2748 256.999556,466.00796 C256.999556,463.746938 255.477882,461.758643 253.298851,461.17309 C252.76658,461.030345 252.21766,461.346114 252.073089,461.879866 C251.929509,462.414577 252.245966,462.962973 252.779263,463.106675 C254.086045,463.457583 254.999316,464.651169 254.999316,466.007994 C254.999316,467.192787 254.300937,468.266142 253.219746,468.749975 C253.09866,468.802768 252.992206,468.876091 252.900383,468.971893 C252.892589,468.98072 252.882777,468.986571 252.874983,468.995364 C252.812457,469.064752 252.767571,469.144917 252.725557,469.231926 C252.705046,469.273976 252.682586,469.313049 252.667954,469.35705 C252.661083,469.379529 252.644503,469.397149 252.638657,469.420621 C252.62888,469.461644 252.638657,469.500786 252.63476,469.541844 C252.623992,469.619067 252.619137,469.69434 252.626931,469.773479 C252.631854,469.813579 252.642554,469.84971 252.652331,469.887859 C252.666006,469.950404 252.666006,470.014933 252.693354,470.075528 C252.837926,470.404983 253.139683,470.60733 253.471728,470.654238 C256.140059,471.326834 257.999727,473.702168 257.999727,476.470563 L257.999727,478.019026 C257.999727,478.57228 258.447081,479.019982 258.999863,479.019982 C259.552646,479.019982 260,478.57228 260,478.019026 L260,476.470563 C260.000034,473.415687 258.302543,470.715757 255.699644,469.365774 L255.699644,469.365774 Z" id="群组多人"></path>
        </g>
    </g>
</svg>