<?xml version="1.0" encoding="UTF-8"?>
<svg width="28px" height="28px" viewBox="0 0 28 28" version="1.1" xmlns="http://www.w3.org/2000/svg" xmlns:xlink="http://www.w3.org/1999/xlink">
    <!-- Generator: Sketch 43.1 (39012) - http://www.bohemiancoding.com/sketch -->
    <title>我的主管客户 </title>
    <desc>Created with Sketch.</desc>
    <defs></defs>
    <g id="L_12_营销管理_总行" stroke="none" stroke-width="1" fill="none" fill-rule="evenodd" opacity="0.5">
        <g id="营销首页切图" transform="translate(-236.000000, -402.000000)" fill="#FFFFFF">
            <g id="客户管理-(1)" transform="translate(236.000000, 402.000000)">
                <path d="M23.230267,10.1423937 C24.6564332,9.15401575 25.5972897,7.46585827 25.5972897,5.54793176 C25.5972897,2.50188451 23.2276574,0.0318950131 20.3034912,0.0318950131 C17.3801713,0.0318950131 15.0097985,2.50096588 15.0097985,5.54793176 C15.0097985,7.4659685 15.9505491,9.15416273 17.3768212,10.1423937 C14.6517582,11.2760262 12.7161259,13.9433386 12.6169622,17.0800735 C12.6169622,17.0800735 12.7220151,17.9784987 13.6682317,17.9294803 C14.4252897,17.9784252 14.8559395,17.0800735 14.8559395,17.0800735 C15.3678741,13.6631181 17.2169673,11.8065564 20.3035264,11.8065564 C23.3902267,11.8065564 25.4041108,13.6629344 25.9168917,17.0800735 C25.9168917,17.0800735 26.2971839,17.8307087 26.9593804,17.8797638 C27.8429673,17.9847087 27.9907607,17.0800735 27.9907607,17.0800735 C27.891597,13.944147 25.9552594,11.2758425 23.230267,10.1423937 Z M20.3034912,8.86901837 C18.5431234,8.86901837 17.1160756,7.38211549 17.1160756,5.54782152 C17.1160756,3.71352756 18.5431234,2.22658793 20.3034912,2.22658793 C22.0638589,2.22658793 23.4908715,3.71352756 23.4908715,5.54782152 C23.4908715,7.38211549 22.0638589,8.86901837 20.3034912,8.86901837 L20.3034912,8.86901837 Z" id="Fill-1"></path>
                <path d="M27.9608917,19.6347612 L27.9608917,19.4656588 C27.9608917,18.8716325 27.4704332,18.3900472 26.8654358,18.3900472 C26.2604383,18.3900472 25.7699798,18.871853 25.7699798,19.4656588 L25.7699798,25.6575906 C25.7699798,25.6842677 25.7716373,25.7110184 25.7742469,25.7377323 L2.10528967,25.7377323 L2.10528967,2.47781627 L6.37204534,2.48049869 C6.43954156,2.49567454 6.50880101,2.50368504 6.57968262,2.50368504 L12.5221008,2.50368504 C13.0920806,2.50368504 13.5543275,1.99262992 13.5543275,1.36229921 C13.5543275,0.731895013 13.0920101,0.22087664 12.5221008,0.22087664 L1.78671033,0.22087664 C0.816055416,0.22087664 0.0298337531,1.0399685 0.0298337531,2.0516063 L0.0298337531,26.1634278 C0.0298337531,27.1749186 0.815879093,27.9941575 1.78671033,27.9941575 L26.2236574,27.9941575 C27.1934307,27.9941575 27.980534,27.1750289 27.980534,26.1634278 L27.9898791,19.6339895 L27.9608917,19.6347612" id="Fill-2"></path>
                <path d="M4.87062469,8.40870866 L10.8130428,8.40870866 C11.3830579,8.40870866 11.8453048,7.89765354 11.8453048,7.26728609 C11.8453048,6.63691864 11.3828816,6.12582677 10.8130428,6.12582677 L4.87062469,6.12582677 C4.3006801,6.12582677 3.83843325,6.63691864 3.83843325,7.26728609 C3.83843325,7.89765354 4.3006801,8.40870866 4.87062469,8.40870866 Z M4.71944584,15.2565092 L10.6618992,15.2565092 C11.2318791,15.2565092 11.6940907,14.7454541 11.6940907,14.1150499 C11.6940907,13.4850866 11.231738,12.9739948 10.6618992,12.9739948 L4.71944584,12.9739948 C4.14946599,12.9739948 3.68725441,13.4850866 3.68725441,14.1150499 C3.68711335,14.7454541 4.14946599,15.2565092 4.71944584,15.2565092 Z M3.68711335,21.4591339 C3.68711335,22.0745827 4.13835768,22.5730709 4.69465491,22.5730709 L21.0623829,22.5730709 C21.6186096,22.5730709 22.0699244,22.0745827 22.0699244,21.4591339 C22.0699244,20.8437585 21.6186096,20.3452336 21.0623829,20.3452336 L4.69465491,20.3452336 C4.13835768,20.3452336 3.68711335,20.843832 3.68711335,21.4591339 L3.68711335,21.4591339 Z" id="Fill-3"></path>
            </g>
        </g>
    </g>
</svg>