<?xml version="1.0" standalone="no"?><!DOCTYPE svg PUBLIC "-//W3C//DTD SVG 1.1//EN" "http://www.w3.org/Graphics/SVG/1.1/DTD/svg11.dtd"><svg t="1525847505688" class="icon" style="" viewBox="0 0 1024 1024" version="1.1" xmlns="http://www.w3.org/2000/svg" p-id="2503" xmlns:xlink="http://www.w3.org/1999/xlink" width="200" height="200"><defs><style type="text/css"></style></defs><path d="M220.16 521.728L50.688 691.2a33.9968 33.9968 0 0 0 0 48.128L220.16 908.8c13.312 13.312 34.816 13.312 48.128 0 13.312-13.312 13.312-34.816 0-48.128l-111.616-111.616H942.08c18.944 0 33.792-15.36 33.792-33.792s-15.36-33.792-33.792-33.792H156.672l111.616-111.616c6.656-6.656 9.728-15.36 9.728-24.064 0-8.704-3.072-17.408-9.728-24.064-13.312-12.8-34.816-12.8-48.128 0z m576.512-445.44a33.9968 33.9968 0 0 0-48.128 0c-6.656 6.656-9.728 15.36-9.728 24.064 0 8.704 3.072 17.408 9.728 24.064L860.16 236.032H74.752c-18.944 0-33.792 15.36-33.792 33.792s15.36 33.792 33.792 33.792H860.16l-111.616 111.616a33.9968 33.9968 0 0 0 0 48.128c13.312 13.312 34.816 13.312 48.128 0l169.472-169.472c13.312-13.312 13.312-34.816 0-48.128l-169.472-169.472z" p-id="2504" fill="#3cbfef"></path></svg>