<?xml version="1.0" standalone="no"?><!DOCTYPE svg PUBLIC "-//W3C//DTD SVG 1.1//EN" "http://www.w3.org/Graphics/SVG/1.1/DTD/svg11.dtd"><svg t="1525834477700" class="icon" style="" viewBox="0 0 1025 1024" version="1.1" xmlns="http://www.w3.org/2000/svg" p-id="1067" xmlns:xlink="http://www.w3.org/1999/xlink" width="200.1953125" height="200"><defs><style type="text/css"></style></defs><path d="M340.258031 555.24c57.266 78.648 145.014 84.76 170.544 84.76l2.396 0c25.53 0 113.276-6.112 170.542-84.758 22.548-30.966 45.498-87.012 55.474-112.858 33.934-40.524 46.802-79.014 38.252-114.54-4.308-17.896-13.962-33.558-27.256-45.02 5.278-43.008 4.998-91.7-10.594-134.504-22.128-60.748-62.122-103.65-118.864-127.51C576.094031 2.028 533.758031 0 517.628031 0l-2.398 0c-1.268 0-2.35 0.012-3.228 0.03C511.122031 0.012 510.038031 0 508.770031 0l-2.396 0c-16.128 0-58.464 2.028-103.126 20.81-56.744 23.862-96.734 66.762-118.864 127.512-15.592 42.806-15.87 91.494-10.594 134.502-13.292 11.462-22.948 27.124-27.256 45.022-8.55 35.526 4.318 74.014 38.254 114.538C294.764031 468.23 317.708031 524.276 340.258031 555.24zM321.068031 328.024c18.556-6.95 31.012 20.712 35.546 33.066-5.164-15.928-19.194-63.18-21.556-112.96 16.708-23.356 50.05-62.498 89.612-68.878 0 0 85.52 102.268 261.342 100.272-5.048 37.208-14.568 69.056-18.626 81.568 4.538-12.354 16.99-40.016 35.546-33.066 11.208 4.198 30.144 26.572-19.504 80.944 0 0-28.334 76.892-51.424 108.6C597.972031 564.304 545.118031 576 513.200031 576c-0.302-0.018-0.718-0.042-1.2-0.078-0.48 0.036-0.896 0.06-1.198 0.078-31.92 0-84.778-11.696-118.806-58.432-23.09-31.708-51.424-108.6-51.424-108.6C290.924031 354.596 309.862031 332.222 321.068031 328.024zM577.050031 704.42 547.362031 672 512.000031 672l-35.366 0-29.688 32.42c0 0 16.966 36.18 44.534 50.244l-44.534 112.562c0 0 32.558 46.422 65.054 58.384 32.496-11.962 65.052-58.384 65.052-58.384l-44.532-112.562C560.082031 740.6 577.050031 704.42 577.050031 704.42zM975.104031 790.014C921.158031 720.95 680.958031 672 680.958031 672 712.770031 854.644 512.000031 965.71 512.000031 965.71S311.230031 854.644 343.040031 672c0 0-240.202 48.95-294.146 118.014C-8.269969 863.204-1.541969 935.372 2.698031 965.52 6.940031 995.666 14.350031 1013.952 63.122031 1024l897.752 0c48.774-10.048 56.184-28.334 60.426-58.48C1025.542031 935.372 1032.270031 863.204 975.104031 790.014z" p-id="1068" fill="#ffffff"></path></svg>