<?xml version="1.0" standalone="no"?><!DOCTYPE svg PUBLIC "-//W3C//DTD SVG 1.1//EN" "http://www.w3.org/Graphics/SVG/1.1/DTD/svg11.dtd"><svg t="1526347475944" class="icon" style="" viewBox="0 0 1024 1024" version="1.1" xmlns="http://www.w3.org/2000/svg" p-id="2354" xmlns:xlink="http://www.w3.org/1999/xlink" width="200" height="200"><defs><style type="text/css"></style></defs><path d="M768.922 422.728H372.06c6.82-57.508-42.68-291.308 140.145-297.001 173.834-6.595 146.78 213.34 146.78 213.34l85.135 0.573s24.74-294.4-231.915-295.833C232.1 58.02 297.82 377.18 289.28 422.727h7.29c-55.889 0-101.211 45.343-101.211 101.213v337.387c0 55.89 45.342 101.213 101.212 101.213h472.35c55.89 0 101.213-45.343 101.213-101.213V523.94c0-55.87-45.343-101.212-101.212-101.212zM566.477 717.025v76.841c0 18.576-15.155 33.73-33.73 33.73-18.576 0-33.731-15.154-33.731-33.73v-76.84c-20.091-11.695-33.73-33.22-33.73-58.123 0-37.274 30.207-67.482 67.48-67.482 37.274 0 67.482 30.208 67.482 67.482-0.02 24.904-13.66 46.428-33.771 58.122z" fill="#3cbfef" p-id="2355"></path></svg>