<?xml version="1.0" standalone="no"?><!DOCTYPE svg PUBLIC "-//W3C//DTD SVG 1.1//EN" "http://www.w3.org/Graphics/SVG/1.1/DTD/svg11.dtd"><svg t="1533805613231" class="icon" style="" viewBox="0 0 1024 1024" version="1.1" xmlns="http://www.w3.org/2000/svg" p-id="2473" xmlns:xlink="http://www.w3.org/1999/xlink" width="500" height="500"><defs><style type="text/css"></style></defs><path d="M908.8 774.4S606.4 256 566.4 192c-27.2-48-75.2-41.6-99.2 0-80 137.6-268.8 465.6-318.4 548.8-68.8 97.6 11.2 115.2 11.2 115.2h734.4c49.6-19.2 14.4-81.6 14.4-81.6z m-388.8-12.8c-25.6 0-46.4-20.8-46.4-46.4 0-25.6 20.8-46.4 46.4-46.4 25.6 0 46.4 20.8 46.4 46.4 0 25.6-20.8 46.4-46.4 46.4z m48-182.4c0 25.6-20.8 46.4-46.4 46.4-25.6 0-46.4-20.8-46.4-46.4V432c0-25.6 20.8-46.4 46.4-46.4 25.6 0 46.4 20.8 46.4 46.4v147.2z m0 0" fill="#d81e06" p-id="2474"></path></svg>